<?xml version="1.0" encoding="utf-8"?>
<!-- Generator: Adobe Illustrator 21.1.0, SVG Export Plug-In . SVG Version: 6.00 Build 0)  -->
<svg version="1.1" id="Layer_1" xmlns="http://www.w3.org/2000/svg" xmlns:xlink="http://www.w3.org/1999/xlink" x="0px" y="0px"
	 viewBox="0 0 792 612" style="enable-background:new 0 0 792 612;" xml:space="preserve">
<style type="text/css">
	.st0{opacity:0.4;fill:#00A79D;}
	.st1{fill:#007A6F;}
	.st2{fill:#00A79D;}
</style>
<polygon class="st0" points="146.1,108.6 103.9,108.6 103.9,180.2 329,520.2 404.3,520.2 404.3,498.5 "/>
<g>
	<rect x="366.2" y="204.9" class="st1" width="75" height="315.3"/>
</g>
<g>
	<rect x="465" y="317.4" class="st1" width="74.8" height="202.8"/>
</g>
<rect x="103.9" y="108.6" class="st1" width="75" height="411.6"/>
<g>
	<path class="st2" d="M586.7,108.6H211.1l48,72.4h327.7c41.5,0,75.2,30.6,75.2,68.3c0,37.6-33.7,68.3-75.2,68.3H465V390h121.7
		c81.4,0,147.6-63.1,147.6-140.7C734.3,171.7,668.1,108.6,586.7,108.6z"/>
</g>
<polygon class="st2" points="441.2,498.5 183,108.6 103.9,108.6 103.9,124.6 365.9,520.2 441.2,520.2 "/>
</svg>
