<?xml version="1.0" standalone="no"?>
<!DOCTYPE svg PUBLIC "-//W3C//DTD SVG 1.1//EN" "http://www.w3.org/Graphics/SVG/1.1/DTD/svg11.dtd" >
<svg xmlns="http://www.w3.org/2000/svg" xmlns:xlink="http://www.w3.org/1999/xlink" version="1.1">
<metadata>
Created by FontForge 20170731 at Mon Oct  1 02:52:41 2012
 By Aleksey,,,
(c) 1997, 2001, 2002 Adobe Systems Incorporated. All rights reserved.
</metadata>
<defs>
<font id="FloodStd" horiz-adv-x="569" >
  <font-face 
    font-family="Flood Std"
    font-weight="400"
    font-style="italic"
    font-stretch="normal"
    units-per-em="1000"
    panose-1="3 9 6 2 4 4 5 6 2 6"
    ascent="750"
    descent="-250"
    x-height="567"
    cap-height="631"
    bbox="-175 -304 1222 871"
    underline-thickness="100"
    underline-position="-225"
    slope="-30"
    unicode-range="U+0020-E000"
  />
<missing-glyph horiz-adv-x="701" 
d="M201 0v700h500v-700h-500zM451 395l170 255h-340zM481 350l170 -255v510zM281 50h340l-170 255zM251 605v-510l170 255z" />
    <glyph glyph-name=".notdef" horiz-adv-x="701" 
d="M201 0v700h500v-700h-500zM451 395l170 255h-340zM481 350l170 -255v510zM281 50h340l-170 255zM251 605v-510l170 255z" />
    <glyph glyph-name=".null" horiz-adv-x="0" 
 />
    <glyph glyph-name="nonmarkingreturn" horiz-adv-x="333" 
 />
    <glyph glyph-name="space" unicode=" " horiz-adv-x="275" 
 />
    <glyph glyph-name="space" unicode="&#xa0;" horiz-adv-x="275" 
 />
    <glyph glyph-name="exclam" unicode="!" horiz-adv-x="341" 
d="M241 556l-13 -24l-13 2l18 28zM406 557q0 -19 -15 -39t-44.5 -53.5t-51.5 -68.5q-2 -2 -17 -26.5t-21.5 -35t-23.5 -36.5t-28.5 -42t-28.5 -40t-31 -40.5t-30.5 -34.5t-30.5 -31l-4 22q35 45 34 68l-31 -24q1 13 0 23.5t2 25t12 28.5q-1 2 -2.5 6t-2.5 6q22 36 22 71
q30 40 45.5 87t43.5 89l26 5q89 134 119 134q20 0 39 -33.5t19 -60.5zM53 -43l-30 -47q-5 10 -13.5 14.5t-15.5 -0.5q-23 42 -41 53q-28 18 -28 76q2 3 6.5 11.5t7 12t7 10.5t7.5 10t7.5 7t9.5 5.5t10 1.5q17 0 29.5 -13t21 -40.5t12.5 -46.5t10 -54z" />
    <glyph glyph-name="quotedbl" unicode="&#x22;" horiz-adv-x="360" 
d="M425 564q-19 -36 -45 -31q-35 -51 -54 -93l10 -10q17 33 40 71l13 -3q-55 -110 -68 -159l-55 16q-23 34 -28 66q2 17 6.5 36t17.5 57.5t37 62.5t56 24q37 0 70 -37zM220 479h-11q-10 -43 -33 -88l5 -11l-28 -39l-7 6q-25 -27 -59 -27q-2 4 -7 11t-7.5 13t-2.5 12
q0 41 19.5 115t42.5 134q22 13 47 13l3 -18q27 -13 32.5 -34.5t5.5 -86.5z" />
    <glyph glyph-name="numbersign" unicode="#" horiz-adv-x="707" 
d="M672 372q-27 -8 -67 -17t-67 -17.5t-48 -21.5l-13 -37q12 2 131 38q6 -11 26 -32.5t20 -33.5t-24 -21t-93.5 -28t-125.5 -38l6 -20l-17 -3q8 -10 -1 -30q-10 -21 -45 -100q-6 4 -0.5 21.5t-0.5 20.5l-50 -115l-6 6q9 20 18 49t10 32q-5 2 -10.5 -7t-9.5 -21t-11 -22.5
t-15 -11.5q12 28 6 55q32 37 40 95q-10 -2 -23 -38l-8 5l18 49q-54 -5 -91.5 -38.5t-39.5 -91.5q-19 0 -7 -19q-11 -14 -31 -50.5t-28 -61.5q-13 7 -21 18l14 33l-12 8l-19 -20q2 10 9.5 27t9.5 24.5t-4 22.5q12 24 32 74l-89 -42q6 19 20 29q1 4 3 10t3 10q7 4 31 13t38 18
t15 20l-79 -36q10 22 107 67q3 12 -12 12q3 9 10.5 29.5t10.5 30.5l-117 -36v15l12 10q0 9 0.5 14.5t3.5 10t4.5 6.5t8.5 7t11 9l-7 9q62 36 124 69q112 303 175 303q15 0 39 -15q0 -16 13 -25t13 -18q0 -18 -37.5 -57.5t-42.5 -68.5q-32 -18 -49 -78q14 6 50.5 26.5
t58.5 27.5l-9 8q68 155 97 155q7 0 20 -12.5t28 -30t22 -23.5q-8 -19 -36 -42l-14 -37l46 5q26 3 76 -54v-22zM364 235l-28 -6v1q19 8 28.5 26t5.5 38q-44 -7 -89 -37q-2 -4 -5.5 -10t-5.5 -9.5t-4 -8t-3.5 -7t-3 -5.5t-1.5 -5.5t-0.5 -4.5t0 -4t1.5 -4l42 15q25 10 27 11
q7 -10 18 -6t18 16zM118 235l-6 7l-20 -14v-11zM124 -19h-14q0 -21 -5 -37l10 -3zM348 -7l-14 -32l-6 7q1 2 2.5 6t2 6t2 5t2.5 4l3 3t3.5 1.5t4.5 -0.5zM97 119l10 15l39 18q0 -15 -49 -33zM111 -144l-4 -22l-9 4l3 25z" />
    <glyph glyph-name="dollar" unicode="$" horiz-adv-x="521" 
d="M473 551l-2 -12q25 -7 37.5 -27t9.5 -47q6 -5 6 -11q0 -15 -21 -32.5t-48 -23.5q-7 8 -7 15q0 5 7 11.5t4 10.5q-85 0 -142 -26q-20 -48 -31 -81l-11 -7l-1 -3q-1 -3 -2 -4q14 -9 37.5 -22t39.5 -24.5t28 -24.5l11 6q44 -47 40 -89l-7 -75l-16 3q-35 -47 -140 -95
q-22 9 -33 5t-10 -23q-45 -15 -63 -19q-10 -30 -16 -43l5 -14q-14 -46 -43 -78l-13 30l4 42l-5 3l1 34l8 1l3 22q-11 5 -43 33q-25 6 -34.5 19t-5.5 27q-22 31 -21 45q3 27 21 42q14 -10 20 -1q5 -4 15 -15.5t18 -17.5t15 -6q17 0 36 4q19 93 44 175q-36 34 -41 57
q-2 10 -5.5 29.5t-5.5 33t-2 22.5q3 36 45 71t102 58q2 6 5 13t7 15.5t6 13.5l55 69q38 12 73 12l9 -11l-14 -16l9 -9l15 13l6 -7q-24 -35 -42 -67q52 0 83 -4zM494 393l-8 6l23 16q0 -5 -2 -9t-3 -5t-10 -8zM212 137l-7 -29q40 17 77 40v19q-8 7 -20 24t-18 22
q-4 -13 -12 -37.5t-11 -34.5zM263 11l4 -6l36 17l2 10zM253 508q-58 -20 -59 -38l57 33q1 1 1 2.5t1 2.5z" />
    <glyph glyph-name="percent" unicode="%" horiz-adv-x="692" 
d="M727 469l-30 -29l-11 6q-205 -113 -357 -225l-12 -24q-50 -42 -153 -140.5t-153 -142.5q-13 26 2.5 57t56.5 78q14 17 9 24l-44 -48l-6 4q48 60 64 69q13 29 64 83t101 96q6 13 5 16t-9 14q-63 -38 -123 -41l-10 18l-8 -12q-25 27 -21 59l-14 24q9 55 57.5 101t99.5 46
q27 0 45.5 -49.5t18.5 -113.5l13 -21l88 84l8 -6l112 80l-7 8q78 52 163 80l9 -9l-8 -11q43 -30 50 -40v-35zM549 173q-14 -12 -2 -30l-18 -27v-74q-59 -72 -119 -72q-46 0 -61 56h-11q0 73 49.5 141.5t103.5 68.5q30 0 44 -20.5t14 -42.5zM430 53h-26q-5 -14 5 -14
q11 0 21 14z" />
    <glyph glyph-name="ampersand" unicode="&#x26;" horiz-adv-x="638" 
d="M309 186q-28 51 -42 90q-47 -18 -85.5 -56t-54.5 -75l6 -13q63 0 176 54zM169 114l-4 9h-27l5 -6zM603 209q-11 -5 -15.5 -9.5t-1 -9t15.5 -6.5q0 -5 -2 -13q-6 -2 -29 -7.5t-35 -10.5q-30 -13 -69 -35q19 -21 68 -63q15 -15 13 -36t-17 -42l5 -8l-6 -11l-8 7
q-2 -2 -4 -3.5t-4.5 -3t-3.5 -2.5l-53 45h-12q-32 34 -71 83l-9 -5l5 -20q-86 -49 -182 -55l5 -13q-3 0 -11.5 1t-12.5 1.5t-10 3t-10 6.5q-24 0 -43 9t-37 30t-28.5 36.5t-30.5 48.5v74l17 11q20 47 51.5 84t59 56t56 42.5t41.5 46.5q-1 53 12 105l99 63q9 -5 36 8.5
t43 13.5q15 0 33.5 -11t23.5 -24q27 -66 27 -80q0 -32 -164 -160l-15 -12q12 -58 53 -120q14 7 45.5 24t45.5 24t35 17t33.5 14t21.5 4q6 -8 8 -22t1.5 -22t6 -14t22.5 0q0 -8 0.5 -21t0.5 -19zM264 287l-5 15l-31 -23l2 -7z" />
    <glyph glyph-name="quotesingle" unicode="'" horiz-adv-x="179" 
d="M219 479h-10q-10 -43 -33 -88l4 -11l-27 -39l-7 6q-25 -27 -59 -27q-2 4 -7 11t-7.5 13t-2.5 12q0 41 19.5 115t42.5 134q22 13 47 13l3 -18q26 -13 31.5 -34t5.5 -87z" />
    <glyph glyph-name="parenleft" unicode="(" horiz-adv-x="480" 
d="M252 -141q-32 0 -78 17t-83 54l-41 123q0 63 16 124t40.5 110.5t63 99.5t74 86.5t84 77t83 66.5t79.5 58q5 3 7.5 5t6.5 5t7.5 5.5t6.5 4.5q10 8 16 8q5 0 7.5 -7.5t5 -14t6.5 -4.5l16 6q16 -35 16 -39q0 -16 -23.5 -39.5t-60 -50.5t-83.5 -67t-92 -84t-88.5 -107
t-70.5 -131q-12 1 -14 -7t7 -19l-6 -19h-14q-1 -32 -0.5 -48.5t8.5 -44t24 -46.5q54 -30 121 -30q19 0 58 2t72 1l10 -17q-3 -2 -9 -6.5t-9 -6.5q-16 6 -30 -2q-5 -3 -20 -10.5t-26 -13.5q-4 -2 -6 -8t0 -10q-52 -21 -81 -21zM306 -115l-4 6l-35 -6l7 -9zM392 -102l-35 -19
l-13 5q2 1 8 4.5t11 6t11 5t10.5 2t7.5 -3.5z" />
    <glyph glyph-name="parenright" unicode=")" horiz-adv-x="480" 
d="M238 700q32 0 78 -17t83 -54l41 -123q0 -63 -16 -124t-40.5 -110.5t-63 -99.5t-74 -86.5t-84 -77t-83 -66.5t-79.5 -58q-19 -14 -28 -20q-10 -8 -16 -8q-5 0 -7.5 7.5t-5 14t-6.5 4.5l-16 -6q-16 35 -16 39q0 16 23.5 39.5t60 50.5t83.5 67t92 84t88.5 107t70.5 131
q12 -1 14 7t-7 19l6 19h14q1 32 0.5 48.5t-8.5 44t-24 46.5q-54 30 -121 30q-19 0 -58 -2t-72 -1l-10 17q3 2 9 6.5t9 6.5q16 -6 30 2q3 2 55 23q8 3 -3 19q52 21 81 21zM98 661l35 19l13 -5q-2 -1 -8 -4.5t-11 -6t-11 -5t-10.5 -2t-7.5 3.5zM184 674l4 -6l35 6l-7 9z" />
    <glyph glyph-name="asterisk" unicode="*" horiz-adv-x="328" 
d="M155 362l-5 13q-19 -78 -20 -86h-1q-5 12 -7 15q7 45 23 96q-15 -1 -81 -15q-6 6 -7 8l31 7q-11 9 -34 3q0 6 4.5 21t4.5 25q20 3 57 17q-35 38 -51 74t1 53q21 -14 54.5 -47t56.5 -47q37 87 79 132q14 -4 23.5 -13.5t19.5 -28t12 -21.5l-20 -35q14 5 33 22l6 -3
q20 -3 31.5 -14t16.5 -22t8 -12q-27 -35 -110 -72q51 -51 64 -102q-27 0 -46 8.5t-38.5 25.5t-30.5 23q-5 -16 -18.5 -52.5t-19.5 -58t-7 -42.5q-13 0 -22 3l4 21h-9l-7 -12q-9 9 -16 28q5 25 21 88z" />
    <glyph glyph-name="plus" unicode="+" horiz-adv-x="625" 
d="M551 216q-140 -29 -252 -44q-54 -110 -54 -172l-55 12q-2 4 -11 18.5t-13 24t-4 18.5q0 34 18 86q-35 -3 -64 -3q0 40 -36 40q0 40 15 74q42 11 144 17q31 57 100 169q24 10 43 4v-16q25 -15 25 -47v-53h-14q-11 -21 -29 -53q19 0 43 2v-11q28 -7 71 -7l22 -30
q12 0 19.5 -4t16 -12.5t15.5 -12.5zM286 170q-2 0 -6 -1t-6 -1l-28 -78l5 -7z" />
    <glyph glyph-name="comma" unicode="," horiz-adv-x="204" 
d="M119 14l-98 -128q-18 -23 -45.5 -40t-55 -29t-35.5 -18l12 32l-12 11q11 31 28.5 63.5t42.5 71.5t33 53l-5 16q19 48 14 84q18 10 27 10q11 0 20 -3.5t17.5 -12.5t14 -16.5t13 -22.5t10.5 -22.5t10 -25.5t9 -23z" />
    <glyph glyph-name="hyphen" unicode="-" horiz-adv-x="504" 
d="M499 204q-168 -51 -435 -64q-1 12 -12.5 22t-26.5 15q0 41 17 77q28 22 80.5 27.5t102.5 1t103 0.5l-5 -13q34 -9 77 -9l24 -36q38 5 75 -21z" />
    <glyph glyph-name="period" unicode="." horiz-adv-x="170" 
d="M88 31q-4 -19 -35 -54.5t-56 -43.5l-55 63l10 13q-17 40 3.5 84t51.5 44q23 0 46 -31.5t35 -74.5z" />
    <glyph glyph-name="slash" unicode="/" horiz-adv-x="385" 
d="M520 556q-168 -127 -266 -249q-34 -43 -143 -183.5t-149 -187.5l-2 -17q-63 -75 -95 -93v40q6 13 20 41l-7 10l24 38l5 -3q161 312 445 628l82 51q42 -4 73 -20l7 -28l-21 -11l4 -13l21 7zM-15 -19v13l-26 -35l1 -9z" />
    <glyph glyph-name="zero" unicode="0" horiz-adv-x="594" 
d="M549 384l-10 -14q25 -32 19.5 -75t-28 -84.5t-60.5 -84.5q-1 26 -15 10q-16 -19 -19 -46q-32 -31 -70 -56q-29 0 -43 -12q-32 -28 -111 -48q-24 22 -35 11l-54 40q-18 -20 -40.5 9.5t-47.5 88.5q0 89 32 170t78.5 135.5t98 95.5t91 60t56.5 19q15 0 47 -13t53 -26l25 -66
l11 2q-1 -27 -19 -53q-7 -11 2 -23.5t31 -32.5q5 -4 8 -7zM439 453q-68 0 -139.5 -72t-116.5 -168q-20 0 -29 -16l19 -6q-24 -58 -30 -97l65 10q46 18 109 75t88 108q-38 97 12 124q22 11 22 42z" />
    <glyph glyph-name="one" unicode="1" horiz-adv-x="394" 
d="M385 486q-31 -80 -76.5 -170.5t-78.5 -170.5t-59 -187l-28 -17q-1 1 -3 3.5t-4 4.5l25 71q-24 5 -37 -61q-20 17 -43 34q0 13 -4 15.5t-16 -4.5q0 6 -3 19.5t-3 19.5q0 5 10 19.5t10 26.5q0 46 41 147t84 174q-21 2 -95 -40q-20 21 -33 50t-10 55t28 33q36 10 108 43.5
t109 43.5q18 0 60 -14q14 -45 18 -95z" />
    <glyph glyph-name="two" unicode="2" horiz-adv-x="723" 
d="M697 115q-4 0 -12.5 -1t-13 -1.5t-10.5 -1t-9.5 0.5t-5.5 3l47 9zM440 269l-38 -20l-2 6l38 25zM703 154q-5 -11 -16.5 -17.5t-21 -8t-33 -3.5t-34.5 -4q-23 -3 -56 -26.5t-66 -34.5v9q32 13 48 24l-3 7q-21 -11 -42.5 -15.5t-28 -9.5t-9.5 -24q-21 -4 -29 7t-31 11
l-25 -26q-176 -36 -184 -37q-18 18 -30 9q-6 -4 -4 -13q-28 -2 -42 -2q-10 0 -19 7.5t-14.5 16t-15 24.5t-14.5 24q20 30 -3 35q36 54 104.5 108t129 88.5t107 68t46.5 53.5q-15 21 -46 21q-51 0 -141 -49l-10.5 -3t-8 5t-7.5 11t-9 16.5t-13 20.5q-10 14 -10.5 28t-10.5 22
q5 5 13 19.5t20 21.5q16 10 41.5 17.5t61.5 12.5t59.5 8t67 6.5t53.5 4.5l-4 -11q55 0 90.5 -28t35.5 -64q0 -70 -36 -115q-22 -3 -36.5 -20t-16.5 -40l-56 -31l-3 9q32 19 31 34q-12 -6 -49.5 -25.5t-56 -30t-47.5 -27.5t-49.5 -34t-35.5 -35q43 -3 101 3t124 16t93 13
q56 -24 100 -24l4 -9h-42l7 -10z" />
    <glyph glyph-name="three" unicode="3" horiz-adv-x="600" 
d="M560 280q0 -66 -14 -113.5t-54 -83.5l-13 6q-20 -17 -43.5 -33t-36 -22.5t-46 -23t-40.5 -20.5l-5 11q-42 -18 -98 -38l-5 17q-20 -2 -23 -26q-103 -33 -194 -45q-5 -1 -8.5 2t-2.5 10q0 4 11 18.5t8 21.5l-30 -13q-20 49 -2 106h12q46 0 72 1t63.5 7.5t63.5 20.5
q5 -14 39 -4q28 8 59 19.5t69.5 28.5t65 39t31.5 43q-12 14 -33.5 19t-65.5 6.5t-66 4.5l-5 -12q-14 7 -33 14.5t-26 11.5t-15.5 14.5t-15.5 29.5l10 44q40 10 89.5 48.5t63.5 69.5q-48 0 -118.5 -21.5t-116.5 -45.5q-4 8 -8 20l69 33q-15 13 -62 -16q-2 -2 -7 -5l-3 -2
q-8 32 -8 76q0 28 56.5 54.5t112.5 26.5q16 0 48 -2l8 -9q19 0 136 -10q29 -35 36 -74q-12 -58 -41 -116q72 -24 116 -88zM337 22l-3 9l-31 -13l6 -11zM169 -34q-8 7 -20 5q-1 0 -23 -5l2 -11z" />
    <glyph glyph-name="four" unicode="4" horiz-adv-x="689" 
d="M684 374q-5 -50 -39.5 -85.5t-60.5 -46.5q-41 -18 -56 -48q-7 -14 -28 -44.5t-30 -45.5q-33 2 -41 -23l22 -10q-1 -2 -3 -7t-3 -7l-21 11l-8 -22l17 -12q-14 -41 -10 -80q-30 -11 -45 0.5t-28 -1.5q-24 42 -61 58q0 32 32 89t37 80q-24 5 -27.5 4.5t-23.5 -3.5t-46 -3
l-5 -18q-45 6 -49 -1q-9 -15 -64 27l-11 -9q-40 21 -68.5 54t-28.5 59q0 29 102 156t176 190q17 -10 45 -3q20 -12 20.5 -39t-11.5 -64l-10 6q-18 -38 -75.5 -126t-74.5 -118q90 0 133 16l-2 -14q50 -3 89 51.5t57 116.5l40 27q32 -43 43 -73.5t5 -67.5q6 -1 12.5 0
t14.5 4.5t14 6.5t15 9l13.5 9t14 10t11.5 9q1 -2 2 -8t1.5 -7t3 -5t4.5 -2.5t6 0.5zM422 29l-10 5l-7 -20l7 -6zM249 179l-22 3l-7 -7l27 -4zM373 313l-24 -8v8l21 11zM586 335l-18 -8l-3 -11q8 -1 12 3t9 16z" />
    <glyph glyph-name="five" unicode="5" horiz-adv-x="584" 
d="M673 537q-45 -27 -112.5 -40.5t-145.5 -19.5t-103 -11q-36 -36 -30 -63l15 -72q4 -20 17 -31t43.5 -22t40.5 -16q39 -59 37 -131q-2 -51 -60 -96t-139 -74q-62 0 -101.5 16.5t-82.5 61.5q0 10 -1 14l36 -18q-3 8 -8 13.5t-16 13t-14 10.5q-1 6 -1 20l27 24l28 -13
q12 -6 17 -22t16 -16q8 0 40.5 14t70.5 48t42 76q-6 17 -14.5 30t-23.5 25t-25 19t-32.5 20t-31.5 19l-30 108l-57 -7q-5 15 -5 29t2 23t11.5 23t14 19t17.5 20l27 6q4 13 17 39t15 31q8 0 18 1.5t12 1.5q15 0 41 -19l348 75q27 -5 49 -30t22 -39q0 -10 -8 -20zM640 559
l-2 11l-53 -19l-6 -11zM322 21v13h-7t-6.5 -1.5t-5.5 -2t-5 -3t-4.5 -3.5t-4.5 -5.5t-5 -6.5t-6.5 -8t-6.5 -9z" />
    <glyph glyph-name="six" unicode="6" horiz-adv-x="585" 
d="M570 642q0 -66 -19 -142l-169 -109q0 -14 -17 -28l-6 10l-30 -24l8 -6q-42 -31 -51 -57q7 -11 19 -13q1 0 59 -5l5 10q106 0 106 -111q8 -10 8 -20t-15 -41t-31 -54l-15 4q-38 -63 -230 -105q-24 17 -24 -8q-34 9 -82.5 55.5t-48.5 83.5h15q4 12 4.5 40.5t7.5 62t27 69.5
l-14 2q68 93 177 205q33 0 22 22q79 79 146.5 130t100.5 51q15 0 47 -22zM47 92h-11l-1 27q12 -10 12 -27zM304 121q-9 6 -20.5 17.5t-19.5 18.5t-25.5 13.5t-42.5 8.5l-57 -97q13 -5 19.5 -6.5t13.5 0.5t11 11q69 6 121 34zM280 293l-7 9q-14 -18 -8 -29zM329 113
q-7 4 -31 -10l8 -5z" />
    <glyph glyph-name="seven" unicode="7" horiz-adv-x="656" 
d="M661 235q-141 -67 -269 -100q-68 -120 -100 -207q-37 -17 -3 -77h-35q-2 2 -13 12.5t-15 14t-13.5 13.5t-14 16l-10.5 14t-9 15q20 13 -16 27q21 58 70 146h-18q-20 0 -43 9l-10 -8l-23 16l3 14q-32 35 -32 82q0 19 25 48t47 29q11 0 36.5 -11t37.5 -12q54 -6 106 -9l3 7
l-22 13q91 140 97 162q-22 7 -62 -2.5t-64 -17t-42 4.5q-7 11 -18 9t-19 -8.5t-18 -14t-15 -8.5q-8 -1 -28.5 -3.5t-26.5 -3.5q-13 -1 -24 -15q-7 7 -32.5 27.5t-38 36.5t-12.5 34q0 14 31 61q90 23 276 32v12l22 1q7 0 13 -9v-1h1l5 -10l21 2v9q29 1 79 1l13 12
q17 -30 23 -56q22 -9 22 -25v-84l-9 -13q0 -14 -0.5 -32t-0.5 -22h-13q-42 -78 -56 -103h28q0 -10 5 -15.5t16 -5.5t19.5 1t23.5 4l20 4v-11l-24 -8l7 -11q4 1 12.5 2.5t12 2.5t8.5 3t7 5t3 7q15 -3 21.5 -2.5t19 4t15.5 3.5v-11zM553 217l-7 12l-9 -3l5 -10zM383 309l-6 5
l-15 -23l9 -6zM275 -56l-10 10q-6 -16 2 -31z" />
    <glyph glyph-name="eight" unicode="8" horiz-adv-x="566" 
d="M542 402q0 -18 -25.5 -41.5t-79.5 -60.5q-24 10 -28 0q-1 -5 7 -15q-9 -7 -28.5 -20.5t-27.5 -19.5l-4 19l-20 -13l10 -16l-11 -7l-10 15q-19 -21 -12 -34q-4 -2 -11.5 -8t-11.5 -9l13 -26t14 -27.5t11.5 -24.5t10.5 -27t5.5 -24t2.5 -26q0 -32 -39.5 -73t-61.5 -41
q-18 0 -93 20q-31 25 -74.5 82t-43.5 90q0 66 133 176q-34 75 -30 138h-11q24 91 71 142.5t136 51.5q94 0 152 -59l25 -75q31 -20 31 -87zM466 336l-5 11l-32 -30l7 -5zM264 76q-6 37 -23 75q-31 -29 -71 -72q3 -11 16.5 -23t28.5 -19zM546 354l-24 -22l-2 11l26 34v-23z
M332 507l-10 7q-22 -22 -17 -33zM393 441q-10 18 -48 56q-88 -69 -96 -144q78 56 144 88z" />
    <glyph glyph-name="nine" unicode="9" horiz-adv-x="552" 
d="M534 460q0 -30 -5.5 -53.5t-17 -50.5t-15.5 -42q-8 4 -11 -0.5t-6 -15.5t-7 -17q-5 -8 -14.5 -14t-11 -9t1.5 -17q-21 -8 -38 -29q-12 1 -24 -11l10 -13q-5 -10 -10 -25l-29 -13q-31 -52 -89 -127q-28 17 -86 -58l4 -11q19 21 35 10q-15 -16 -38 -43l-39 -42
q-29 6 -52.5 32t-36.5 31l-1 53q6 0 11 2.5t2 6.5l-13 8v13q25 14 52 40.5t45 48.5t49 62t45 57q-8 8 -3 14q5 5 13.5 16.5t12.5 16.5l-106 18q-7 17 -20 28t-21 4q-78 72 -79 124q0 15 3 27t13.5 25.5t15.5 19t22.5 21.5t20.5 19q54 18 139.5 30.5t153.5 12.5
q28 -33 68 -33q55 -35 56 -116zM405 473q-55 6 -108 -2.5t-78 -37.5q7 -18 43.5 -48.5t48.5 -47.5q34 49 94 136zM287 71q-14 0 -31 -22l11 -4zM241 -9q-7 -8 -16 -22l-6 17q8 8 22 5zM174 564q-15 -2 -48 -12l4 -7q5 2 14 3.5t14 3t10 4.5t6 8z" />
    <glyph glyph-name="colon" unicode=":" horiz-adv-x="274" 
d="M209 265l-93 -96l-16 8l7 32q-26 55 -23 97q-13 7 -13 22q0 18 20.5 37.5t41.5 19.5q32 0 54 -33t22 -87zM116 5l-5 -15q-13 1 -41.5 -31t-43.5 -40q-21 32 -52 41l8 26l-17 9q9 111 50 111q45 0 101 -101z" />
    <glyph glyph-name="semicolon" unicode=";" horiz-adv-x="274" 
d="M213 285q-18 -11 -44.5 -45.5t-45.5 -46.5q-29 0 -46.5 24t-8.5 49h-16q1 11 10 36.5t29 53.5t43 28q36 0 57.5 -25t21.5 -74zM138 55q0 -60 -45.5 -120t-108.5 -90t-109 -13q15 16 53.5 61t47.5 55l-17 6q11 30 45.5 93t48.5 95q30 -13 57.5 -38.5t27.5 -48.5z" />
    <glyph glyph-name="less" unicode="&#x3c;" horiz-adv-x="625" 
d="M474 392l-27 -28l23 -5q-22 -25 -105.5 -70t-91.5 -66l133 -90l-21 -12l56 -52l-5 -12q-88 7 -143 30.5t-96 54.5t-71 42l28 74q2 3 58 53l22 19q28 24 82.5 64t70.5 53q25 -3 50 -17t37 -38z" />
    <glyph glyph-name="equal" unicode="=" horiz-adv-x="625" 
d="M147 236l-59 56q0 97 221 97q18 0 36.5 -2.5t43 -8t31.5 -6.5l56 -40l-13 -11l41 -25q-43 0 -159.5 -13.5t-149.5 -22.5q-22 -6 -18 -22q126 0 150 9l93 -17l-6 -11l71 -10q17 -21 34 -31q-14 -4 -21.5 -7.5t-6.5 -8.5l52 4q8 -4 27 -6v-1q-63 -21 -158 -31.5
t-148.5 -11.5t-163.5 -1q0 15 -9.5 25.5t-25.5 10.5q0 27 26.5 52.5t55.5 32.5z" />
    <glyph glyph-name="greater" unicode="&#x3e;" horiz-adv-x="625" 
d="M130 102l27 29l-23 5q21 24 105 69t92 66l-133 91l21 11l-56 53l5 11q69 -5 120 -21.5t75.5 -34t56 -39.5t58.5 -32l-28 -73q-7 -8 -58 -54l-22 -19q-29 -25 -85.5 -66t-67.5 -50q-24 3 -49.5 17t-37.5 37z" />
    <glyph glyph-name="question" unicode="?" horiz-adv-x="468" 
d="M513 507q-9 -24 -16 -73q-10 -74 -81.5 -158.5t-188.5 -131.5q0 21 -6.5 30t-23.5 7v36q72 52 127 111.5t71 108.5q0 8 -4 17.5t-4.5 13t5.5 10.5q-14 19 -44 17q-27 -1 -109.5 -22t-108.5 -22v4q-24 19 -34 19q-8 0 -8 -10q0 -1 0.5 -3.5t1.5 -3.5q-45 18 -45 87
q0 16 11 29t30 16q217 31 293 31q17 0 46 -15.5t50 -18.5zM199 36l-14 -113l-49 23q-9 33 -43 63q0 13 -6.5 37t-6.5 33q0 26 10 47.5t26 21.5q22 0 36 -6t23 -23t13 -32.5t11 -50.5z" />
    <glyph glyph-name="at" unicode="@" horiz-adv-x="869" 
d="M558 633h16q20 0 40 -3q9 -13 22.5 -17.5t30 -6t25.5 -4.5q69 -39 112 -116t43 -170q0 -82 -49 -168t-118 -139.5t-126 -53.5q-41 0 -81 42q5 15 -4 31q-63 -74 -90 -74q-31 0 -59.5 49.5t-28.5 85.5q0 41 18.5 93t50.5 91.5t65 39.5q23 0 39.5 -9t23.5 -19t16 -27.5
t15 -24.5l28 19q22 -14 30.5 -36t-2.5 -41q-22 -37 -53 -79q-12 -24 14 -31q6 -2 19 -2q58 0 127 86t69 187q0 93 -46 142.5t-129 49.5q-60 0 -119 -27l-9 11q-10 -23 -58 -46.5t-60 -34.5l14 -6q-5 -5 -18.5 -15t-20.5 -17q-2 9 -8 14q-24 -8 -46.5 -43.5t-21.5 -51.5
q-1 -2 -8 -9t-8 -9l-9 6q-13 -25 -10 -38q-32 -45 -51 -106.5t-19 -112.5q0 -99 57 -181q-6 -5 -4 -17.5t12 -19.5l3 -40q-41 17 -73 48q-18 25 -10 38l-3 4q-22 7 -38.5 53t-18.5 92l-14 7l-10 1q-10 31 -1 58q1 1 23 12l2 14h-22q6 38 20 82l36 8q36 90 39 113l-7 8
q-6 -11 -16.5 -31t-17 -29t-14.5 -12q48 137 155 224q107 57 130 78q18 17 17 32q30 16 67 27l16 -11q57 6 63 18q1 5 0 10l24 3q9 -16 24 -18q14 -3 28 8l-29 3zM452 194l-7 19q-15 -11 -31 -31t-18 -30q6 3 56 42zM45 80l-10 -3l-1 -22h9zM495 626l2 -7l-28 -8l-10 8
q12 3 36 7zM343 572l-1 -11l-30 -20v12zM299 544l2 -11q-17 -14 -49 -28v1q13 11 47 38zM73 241l-9 -23h-9l8 23h10zM39 -23l-8 2l-4 37l9 -3z" />
    <glyph glyph-name="A" unicode="A" 
d="M528 195q-9 -1 -27.5 -4t-26.5 -4q-1 -3 -7.5 -36t-18.5 -45q10 -7 7 -21t-14 -24q6 -9 4.5 -22t-15.5 -32q0 -2 1 -2q6 1 10 5q-2 -38 -20 -91q-16 0 -41.5 13.5t-33.5 10.5q1 16 -2.5 22t-13.5 6l1 14q9 0 10 10q-9 0 -9 10q1 13 9.5 41.5t10.5 40.5q8 0 6 -28
q5 0 11.5 22.5t8.5 41.5l-12 5q-2 -34 -10 -34q-1 0 -3 1q1 7 4 31t5 30l17 -21q0 5 1.5 13.5t0.5 16.5q-38 1 -123 -39t-130 -71l-5 -13l4 -12q-5 -11 -15.5 -34t-18 -38.5t-14.5 -24.5l-63 27q-1 14 -21 35t-14 35h-16q8 53 42.5 117t70 110t91.5 114t79 98q56 74 133 135
q1 1 18.5 2.5t18.5 12.5q34 -11 56 -28l-18 -6q0 -5 2.5 -6.5t6 -0.5t8 2.5l7.5 2.5t5 0q21 -18 24.5 -61t10.5 -54q2 -9 -2 -51.5t-14 -48.5q1 -1 3 -2.5t3 -1.5q-14 -51 -16 -79q0 -2 18 -33t16 -57zM447 481l-3 10q-23 -1 -108 -114l-5 5q5 15 2 18q-14 -15 -16.5 -22.5
t2.5 -23.5q-23 -30 -42 -54q-10 -13 -36 -51.5t-32 -47.5q3 2 27 21t48 29q23 10 92 29q1 12 4.5 23t7.5 21.5t5 14.5l17 -15q5 14 11.5 42t14 63.5t11.5 51.5zM399 293h-11q-3 -8 0 -10t10 -1zM398 299l-1 10l-4 1l-4 -11h9zM363 55l-6 -3l-4 -13h6zM222 129q-7 1 -10 2.5
t-13 -3t-14.5 -6.5t-14.5 -8t-13 -7q-4 -5 -11 -18zM234 135q3 2 16 8t19 10v1q-31 -1 -35 -19zM434 463l-8 -31h-9l8 27zM167 125q29 14 33 24q-4 -1 -10.5 -3t-10.5 -4z" />
    <glyph glyph-name="B" unicode="B" horiz-adv-x="616" 
d="M262 225q-11 0 -29 7t-23 7q-6 0 -11 -3.5t-7 -3.5l10 -8q-11 -19 -19 -19q10 -13 -5 -50q-3 -2 -8.5 -6t-9 -7.5t-5.5 -7.5q15 0 5 -10q-9 -7 -10.5 -12.5t5.5 -20.5l17 21l-1 -31h-7q-4 -10 -4 -18q78 35 90 23q5 12 45 34q6 -8 8.5 -7.5t7 5t8.5 4.5h4h4.5t4.5 0.5
t4.5 2t3 4.5t2.5 7q89 41 129 94q-31 12 -59 13.5t-47.5 -3t-48.5 -10t-54 -5.5zM124 412l51 41q39 109 81 172h18q40 0 60 -47h-14q0 -10 3.5 -19t8.5 -9q16 0 44 16t39 20q35 11 59 11q15 0 30.5 -28.5t25.5 -57.5q-8 -1 -11.5 -5.5t1.5 -12.5q-3 -5 -14 -25.5t-18.5 -30
t-16.5 -8.5q-7 1 -29.5 -17t-27.5 -18q-9 1 -16.5 -3.5t-19 -16t-16.5 -15.5l-7 5q-37 -27 -43 -35l4 -3q112 7 114 7q50 0 119 -51q19 -31 44 -110q-4 -2 -10 -1.5t-10 -0.5q-9 -14 -55 -51t-51 -37q-33 2 -70 -17l4 -15q-17 -16 -40 -20.5t-34 5.5q-3 -3 -11 -24
q-39 -21 -91.5 -44.5t-70 -34t-12.5 -20.5q-9 -8 -21 -8q-11 0 -32 16t-36 18q2 9 0 15t-10 2q5 23 -5 50q52 24 53 25q-10 3 -24 15t-20 14l9 15q-10 8 -17 24l102 273q-20 10 -17 41zM398 260l-20 3l-1 -8q20 -4 21 5zM463 89l-2 9l-16 -5q-1 -9 18 -4zM210 -19l-18 1
l5 -5q2 -1 5 -1t8 5zM377 46q8 0 14 12q-17 2 -29 -8q7 -4 15 -4zM174 179h-11q0 -11 -7 -18l4 -7q14 12 14 25zM242 -4q-8 -3 -25 0q0 -4 4.5 -8.5t12.5 -4.5q10 0 11 9q0 4 -3 4zM150 84q-6 3 -15 -7l7 -4zM195 161l-16 -33q-5 3 -2 8q1 11 18 25zM440 66l-29 -13
q0 16 19 16q6 0 10 -3zM530 160l7 -8l19 16q-3 5 -26 -8zM214 208l-17 -38q-3 1 1 16.5t10 26.5z" />
    <glyph glyph-name="C" unicode="C" horiz-adv-x="534" 
d="M523 477q-73 -18 -125 -55q-13 -9 -25 -20t-24 -22.5t-14 -13.5l-6 10q-4 -6 -13.5 -16t-18 -17.5t-23.5 -20.5t-22 -19q-3 -14 -7 -21q-31 -32 -74 -91.5t-43 -90.5q0 -19 16 -19q20 0 88 15t91 18q19 3 30 -10q-117 -24 -127 -42q15 -8 35 -4.5t32 15.5q146 28 171 31
l16 -4l24 3l11 -7l-52 -8q-28 -4 -18 -19l7 -10q-4 -2 -35 -11.5t-78 -24t-73 -22.5q-9 -3 -12.5 -9.5t0.5 -11.5q-59 -14 -76 -14q-6 0 -15.5 8t-14.5 8q-10 0 -27.5 11.5t-34.5 9.5q-12 11 -33 44.5t-31 51.5q-7 11 -7 34v27q17 15 17 56l10 -6q4 6 3 18t1 18q19 37 42 73
t32 36q6 0 3.5 -7.5t4.5 -7.5q6 0 22 26t21 26h12q-3 6 -5 28h7q18 43 119.5 109.5t132.5 66.5q15 0 51 -19q4 -9 16 -29t17 -36.5t2 -34.5zM387 22v-1q-38 -22 -55 -22q-8 0 -14 3q11 5 37 11.5t32 8.5zM293 -17q-11 0 -19 4l33 11q13 -10 -3 -14q-5 -1 -11 -1zM127 331
q-11 4 -18 -8l10 -6zM174 218l-9 5l-12 -19q-14 -25 -10 -32zM134 158h-10l-7 -14l6 -8zM495 74l-30 -10l-10 12l27 4zM399 112q-31 0 -43 6q88 15 112 17q-7 -23 -69 -23zM212 286l9 -6q21 21 21 29q-11 0 -30 -23zM216 274l-9 6l-6 -10l7 -6zM113 307l-8 9l-14 -23l9 -7z
" />
    <glyph glyph-name="D" unicode="D" horiz-adv-x="665" 
d="M670 377q-43 -66 -63 -85q-13 -13 -27 -11l15 16q-13 4 -22 -5q-7 -7 -42 -35l18 -4q-166 -143 -359 -228l-9 -55q-8 4 -17 4t-20 -2t-18 -2q-27 0 -46 15t-37 47t-20 34q7 18 8 38l25 11q23 12 31 30q11 26 35 113l-4 15q5 17 25.5 56.5t21.5 61.5q1 14 -17 36.5
t-18 34.5t11.5 21t36 19.5t28.5 12.5l10 -7q18 20 34 60.5t31 67t38 26.5q6 0 25.5 -30t24.5 -42q1 -12 0.5 -17t-4.5 -18.5t-5 -20.5q4 0 54.5 4t67.5 -1q-7 -12 5 -12q16 0 21 12q5 -4 27.5 -6.5t32.5 -5.5q26 -8 45.5 -23t29 -27.5t16 -36t7.5 -31.5t4 -30zM612 316
l-13 3l-8 -9l13 -3zM568 446q-59 0 -109 -9t-76.5 -19.5t-56.5 -24.5t-43 -18l-1 -31q-2 -2 -8.5 -6.5t-9.5 -8.5v-1q10 8 12 -9q1 -21 -7 -23q-7 1 -13 6v-1q5 -8 7 -21q0 -11 -11.5 -40t-14.5 -49q12 7 45.5 23.5t66.5 35.5t55 38q2 -2 15 -6l-6 14l9 6q5 -8 10 -8
q15 0 64 57q20 -7 48 30t24 65zM516 238l-9 3l-33 -18q12 -8 21 0zM479 210v1q-19 0 -54 -23q-11 -7 -42 -25.5t-47 -28.5q-2 -12 -11 -17q-11 11 -29 -6q11 0 23 -7q31 19 86 56.5t74 49.5zM237 64v-1l51 25q-3 2 -4 7t2 10v1q-26 -14 -49 -42zM225 68l-31 -17l-2 -10
l28 15z" />
    <glyph glyph-name="E" unicode="E" horiz-adv-x="537" 
d="M570 491q1 -4 -3 -8t-12 -9t-11 -7q-53 -24 -151.5 -43.5t-120.5 -25.5q-27 -44 -42 -68q20 2 78.5 20t73.5 18q21 0 32 -9t27 -37q-6 -17 11 -26l-7 -22q-212 -35 -260 -56q-17 -7 -33 -62.5t-17 -81.5q32 -24 107 -6l6 -10q5 0 10.5 4t5.5 8q7 1 17 -9.5t17 -8.5
q33 9 192 60q7 2 8 -1q2 -4 -10 -10q-3 -2 -11 -6l-68 -25q13 -9 24 -15q5 -2 -2 -4q-67 -23 -168 -48q23 -11 56 -2q41 11 144 47q6 2 6.5 0.5t-1.5 -6.5q-9 -15 -28 -22q-143 -55 -210 -55q-201 0 -196 199q1 26 13 61.5t27 65.5t45.5 89.5t50.5 101.5q-8 42 14 76
q27 -3 63 34t51 37q23 0 85 -19q2 -34 -18 -72q38 -9 87 -9l9 -19q2 0 10.5 3t14.5 3t24.5 -5.5t24.5 -6.5q6 0 2 -4q-13 -12 -27 -18t-21.5 -6.5t-11 -5t-1.5 -14.5q9 4 38 14.5t45 17.5q1 0 4.5 3t4 2.5zM487 494q-1 3 -9 4.5t-12 -0.5l3 -12zM139 193v-11h1q16 22 18 26
q-16 1 -19 -15zM129 108l-8 10q-7 -30 3 -37zM429 114q-19 -22 -57 -20q-23 -17 -43.5 -23t-31.5 7q65 14 129 40q3 1 4 -0.5t-1 -3.5zM255 397l-13 -3l-17 -28l13 3zM219 352q-5 0 -13 -8.5t-10 -16.5l13 2zM147 176l-10 -1l-11 -37l7 -9z" />
    <glyph glyph-name="E" unicode="&#xe001;" horiz-adv-x="537" 
d="M570 491q1 -4 -3 -8t-12 -9t-11 -7q-53 -24 -151.5 -43.5t-120.5 -25.5q-27 -44 -42 -68q20 2 78.5 20t73.5 18q21 0 32 -9t27 -37q-6 -17 11 -26l-7 -22q-212 -35 -260 -56q-17 -7 -33 -62.5t-17 -81.5q32 -24 107 -6l6 -10q5 0 10.5 4t5.5 8q7 1 17 -9.5t17 -8.5
q33 9 192 60q7 2 8 -1q2 -4 -10 -10q-3 -2 -11 -6l-68 -25q13 -9 24 -15q5 -2 -2 -4q-67 -23 -168 -48q23 -11 56 -2q41 11 144 47q6 2 6.5 0.5t-1.5 -6.5q-9 -15 -28 -22q-143 -55 -210 -55q-201 0 -196 199q1 26 13 61.5t27 65.5t45.5 89.5t50.5 101.5q-8 42 14 76
q27 -3 63 34t51 37q23 0 85 -19q2 -34 -18 -72q38 -9 87 -9l9 -19q2 0 10.5 3t14.5 3t24.5 -5.5t24.5 -6.5q6 0 2 -4q-13 -12 -27 -18t-21.5 -6.5t-11 -5t-1.5 -14.5q9 4 38 14.5t45 17.5q1 0 4.5 3t4 2.5zM487 494q-1 3 -9 4.5t-12 -0.5l3 -12zM139 193v-11h1q16 22 18 26
q-16 1 -19 -15zM129 108l-8 10q-7 -30 3 -37zM429 114q-19 -22 -57 -20q-23 -17 -43.5 -23t-31.5 7q65 14 129 40q3 1 4 -0.5t-1 -3.5zM255 397l-13 -3l-17 -28l13 3zM219 352q-5 0 -13 -8.5t-10 -16.5l13 2zM147 176l-10 -1l-11 -37l7 -9z" />
    <glyph glyph-name="F" unicode="F" horiz-adv-x="517" 
d="M519 273l58 9q2 -19 -19 -24l-61 -16q10 -13 61 0l-5 -12q-16 -5 -69.5 -23.5t-89 -28.5t-60.5 -12l-116 -11q-31 -12 -60 -62l6 -9q-20 -38 -61 -126l-8 5q-5 0 -2 -16t3 -18q0 -10 -16 -40l-37 -12q-15 -5 -29 17l-8 -7q-20 20 -10 32q-14 22 -16 38q9 19 25.5 59
t20.5 48q23 48 -16 72l-8 48q25 10 28 34l58 17l-6 10q13 3 17.5 11.5t7.5 26.5t8 30l93 232q25 61 59 80l56 31q55 0 109.5 -54t54.5 -123q0 -41 -21 -70q-8 1 -20 8.5t-16 8.5q0 42 -28 73q-27 -11 -49.5 -41.5t-54 -91t-44.5 -82.5q4 -4 21.5 -3t29.5 -5l-31 -7l9 -7
q16 2 52 7.5t49 7.5q6 1 10 -6q2 -4 -4 -6q-14 -4 -14 -14l79 15l18 -11l28 6q15 2 18 12zM483 226q-8 9 -27 7q-13 -1 -23 -3.5t-19.5 -6.5t-15.5 -6q-3 -1 -2 -6q0 -3 2 -2q49 13 55 8zM53 106q0 6 -13 13l5 -26q8 8 8 13zM386 206q2 3 0 9q-5 -2 -11.5 -2.5t-11 -1.5
t-5.5 -3q-4 -8 0 -9zM149 99l20 34q-6 -1 -18.5 -9.5t-12.5 -15.5q0 -9 11 -9zM114 68l19 48q-14 -6 -22 -24q-6 -12 3 -24zM105 -2q-10 0 -16 -8l-7 -14l7 -7z" />
    <glyph glyph-name="G" unicode="G" horiz-adv-x="590" 
d="M52 269l-8 13q3 2 29 50t71 101t101 81q5 2 8 10.5t9 12.5q47 30 83 40.5t100 10.5q28 -7 41.5 -22.5t24.5 -34.5t28 -29q0 -14 -19 -33q11 -4 20 -17q-2 -9 -9 -11q-25 25 -52 25q-41 0 -100.5 -30.5t-113 -76t-89 -105t-29.5 -109.5q48 -8 114.5 1t89.5 20q19 9 35 35
q40 64 96 121q4 -4 14 -10q-20 -23 -17 -35l25 30q13 -6 16 -8t12 -9t13 -16.5t5 -23.5q9 0 10 -7.5t-2 -17.5t-5 -19.5t1 -13.5q-46 -47 -111 -103q-19 -58 -36 -98l4 -7q8 14 37 89l11 5q-8 -19 -24.5 -64t-31 -79.5t-29.5 -61.5q-4 -8 -2.5 -20t-2.5 -21q-1 -2 -4 -9
t-4.5 -10t-5 -9t-6.5 -8.5t-7.5 -5t-9.5 -2.5h-17v13q-57 -12 -73 44l25 44q-19 -5 -28 -32h-17q5 11 64 141q6 13 13.5 19t10.5 13.5t3 32.5l-18 -6q-12 12 -32.5 7t-39.5 -20q-66 -1 -102.5 17.5t-63.5 70.5h-12q-21 55 7 137zM517 281q-8 16 -15 7l-20 -27q11 2 35 20z
M135 149l2 38q-12 -14 -12 -25q0 -10 10 -13z" />
    <glyph glyph-name="H" unicode="H" horiz-adv-x="650" 
d="M389 -39q7 -16 33 33q7 11 14 27q2 -1 3 -3t1 -5v-5.5t-1.5 -6.5t-3 -7l-4 -8t-3.5 -8t-4 -8t-4 -7q-5 -9 -14 -32.5t-16.5 -37t-14.5 -13.5q-86 51 -86 99q0 70 74 206l-5 9q-14 0 -65 -6t-54 -6q-5 7 -13 7q-19 0 -30 -27q-32 -78 -61 -210q-7 0 -13.5 2.5t-8.5 4t-8 8
t-8 8.5q-2 -2 -5 -2h-5q-2 0 -6 1.5t-5 1.5l5 12q-17 11 -25.5 22.5t-9 26.5t2 27.5t8.5 36t9 41.5q-10 2 -23.5 2.5t-31.5 -0.5t-26 -1q5 9 12 14.5t21.5 11.5t16.5 7l-16 9l58 24q3 8 10.5 19t10.5 17q9 17 21 56.5t21 56.5q6 11 64.5 114.5t76.5 149.5q1 1 2 3.5t3.5 3.5
t8.5 1q24 0 36 -7.5t22.5 -25t19.5 -25.5q0 -7 1 -23.5t1.5 -25.5t-2 -25.5t-7.5 -34.5h-7q-6 -18 -32.5 -62.5t-34.5 -62.5q-31 -15 -31 -47l21 6q31 37 107 37q15 0 48 -11q22 27 44 62.5t34 58t36.5 70t32.5 63.5q7 12 23 12q24 0 36 -27.5t12 -61.5q0 -48 -19 -62
q-5 -51 -36 -68q4 -9 -1.5 -22t-19.5 -34.5t-17 -26.5q-9 3 -20 -4.5t-17 -17.5q-13 -22 -28 -54q-2 -4 4 -5q4 2 7 6l12 25q9 19 23 17q-12 -21 -38 -80t-48 -91l-11 4q-8 4 -17 -10q-1 -3 -8 -14t-12 -19q-4 -11 -4 -16.5t2.5 -18t2.5 -13.5q-2 -4 -8 -11t-9.5 -12.5
t-3.5 -11.5zM447 69l-19 -32q-3 -4 -5 -1l-1 11l15 22q4 6 7 3zM499 191q-9 2 -13 -6l-41 -80q13 1 27 31zM394 4q-10 0 -13 -6l-10 -20l6 -8zM293 79l11 40l11 -4q-3 -12 -8 -21t-8.5 -12t-5.5 -3zM-20 157l-6 -15l-19 -4q0 1 22 21q3 3 4 1q0 -1 -1 -3zM190 177
q-10 0 -20 -27l9 -3z" />
    <glyph glyph-name="I" unicode="I" horiz-adv-x="360" 
d="M385 547q0 -39 -9 -93h-11q-9 -13 -23 -43.5t-30 -54.5t-36 -35l4 -12l-39 -22q-18 -25 -31 -54t-28 -73t-19 -55q-1 -2 -3 -5.5t-3.5 -6.5t-2 -6.5t0.5 -6t5 -3.5q3 -1 11 23q7 17 20.5 55.5t26.5 68t29 47.5q11 3 3 -9l-1 -1q-16 -26 -29 -58t-27.5 -73.5t-24.5 -65.5
q-31 -73 -22 -110q-27 9 -50 22v32q-10 -8 -11 -24q-37 28 -55 75q0 63 32 147t68 147.5t89 148.5t69 115q10 14 30 14q5 0 31 -7v-24q15 -6 25.5 -21.5t10.5 -31.5zM153 60q-5 5 -7.5 5.5t-3 -1.5t-0.5 -4.5v-4.5l-11 -27q-2 -6 3 -7q2 -1 5 4z" />
    <glyph glyph-name="J" unicode="J" horiz-adv-x="551" 
d="M581 509q0 -20 -26 -48t-31 -39q-25 -52 -37 -86q-23 -18 -37 -49.5t-14 -65.5q-8 -7 -17 6q-8 12 -18 2q-12 -10 -6 -32l20 5q3 -7 -7 -31l-22 16l-9 -9l7 -7q-1 -3 -4 -13.5t-4.5 -18t-2.5 -16t1.5 -13.5t9.5 -4q-9 -27 -22 -14q-7 -10 -5.5 -16.5t11.5 -5.5
q-2 -11 -10 -10.5t-17 7.5l-13 -12l8 -4q-7 -20 -1 -38q14 30 24 33q-59 -152 -165 -255q-70 0 -120.5 41t-72 99t-21.5 123q0 111 53 185q46 0 73.5 -37.5t27.5 -106.5l-35 -27q-25 -48 -25 -90q0 -68 46 -68q11 0 22 7.5t23 24t20.5 30t23 40t22.5 39.5q22 50 54.5 157
t70 200t89.5 161q3 3 12.5 16t13.5 17.5t11 12.5t12 11t10 3q15 0 54 -27q23 -48 23 -93zM402 156l-12 -35q-11 4 5 41zM361 133l-16 -24l11 -12q5 10 5 36zM220 -165v7l-14 -10l3 -10zM275 -70l-23 -27l4 -4l-15 -17l11 -2l20 28q11 14 3 22zM275 -57l10 -14l18 26
q-19 2 -28 -12zM199 -148q0 -5 3 -11q26 9 44 32q-2 0 -8.5 -1.5t-9.5 -2t-8.5 -2t-8.5 -2.5t-6 -3t-4.5 -4.5t-1.5 -5.5zM487 371q-15 0 -27 -28l15 -3z" />
    <glyph glyph-name="K" unicode="K" horiz-adv-x="715" 
d="M740 496l-21 -11q4 -4 15 -4v-52q-15 2 -33.5 -10.5t-32 -25.5t-15.5 -13q-7 0 -3 5.5t-3 5.5q-14 0 -38 -32l-15 11q-7 -7 -17 -13t-26.5 -15t-24.5 -13q7 -8 26 1q-5 -16 -19 -16q-7 0 -12 4.5t-8 4.5q-2 0 -45.5 -18.5t-89.5 -39t-49 -21.5q12 -14 31 -31.5
t41.5 -36.5t29.5 -26l-7 -5q4 -2 11.5 -5t13 -5.5t10.5 -6t5 -6.5t-5 -8q15 -12 33.5 -19.5t26.5 -12.5l-12 -10q21 -21 50 -16q12 -8 30.5 -28t38 -32.5t45.5 -12.5q24 0 41 -15q-31 -5 -86 -5q-9 0 -20.5 2.5t-25.5 9t-25 11.5t-29 15.5t-27 15.5t-27.5 16.5t-23.5 14.5
l-2 -11q-23 15 -71.5 49t-89.5 61t-82 51q-21 -31 -44 -76q-11 5 -3 21h-11q-11 -13 -12 -27t14 -21q-29 -66 -48 -142q-31 0 -54 20q0 16 -4 24l-8 -12q-8 11 -4 24q-6 3 -14 3q-3 58 24 105l-9 7q17 43 39.5 92t40 84.5t49 91t45 79.5t49.5 85.5t44 74.5q37 5 57.5 -37.5
t20.5 -76.5q0 -11 -21.5 -46.5t-40 -67.5t-12.5 -39q211 100 227 107l4 -6q17 5 17 23q7 -6 13 -6t8 4.5t-3 9.5h1q16 0 64 25t58 25q25 0 50 -50zM332 256l-4 9l-15 -7q0 -13 19 -2zM722 499l-5 12q-14 -11 -10 -19zM370 285l-31 -14l1 -10q2 1 7 3t8.5 4t7.5 4.5t6 5.5
t1 7zM190 202q-12 1 -20 -13l-21 -34h13zM130 88l-8 6q-4 -6 -7 -18t1 -18zM588 340l-29 -13q0 8 24 21zM663 22q-3 -4 -15 -3.5t-18 5.5l2 8zM608 62q-8 -14 -61 19l6 8zM622 37l-2 -8q-7 0 -13 3.5t-9 7.5t-2 6zM456 323l-49 -22q10 -2 13 -2q28 2 36 24z" />
    <glyph glyph-name="L" unicode="L" horiz-adv-x="612" 
d="M672 237q2 -10 -35 -28.5t-77 -28.5q-28 -19 -47 -17q-14 0 -17 5q-14 -14 5 -19q24 -7 74 13q8 0 9 -4q-65 -31 -75 -31q-22 0 -61 -13q-106 -37 -235 -89q-5 -2 -22 -13.5t-24 -12.5q-24 -4 -50 -4q-11 0 -17 11h-23q-5 5 -14.5 17.5t-17 20.5t-13.5 8h-12
q8 81 63 198.5t112.5 205.5t112.5 159v16q40 0 62.5 -27.5t22.5 -65.5q0 -8 -27 -70t-42 -89q-7 -11 -30.5 -38t-30.5 -37q-5 -7 -12 -27t-11 -26q-3 -6 -15 -18t-17.5 -23.5t-0.5 -24.5q47 14 89 25q22 6 37 6q28 0 39 -19q4 4 25 12.5t25 8.5q7 0 14.5 -2.5t14.5 -2.5
t99 27q2 -4 12 -5v-1q-83 -27 -98 -36l10 -6q10 4 37.5 14.5t52 19.5t39.5 13q23 -8 27 -15q3 1 10 4t11 5t10 4t7.5 2t3.5 -2zM474 136l-16 7q-39 -7 -110 -33t-123 -52l1 -4zM662 256q0 -3 -4 -6t-11 -7.5t-9 -5.5q-8 6 -15 9q4 3 21.5 8t17.5 2zM591 246l-17 -6
q-5 0 -8 5l20 6q9 3 9 -2q-1 -2 -4 -3zM660 193l-60 -28q-9 -4 -14 3v1q48 21 58 24.5t16 -0.5zM376 189l6 -8l22 12q-12 7 -28 -4zM254 307v18q-14 0 -14 -18h14zM208 245l-12 3q-1 -4 -4 -10.5t-4.5 -10t-2.5 -8t0 -7.5t5 -5z" />
    <glyph glyph-name="M" unicode="M" horiz-adv-x="875" 
d="M860 412q0 -24 -8.5 -44.5t-21.5 -16.5q-6 2 -11.5 -1.5t-9.5 -10.5t-7 -14t-5.5 -15t-3.5 -10h-16q0 -3 1.5 -6t4.5 -4.5l5 -2.5t6.5 -2.5t5.5 -1.5q-7 -15 -28 -13l-28 -88l12 6l21 64l6 -16l-14 -50q-9 -32 -24 -32q-6 0 -9 -4.5t-4 -14t-2 -12.5l-7 9l-6 -6
q15 -30 15 -35q0 -10 -6 -26t-19 -42.5t-17 -36.5l-17 15q-2 -2 -8 -4q-3 -1 -10 -1q-27 0 -54.5 35.5t-27.5 64.5q0 18 20 64t54 113.5t44 89.5l-3 8q-7 -4 -36.5 -18t-47.5 -27t-19 -27l-177 -151q-8 10 -15 11.5t-17.5 -2t-17.5 -3.5q-26 0 -51 82q18 58 64 166l-10 20
q-50 -41 -105 -128q-34 -55 -142 -251q-10 4 5 35q-7 2 -13.5 -7t-12.5 -26q-10 -30 1 -56q-8 -6 -16 -6q-28 0 -63 38t-35 57q0 26 130 229q48 77 86.5 126.5t84.5 84.5q57 87 96 87q12 0 22 -3.5t18.5 -12t14.5 -16t13 -22t10.5 -22.5t11 -26t9.5 -24q-9 -48 8 -87
q8 6 46.5 34.5t57.5 39.5q11 6 21 -10q16 12 9 28q108 67 142 67q21 0 64 -33q3 -8 12 -28t13 -29t7.5 -23t3.5 -26zM790 336l-6 8l-11 -31q21 16 17 23zM737 194l31 94h-1q-33 -47 -33 -77q0 -5 2 -17h1zM786 351h11l12 31q-4 0 -7 -1.5t-5 -4.5t-3.5 -6t-3.5 -9t-4 -10z
M723 194q-3 -3 -5 -17q0 -3 0.5 -7t0.5 -5q6 5 8 15.5t-4 13.5zM135 108l-6 4l-11 -19l6 -6zM820 320l-8 -20h-11q8 16 19 20zM143 137l-9 -14l6 -5l3 6q5 9 0 13z" />
    <glyph glyph-name="N" unicode="N" horiz-adv-x="753" 
d="M522 365q81 125 155 197q18 11 52 13q56 2 81 -16l-20 -14l2 -4q17 0 32 10l28 -30q-43 -20 -101.5 -67t-94.5 -96q-3 -5 -8 -1.5t-8 1.5q-1 -13 -5.5 -25t-9.5 -20t-15.5 -23.5t-16.5 -24.5q-2 -4 -4 -16.5t-5 -19.5q0 -3 -8 -9.5t-10 -11.5q-11 -35 -91 -239l-45 21
l-6 -14q-45 12 -58.5 33t-20.5 76q-1 10 0.5 48t-2.5 45q-11 31 -11 56.5t3 50.5t1 44l-5 39q-53 -17 -92 -87l3 -16q-17 -32 -65.5 -141t-74.5 -143h-28q-17 0 -35.5 36t-21.5 37l-6 44q-3 7 -1 20t2 15t4.5 12.5t5.5 13.5q15 36 32 68.5t39 64.5t36.5 53t43 52t38 41.5
t41 42.5t34.5 35q28 -10 72.5 -42t53.5 -57q5 -13 11 -35.5t13 -55t10 -43.5q53 92 113.5 179.5t76.5 93.5l21 3q-18 -17 -34.5 -36.5t-31.5 -40t-25 -34t-23 -33.5t-16 -24q-13 -21 -11 -22zM665 400q1 1 -0.5 3.5t-3.5 3t-3 -0.5q-22 -34 -14 -38zM645 517q3 -6 8 -5
l17 22l-8 4q-8 -7 -17 -21zM779 538l-19 -14l2 -9q2 1 7 4t6.5 4.5t3 5.5t0.5 9zM584 208l-5 -34l-9 6q1 8 1 11.5t1.5 9t4.5 7.5t7 0zM691 436q1 1 0 3.5t-2.5 3.5t-4.5 -2l-20 -26q7 1 9 -5zM289 486l-8 6l-22 -23q3 -5 8.5 -2.5t8 4.5t7.5 8t6 7z" />
    <glyph glyph-name="O" unicode="O" horiz-adv-x="654" 
d="M624 300q0 -27 -13.5 -56.5t-39.5 -50.5q4 -7 -0.5 -14t-12.5 -7l-7 13q-15 -4 -8 -17q-9 0 -19 -6t-10 -14q0 -7 -4 -9.5t-13 -2.5t-12 -1q-8 -8 -32 -40l-11 10q-13 -8 -19 -20.5t-20 -19.5q-9 -5 -29.5 -7.5t-23.5 -3.5q-1 -1 1 -3t4.5 -4t2.5 -4l-18 -6l-28 17
q-7 -5 -10 -20.5t-14 -19.5q-8 -3 -31.5 -11t-39.5 -13q-22 22 -51 0q-51 32 -104 77q-32 25 -32 116q0 69 32 134.5t79.5 112t101 82.5t97.5 53.5t68 17.5q10 0 20 -4t15.5 -7.5t19 -14.5t19.5 -16q0 -50 90 -111q52 -35 52 -130zM365 68q0 10 -15 10q0 -1 -1 -4l-1.5 -4.5
t0.5 -3.5q4 -3 17 2zM519 333l-56 65q-1 4 -2 6t-2 4.5t-2 2l-3 -1.5q-6 -6 -11 -6q-3 0 -6 2t-5 4l-1 2q-40 0 -98 -39t-89 -88q-65 -31 -103 -149q55 5 71 11l180 75q59 23 82 53zM409 97l-5 10q-14 -7 -19.5 -12t-4.5 -13zM192 258l23 28q-10 6 -21.5 -0.5t-13.5 -15.5
q0 -11 12 -12zM189 13l30 -5q-7 11 -18 11q-8 -2 -12 -6zM440 115q-1 1 -3.5 8t-4.5 8l-16 -17l4 -11z" />
    <glyph glyph-name="P" unicode="P" horiz-adv-x="510" 
d="M545 459q0 -31 -16.5 -57t-34.5 -40.5t-62 -45.5q-5 -4 -9 -6.5t-8 -5.5l-8 7q-11 -7 -29 -18t-30 -18t-27.5 -16t-27 -14t-23 -9t-21 -3.5t-15.5 4.5q-5 -8 -14 -28.5t-16.5 -35.5t-9.5 -15t-3 6t-2.5 7.5t-7.5 -6.5q-34 -62 -32 -89q0 -2 11 0q4 1 3 -2l-45 -131
q-7 -24 -9 -46q-9 0 -39 13.5t-39 26.5q-21 31 -21 79q47 144 161 390q-24 18 -38 35q12 15 15 35l-25 6q6 9 27 22v16q32 -2 53.5 15t29.5 38.5t18 39.5t22 18q8 0 22 -4q5 -2 13.5 -5.5t16 -6t15.5 -3.5q20 -51 22 -60q62 -2 98 -8q43 -6 64 -25t21 -60zM454 365l-62 -37
q-4 -3 1.5 -5.5t12.5 2.5q3 2 13 7.5t15.5 9t11.5 8t8 8.5t0 7zM353 297q-8 6 -11 4.5t-10 -5.5t-13 -4h-13q-9 0 -16.5 -8.5t-9.5 -19.5q31 9 73 33zM383 313q-3 5 -16 4t-18 -9q3 0 8 -4t9 -1zM482 377q0 7 -10 1q-11 -6 -12 -10q-1 -3 3 -4q11 -1 17 8q2 3 2 5zM177 127
q8 3 5 -8q-2 -6 -8 -21l-4 -9q-1 0 -6 -2.5t-7 -0.5q2 11 9 25.5t11 15.5z" />
    <glyph glyph-name="Q" unicode="Q" horiz-adv-x="736" 
d="M831 -162q-4 -6 -9 -18t-8 -17l-34 9h-4q-20 36 -49 51l35 -48q-21 6 -37 25.5t-30 45.5t-22 35q-11 12 -29.5 43t-34.5 46v14q-59 62 -106 124q-14 -9 -35.5 -32.5t-28.5 -29.5q-2 3 0.5 12.5t1.5 13.5q-10 -7 -29.5 -33t-41 -46t-43.5 -20q-25 0 -34 -3
q-13 -15 -60 -22.5t-56 -10.5q-2 2 -5 6t-5.5 7t-6.5 6.5t-6 3t-5 -2.5l-5 -7q-26 34 -48 55l-3 -10l-21 11q-26 46 -37 115q28 142 106 252t200 154q18 16 51.5 26t63.5 10q13 0 27.5 -7t22.5 -14t22.5 -21t17.5 -17l12 -71h10q-2 -4 -6 -27t-11 -33q-6 -8 -26.5 -25.5
t-29.5 -25.5q7 -12 30 -66l-13 -14q3 -27 76.5 -131.5t142.5 -166.5q96 -86 100 -146zM474 443h-27q-39 0 -79.5 -27t-81.5 -69t-48 -47q-5 -7 -17 -28t-21 -33.5t-13 -12.5q-13 7 -26 -5l16 -10q-14 -8 -17 -17l-31 -82h58q25 0 95 31.5t84 43.5q16 13 34 35t18 30
q0 7 -28.5 44.5t-28.5 68.5q0 23 32.5 34.5t68.5 9.5zM182 241l31 41q-9 0 -21 -11t-13 -21q0 -7 3 -9zM343 34l41 33v1q-45 -13 -46 -27q-2 -4 5 -7zM185 3l-17 14q-10 -8 11 -25zM260 18q0 -3 3.5 -5t9 -1.5t10.5 3.5q-5 1 -15 9q-8 -1 -8 -6z" />
    <glyph glyph-name="R" unicode="R" horiz-adv-x="621" 
d="M486 353l-11 11q-20 -13 -35.5 -33.5t-42.5 -36.5q-19 27 -74 -24q24 -22 71.5 -71t78 -78t72 -54.5t75.5 -25.5q46 0 119 20q19 -5 35 -25q-35 -9 -56 -17l2 -2q28 -1 27 -6q-27 -22 -85 -42q-8 -3 3 -6q3 -2 6 -1q35 12 112 64q7 -7 10 -13q-43 -40 -106.5 -69.5
t-116.5 -29.5q-76 26 -107 57q-9 9 -108.5 130.5t-134.5 139.5q-19 -26 -44.5 -75.5t-36.5 -79.5q-3 -6 4 -27t4 -31t-11 -19t-23 -22t-21 -19q-15 0 -31 11t-22 26l-15 41q10 9 8 9.5t-9.5 4.5t-7.5 12q0 41 95.5 246.5t166.5 312.5q37 0 50 -17t14.5 -46.5t5.5 -37.5
q69 29 106 29q32 0 57 -7l-7 -16q30 -9 30 9l19 -8q-2 -7 -8 -14q16 -12 19 5q28 -27 28 -56q0 -24 -13 -35q-10 -9 -40.5 -37.5t-51.5 -46.5zM497 545q-20 7 -37 -2l32 -5zM649 -36l-45 -10q-13 4 -15 -3q-1 -6 14 -10q25 4 56 15v1q-3 0 -7 4zM385 287l-27 -13l-6 9
q26 19 33 4zM159 155l-5 8l-29 -53l5 -12z" />
    <glyph glyph-name="S" unicode="S" horiz-adv-x="515" 
d="M468 589l-1 -12q26 -7 39.5 -28.5t11.5 -50.5q7 -6 7 -14q0 -16 -22 -33.5t-50 -23.5q-10 14 -6.5 19.5t8 10.5t0.5 9q-74 0 -123 -17t-116 -65v-15l42 -30q10 -7 53.5 -32.5t61.5 -44.5l11 7q47 -51 44 -95l-6 -80l-17 4q-40 -55 -146 -102q-23 10 -35.5 5.5
t-11.5 -24.5q-72 -27 -109 -27q-21 0 -62 39q-28 6 -38 20t-6 30q-22 30 -22 46q0 27 33 52q5 -4 18 -18t24 -22.5t19 -8.5q40 0 100 22t104 61v10q-8 8 -22 26.5t-23.5 26.5t-17.5 3q-23 30 -33.5 38.5t-23.5 -0.5q-41 35 -46 64q-2 11 -7 31.5t-7.5 35t-2.5 23.5
q3 40 50 78.5t114.5 62t130.5 23.5q50 0 83 -4zM494 421l-9 7l25 17q0 -11 -12 -21q-3 -2 -4 -3zM290 443v1q-73 -22 -74 -42zM200 -17v12l-35 -15l5 -7z" />
    <glyph glyph-name="S" unicode="&#xe002;" horiz-adv-x="515" 
d="M468 589l-1 -12q26 -7 39.5 -28.5t11.5 -50.5q7 -6 7 -14q0 -16 -22 -33.5t-50 -23.5q-10 14 -6.5 19.5t8 10.5t0.5 9q-74 0 -123 -17t-116 -65v-15l42 -30q10 -7 53.5 -32.5t61.5 -44.5l11 7q47 -51 44 -95l-6 -80l-17 4q-40 -55 -146 -102q-23 10 -35.5 5.5
t-11.5 -24.5q-72 -27 -109 -27q-21 0 -62 39q-28 6 -38 20t-6 30q-22 30 -22 46q0 27 33 52q5 -4 18 -18t24 -22.5t19 -8.5q40 0 100 22t104 61v10q-8 8 -22 26.5t-23.5 26.5t-17.5 3q-23 30 -33.5 38.5t-23.5 -0.5q-41 35 -46 64q-2 11 -7 31.5t-7.5 35t-2.5 23.5
q3 40 50 78.5t114.5 62t130.5 23.5q50 0 83 -4zM494 421l-9 7l25 17q0 -11 -12 -21q-3 -2 -4 -3zM290 443v1q-73 -22 -74 -42zM200 -17v12l-35 -15l5 -7z" />
    <glyph glyph-name="T" unicode="T" horiz-adv-x="578" 
d="M407 632l43 -86q144 30 186 36q74 -19 91 -65q-21 -19 1 -56q-6 -4 -16 -7l-2 6q-8 4 -14 4q-7 0 -7 -7q0 -4 2 -8q-3 -1 -92 -9.5t-139 -30.5h-14v11q-12 1 -22 -12q-26 -3 -38 -18t-28 -62q-4 -12 -21 -26l9 -5q-5 -19 -14 -40t-16 -20q-4 0 -5 3.5t-0.5 7.5t0.5 6.5
t-2 2.5q-5 -1 -8 -6.5t-5.5 -17.5t-3.5 -16q6 -16 6 -29q-13 -35 -17 -35t-5.5 5t-1.5 12t-1 10q-6 -12 -23 -54l8 -5q7 13 19 10q-32 -87 -47 -149q-32 -3 -65 5l4 11q-8 3 -12.5 7.5t-7.5 15t-4 15.5t-2.5 22t-1.5 22q-8 10 -8 21q0 18 33.5 107.5t73.5 179.5h-78
q-19 0 -40.5 -5t-38.5 -1q-33 51 -33 97q0 19 14 33q113 -12 193 4q34 7 53 27t25 39t23.5 34.5t48.5 15.5zM328 279l-4 7l-10 -18l6 -7z" />
    <glyph glyph-name="U" unicode="U" horiz-adv-x="655" 
d="M685 473l-14 -50q-22 2 -31 -11q-7 -9 7 -18q3 -2 2.5 -6.5t-5 -8t-10.5 -3.5l-14 7q-6 -11 -10 -19.5t-7.5 -17.5t-3.5 -14.5t5 -5.5l-11 -21q-6 0 -10 -3t-10 -11t-12.5 -18.5t-20 -30t-30.5 -39.5l8 -10q40 51 69 99q9 -11 2 -24q-40 -73 -90.5 -128.5t-95 -84.5
t-91.5 -47.5t-75.5 -23t-51.5 -4.5q-5 0 -8 5q0 5 -7 5q-5 0 -5.5 -1t-0.5 -4q2 -5 -5 -5q-10 0 -19 5t-13.5 10t-12.5 16t-10 13l-11 -5q-58 35 -58 117q0 60 27 119q27 58 88 201t70 163q17 14 31 14q22 -1 61 -103l14 10v-23q-43 -78 -97 -197q-8 13 -1 27q7 2 1 7.5
t-9 0.5q-14 -18 -10 -42.5t1 -31.5q-1 -2 -6 -13t-8 -18q-13 6 -24 -17q7 -3 18 4h1q-5 -11 -21 -48q-7 10 2 29l-6 6q-18 -34 -18 -45t13 -12q-8 -20 -11 -28q59 0 110 18t87 45.5t71 73t57.5 86t51.5 99.5q2 5 13 6.5t15 3.5q9 5 3 10q-6 3 -14 2q29 66 40 109q2 11 16 11
q3 0 22 -15q11 -9 29 -16q6 -13 8 -51q2 -46 25 -48zM254 420l-25 -41q-3 -6 -2 -7l13 -8q8 11 14.5 30t-0.5 26zM226 12q2 0 23 3q-10 18 -32 14q-14 -3 -7 -11q5 -6 16 -6zM511 184l-10 10q-28 -28 -18 -41zM426 94q-11 0 -21 -4t-27 -15.5t-28 -17.5l2 -10q40 19 74 47z
M339 40q-4 9 -19 5q-3 -1 -16.5 -3.5t-18.5 -7.5t-4 -15q27 5 58 21z" />
    <glyph glyph-name="V" unicode="V" horiz-adv-x="585" 
d="M643 497q51 62 76 83q12 8 14 -2q-23 -19 -66.5 -80t-71.5 -79q-18 2 -26 -9t-11.5 -24t-10.5 -13q-5 0 -9.5 -3.5t-7.5 -8t-7 -11.5t-7 -11q-35 -49 -90 -109.5t-131 -139t-111 -116.5l-62 21q-4 7 -18.5 27.5t-21.5 37t-7 34.5q-3 98 20 444q0 7 -4.5 25.5t-4 32.5
t10.5 22q106 -43 113 -189q-8 -14 -0.5 -46t6.5 -43l-11 -2q-8 -49 -21 -91l16 -44q123 112 260 295q20 -1 37.5 17t44.5 15l39 42q6 7 15 6t12 -8q-29 -39 -94 -98q-5 -5 4 -5q3 0 6 1q27 22 65 61t49 54q4 0 18.5 10t24.5 1q-30 -25 -27 -43q24 28 35 25l3 -1
q-31 -35 -56 -76zM178 274h-11q-2 -16 9 -16zM550 410l-33 -19q7 -6 16 -6q15 2 17 25zM180 281q0 2 1.5 9t0 10t-8.5 3l-4 -18zM634 484q-3 -1 -5 -0.5t-3.5 1.5t-1.5 0l-21 -21q-11 -5 -6 -12q3 -5 11 1q17 14 26 31zM690 586q4 7 9 14t12 7q5 0 9 -6q-8 -5 -20 -18
q-2 3 -10 3zM593 408l-8 -17l-9 8q6 16 17 9zM486 343l-15 -22l6 -12q24 25 9 34z" />
    <glyph glyph-name="W" unicode="W" horiz-adv-x="845" 
d="M991 521q-6 -5 -29.5 -28t-40.5 -32.5t-36 -9.5q-28 -26 -90.5 -88.5t-76.5 -75.5l-15 13q4 -14 -0.5 -29t-11.5 -25t-20.5 -27t-19.5 -27q-2 1 -3 2.5t-1 3.5t0.5 4t2.5 5t3 5t3.5 5.5t3.5 5.5q-11 8 -33 -26q-19 -29 -11 -42q-10 -11 -49 -60.5t-67.5 -78t-44.5 -28.5
q-6 0 -12 11t-13.5 27t-16.5 23l-6 -7l-28 41q-4 6 -22.5 49.5t-31.5 57.5q-20 -25 -56.5 -78.5t-62.5 -90.5t-32 -37t-23 19t-21 19q-6 0 -9 -5q-50 58 -55 215q-1 77 0 107t5 110.5t5 107.5l13 10q32 -15 56 -62t34 -90q5 -24 -0.5 -61.5t-13.5 -66t-9.5 -58t11.5 -36.5
l142 194l23 8l53 79q4 6 7.5 21t8 25t12.5 10q16 0 33 -16.5t23 -36.5l25 -86q-16 -22 -44 -77.5t-46 -77.5q11 -1 27.5 -15.5t24.5 -14.5t49.5 50.5t89.5 112t106 115.5t95 59q22 4 45 4q-19 -19 -5 -23l45 35q14 -2 20 -19l42 -7q-9 -18 -29 -32l8 -3q6 0 31 19t38 4z
M901 494l-20 -14l2 -9q2 1 7 4t6.5 4.5t3 5.5t1.5 9zM874 476l-55 -43l2 -10q5 4 15.5 11.5t15 11.5t10.5 9.5t8.5 10.5t3.5 10zM686 280l-9 -13l6 -7q10 14 3 20zM677 251l-5 5l-13 -18l6 -6zM720 311l35 33q-28 15 -36 -33h1zM376 439l-26 -41l11 2q22 28 15 39z" />
    <glyph glyph-name="X" unicode="X" horiz-adv-x="525" 
d="M614 548l-264 -241l12 -4q-37 -27 -54 -48h-17v-29q0 -38 39 -111h9q6 -12 15 -25t21.5 -27t22.5 -24t27 -25t24 -21.5t24 -21t19 -15.5q-15 -7 -37 -5.5t-36 11.5l-42 30q-28 8 -43 -2q-6 5 -14 11t-13.5 10t-12.5 9.5t-9.5 8.5t-6.5 8t-2.5 7.5t2.5 6.5q-63 46 -79 82
l-48 -48q-5 4 -12 3t-12 -6l-73 -71q-18 -2 -65.5 -46.5t-73.5 -44.5q-3 0 -3 2t4 6t9.5 8t6.5 6l1 1q1 1 1 2l44 42l-2 12l-35 -32q1 7 1.5 22t2.5 28.5t6 25.5l33 31q5 17 20 39l14 -7l54 51q33 33 32 52q32 28 48 51q15 2 21 9q0 1 -1 3.5t-1 3.5q-51 179 6 335
q20 15 27 6l-17 -54q6 5 10.5 12.5t11.5 23.5t8 18q31 -4 53 -26t35 -23l11 -21q-27 -55 -29 -114l-6 -15l8 -5q15 15 90 94.5t111 112.5h16v-14q3 1 10 8.5t15.5 12.5t20.5 3l-9 -16q33 -7 55 -23t22 -29q0 -9 -6 -14zM356 274l-18 -19h-14l24 22zM384 -30l-17 -3l-24 17
q15 7 41 -14zM1 21l-17 -14l3 -10q14 7 14 24zM65 163l-10 -10l-7 7q3 2 8.5 7t8.5 8v-12zM49 147l-31 -29l-7 3q9 11 31 33z" />
    <glyph glyph-name="Y" unicode="Y" horiz-adv-x="572" 
d="M388 117l-7 -7l-14 13q-5 -4 -7 -5.5t-5.5 -6.5t-4 -8.5t1.5 -10t7 -13.5q-10 -15 -24 -43q-13 -6 -24 -17l8 -20l-4 -7l-12 16q-24 -32 -32 -83l19 -9q-5 -20 -7 -45q-12 -6 -31 -6q-44 0 -74 26q-1 14 -14 14q-12 15 -10 21q9 46 56.5 145.5t64.5 146.5l-7 6
q-44 0 -83 19q-7 -11 -18 0l-66 65h-12q-29 42 -28 94t18 94.5t49 96.5l14 -6q3 8 6 11q5 5 9 5q8 0 81 -32l16 -28q-4 -27 -26 -70t-25 -73l-15 -12q-10 -58 21 -98q48 -4 86.5 14.5t62.5 52.5l106 149l8 -13l40 58q10 15 25 3q36 29 66 14q-1 -9 3.5 -13.5t17.5 -5.5
q17 -23 23 -59q-14 -36 -47 -73q-7 1 -13 1t-10 -0.5t-8.5 -3.5t-6.5 -4t-5 -6.5t-4 -7t-4.5 -9t-4.5 -9.5l14 -7q-79 -83 -91 -119l-14 13q0 -18 -7 -33t-22 -34.5t-16 -21.5q-3 -5 -4.5 -11t-1.5 -14t-1 -12l-10 7q2 12 -4 17q-10 -17 -10.5 -23t11.5 -23zM280 -90l-11 5
l-3 -17l8 -4zM572 386l-6 12q15 15 26 10q-12 -14 -20 -22zM364 73l10 -9q-6 -12 -19 -7zM306 -36l-14 -40q-10 7 -5 21.5t18 19.5z" />
    <glyph glyph-name="Z" unicode="Z" horiz-adv-x="635" 
d="M724 94l47 1q11 -5 11 -14q-124 -4 -203 -19q-11 -2 -18 -14.5t-12 -16.5q-6 10 -26 5l-2 -12q-44 -5 -73 -10q-36 45 -115 -14q-38 0 -87 7v-14l-174 22q-6 8 -18.5 23.5t-18 23t-12.5 18.5t-10 20.5t-3 19.5q0 32 44.5 73.5t101.5 76t132.5 82.5t116.5 83
q-21 6 -59.5 0.5t-61.5 -8t-47 12.5q-6 -3 -8 -14q-40 -3 -46 -2q-11 1 -35.5 37t-22.5 46q1 3 7.5 11.5t1.5 20.5q121 47 327 47q79 0 129 -15q12 -35 12 -89l12 -11v-15h-15q-7 -25 -29 -45.5t-51 -43.5t-44 -46l-8 11q-18 -17 -88.5 -57.5t-90.5 -53.5l-9 -19
q-27 2 -64 -25v-15l-11 -9l-8 8q-12 -12 -18 -24q66 -4 171 0l8 -10l6 10q13 0 37 2q41 -14 46 -8q2 3 1 10q32 6 63.5 8t71 2t64.5 1q1 -5 -2 -12.5t-9 -9.5q-40 -2 -54 -3q-95 -8 -114 -23l1 -5q212 22 269 22q9 -1 9 -4q-16 -6 -22 -23zM745 135q-26 0 -74 -2
q-15 9 -15 19q33 1 81 -1q13 -1 8 -16zM771 64q2 -1 2.5 -3.5t-2 -4t-5.5 -1.5q-62 0 -188 -16q5 16 91 24t102 1zM779 136h-21q4 13 10 14q9 2 23 -10q1 -1 -0.5 -1.5l-4.5 -1.5t-7 -1zM407 6v-1q-22 -2 -47 -4q19 26 47 5zM420 448l-11 16l-10 -3l13 -20zM841 85l-44 -3
q-7 5 -7 13l29 1q32 -3 32 -8q0 -3 -10 -3z" />
    <glyph glyph-name="bracketleft" unicode="[" horiz-adv-x="467" 
d="M411 -45v-16q-20 -6 -91.5 -31t-124.5 -38.5t-92 -13.5q-25 26 -72 51q-2 8 -12 24t-10 26q0 16 7.5 54t7.5 59l15 10l108 254q21 20 37.5 51t43 98t44.5 106q6 3 18 9.5t18 9.5q2 -10 11 -16l8 26q136 70 224 84q2 -2 11.5 -10t12.5 -11l10 -10t9.5 -11.5t5 -11.5
t2.5 -14q0 -17 -13.5 -36t-27.5 -19q-5 0 -24 3t-39 4t-68 -5t-112 -21q20 -51 12.5 -91.5t-46.5 -119.5l-5.5 -11l-6.5 -13l-6 -12q-2 0 -5.5 1.5t-6.5 1.5t-4 -3l-13 -31q-1 -3 1 -5t3 1q10 18 17 18q-2 -5 -5 -13t-5.5 -13.5t-7.5 -9.5q-4 -1 -5 0.5t-2 4.5t-2 5
q-4 -10 -17 -29.5t-17 -28.5q-2 -4 0.5 -4.5t8 -0.5t7.5 -2q-9 -23 -39 -77q-5 -8 -29 -1q-33 -59 -26 -67q13 -14 -15 -75l-1.5 -3t-1 -3t-1.5 -3q27 -11 74 -14t90.5 -1.5t91.5 -1.5q0 -6 -37 -9q-8 -8 1 -8l48 4q2 0 1.5 2t-1.5 5t1 7q17 -1 42 -5zM155 143l8 -6l18 39
q-2 1 -4.5 0.5t-3.5 -2.5z" />
    <glyph glyph-name="backslash" unicode="\" horiz-adv-x="452" 
d="M423 -146l-14 25l-10 -5q-11 28 -50 104t-51 124q-132 305 -243 480v38q11 11 23 11q16 0 43.5 -9t38.5 -20l18 3q102 -164 128 -287q28 -40 54 -125l-10 -5q20 -33 12 -49q17 -15 27 -36q4 -10 8 -30q-9 3 -16 -2l21 -23q1 -4 4 -31t7 -40q7 -25 10 -36t6.5 -31t2 -33.5
t-8.5 -22.5z" />
    <glyph glyph-name="bracketright" unicode="]" horiz-adv-x="467" 
d="M436 557l-6 -6v-46q-25 -78 -89.5 -199.5t-82.5 -172.5q-12 -30 -28 -83q-11 -7 -17 -24q-3 -11 -23 -66l8 -20q-9 -35 -22 -65q-27 -8 -211 0q3 16 -13 15t-24 -13q-44 3 -100 12l-3 13l36 9l60 -11l3 10q-3 1 -7.5 2t-8.5 1.5t-7.5 1t-5.5 1.5t-1 3q169 40 197 54
q10 5 14 10q12 15 53 15l-18 34q18 18 -5 29q5 12 36 79.5t51 114t48.5 113.5t48.5 122t31 94l-41 6l-10 -11q-11 9 -25 10t-35 -6.5t-32 -12.5t-38 -18q-5 4 -25 16.5t-29 19t-18.5 18.5t-9.5 24q0 6 1.5 11t3 8t5.5 7l5.5 5.5t7 5.5t6.5 5q81 14 262 14q20 -12 33 -36
q17 -3 19 -26zM259 171h1q2 6 7 17.5t7 17.5t4.5 14t1 13t-5.5 7q-21 -42 -15 -69z" />
    <glyph glyph-name="asciicircum" unicode="^" horiz-adv-x="625" 
d="M535 398q-4 -17 -18 -23.5t-17 -11.5q-28 11 -42.5 31t-27 46t-28.5 42q-45 -12 -118.5 -65.5t-85.5 -53.5q-7 0 -16.5 8t-25 23t-25.5 24q12 23 -3 43q34 31 112 75.5t127 66.5l15 -11l17 8q37 -43 128 -181l-13 -10z" />
    <glyph glyph-name="underscore" unicode="_" horiz-adv-x="500" 
d="M-86 -75h500l-28 -100h-500z" />
    <glyph glyph-name="grave" unicode="`" horiz-adv-x="500" 
d="M490 647q-21 -9 -33 -6t-38 21q-1 -3 0.5 -7t7.5 -9t11 -8.5l15 -10.5t16 -11l-12 -7q-67 50 -154 89l-9 -6q-64 31 -129 54q0 29 29 58.5t51 29.5q44 0 121.5 -52t77.5 -85q24 -24 46 -50z" />
    <glyph glyph-name="a" unicode="a" 
d="M528 195q-9 -1 -27.5 -4t-26.5 -4q-1 -3 -7.5 -36t-18.5 -45q10 -7 7 -21t-14 -24q6 -9 4.5 -22t-15.5 -32q0 -2 1 -2q6 1 10 5q-2 -38 -20 -91q-16 0 -41.5 13.5t-33.5 10.5q1 16 -2.5 22t-13.5 6l1 14q9 0 10 10q-9 0 -9 10q1 13 9.5 41.5t10.5 40.5q8 0 6 -28
q5 0 11.5 22.5t8.5 41.5l-12 5q-2 -34 -10 -34q-1 0 -3 1q1 7 4 31t5 30l17 -21q0 5 1.5 13.5t0.5 16.5q-38 1 -123 -39t-130 -71l-5 -13l4 -12q-5 -11 -15.5 -34t-18 -38.5t-14.5 -24.5l-63 27q-1 14 -21 35t-14 35h-16q8 53 42.5 117t70 110t91.5 114t79 98q56 74 133 135
q1 1 18.5 2.5t18.5 12.5q34 -11 56 -28l-18 -6q0 -5 2.5 -6.5t6 -0.5t8 2.5l7.5 2.5t5 0q21 -18 24.5 -61t10.5 -54q2 -9 -2 -51.5t-14 -48.5q1 -1 3 -2.5t3 -1.5q-14 -51 -16 -79q0 -2 18 -33t16 -57zM447 481l-3 10q-23 -1 -108 -114l-5 5q5 15 2 18q-14 -15 -16.5 -22.5
t2.5 -23.5q-23 -30 -42 -54q-10 -13 -36 -51.5t-32 -47.5q3 2 27 21t48 29q23 10 92 29q1 12 4.5 23t7.5 21.5t5 14.5l17 -15q5 14 11.5 42t14 63.5t11.5 51.5zM399 293h-11q-3 -8 0 -10t10 -1zM398 299l-1 10l-4 1l-4 -11h9zM363 55l-6 -3l-4 -13h6zM222 129q-7 1 -10 2.5
t-13 -3t-14.5 -6.5t-14.5 -8t-13 -7q-4 -5 -11 -18zM234 135q3 2 16 8t19 10v1q-31 -1 -35 -19zM434 463l-8 -31h-9l8 27zM167 125q29 14 33 24q-4 -1 -10.5 -3t-10.5 -4z" />
    <glyph glyph-name="b" unicode="b" horiz-adv-x="616" 
d="M262 225q-11 0 -29 7t-23 7q-6 0 -11 -3.5t-7 -3.5l10 -8q-11 -19 -19 -19q10 -13 -5 -50q-3 -2 -8.5 -6t-9 -7.5t-5.5 -7.5q15 0 5 -10q-9 -7 -10.5 -12.5t5.5 -20.5l17 21l-1 -31h-7q-4 -10 -4 -18q78 35 90 23q5 12 45 34q6 -8 8.5 -7.5t7 5t8.5 4.5h4h4.5t4.5 0.5
t4.5 2t3 4.5t2.5 7q89 41 129 94q-31 12 -59 13.5t-47.5 -3t-48.5 -10t-54 -5.5zM124 412l51 41q39 109 81 172h18q40 0 60 -47h-14q0 -10 3.5 -19t8.5 -9q16 0 44 16t39 20q35 11 59 11q15 0 30.5 -28.5t25.5 -57.5q-8 -1 -11.5 -5.5t1.5 -12.5q-3 -5 -14 -25.5t-18.5 -30
t-16.5 -8.5q-7 1 -29.5 -17t-27.5 -18q-9 1 -16.5 -3.5t-19 -16t-16.5 -15.5l-7 5q-37 -27 -43 -35l4 -3q112 7 114 7q50 0 119 -51q19 -31 44 -110q-4 -2 -10 -1.5t-10 -0.5q-9 -14 -55 -51t-51 -37q-33 2 -70 -17l4 -15q-17 -16 -40 -20.5t-34 5.5q-3 -3 -11 -24
q-39 -21 -91.5 -44.5t-70 -34t-12.5 -20.5q-9 -8 -21 -8q-11 0 -32 16t-36 18q2 9 0 15t-10 2q5 23 -5 50q52 24 53 25q-10 3 -24 15t-20 14l9 15q-10 8 -17 24l102 273q-20 10 -17 41zM398 260l-20 3l-1 -8q20 -4 21 5zM463 89l-2 9l-16 -5q-1 -9 18 -4zM210 -19l-18 1
l5 -5q2 -1 5 -1t8 5zM377 46q8 0 14 12q-17 2 -29 -8q7 -4 15 -4zM174 179h-11q0 -11 -7 -18l4 -7q14 12 14 25zM242 -4q-8 -3 -25 0q0 -4 4.5 -8.5t12.5 -4.5q10 0 11 9q0 4 -3 4zM150 84q-6 3 -15 -7l7 -4zM195 161l-16 -33q-5 3 -2 8q1 11 18 25zM440 66l-29 -13
q0 16 19 16q6 0 10 -3zM530 160l7 -8l19 16q-3 5 -26 -8zM214 208l-17 -38q-3 1 1 16.5t10 26.5z" />
    <glyph glyph-name="b" unicode="&#xe003;" horiz-adv-x="616" 
d="M262 225q-11 0 -29 7t-23 7q-6 0 -11 -3.5t-7 -3.5l10 -8q-11 -19 -19 -19q10 -13 -5 -50q-3 -2 -8.5 -6t-9 -7.5t-5.5 -7.5q15 0 5 -10q-9 -7 -10.5 -12.5t5.5 -20.5l17 21l-1 -31h-7q-4 -10 -4 -18q78 35 90 23q5 12 45 34q6 -8 8.5 -7.5t7 5t8.5 4.5h4h4.5t4.5 0.5
t4.5 2t3 4.5t2.5 7q89 41 129 94q-31 12 -59 13.5t-47.5 -3t-48.5 -10t-54 -5.5zM124 412l51 41q39 109 81 172h18q40 0 60 -47h-14q0 -10 3.5 -19t8.5 -9q16 0 44 16t39 20q35 11 59 11q15 0 30.5 -28.5t25.5 -57.5q-8 -1 -11.5 -5.5t1.5 -12.5q-3 -5 -14 -25.5t-18.5 -30
t-16.5 -8.5q-7 1 -29.5 -17t-27.5 -18q-9 1 -16.5 -3.5t-19 -16t-16.5 -15.5l-7 5q-37 -27 -43 -35l4 -3q112 7 114 7q50 0 119 -51q19 -31 44 -110q-4 -2 -10 -1.5t-10 -0.5q-9 -14 -55 -51t-51 -37q-33 2 -70 -17l4 -15q-17 -16 -40 -20.5t-34 5.5q-3 -3 -11 -24
q-39 -21 -91.5 -44.5t-70 -34t-12.5 -20.5q-9 -8 -21 -8q-11 0 -32 16t-36 18q2 9 0 15t-10 2q5 23 -5 50q52 24 53 25q-10 3 -24 15t-20 14l9 15q-10 8 -17 24l102 273q-20 10 -17 41zM398 260l-20 3l-1 -8q20 -4 21 5zM463 89l-2 9l-16 -5q-1 -9 18 -4zM210 -19l-18 1
l5 -5q2 -1 5 -1t8 5zM377 46q8 0 14 12q-17 2 -29 -8q7 -4 15 -4zM174 179h-11q0 -11 -7 -18l4 -7q14 12 14 25zM242 -4q-8 -3 -25 0q0 -4 4.5 -8.5t12.5 -4.5q10 0 11 9q0 4 -3 4zM150 84q-6 3 -15 -7l7 -4zM195 161l-16 -33q-5 3 -2 8q1 11 18 25zM440 66l-29 -13
q0 16 19 16q6 0 10 -3zM530 160l7 -8l19 16q-3 5 -26 -8zM214 208l-17 -38q-3 1 1 16.5t10 26.5z" />
    <glyph glyph-name="c" unicode="c" horiz-adv-x="534" 
d="M523 477q-73 -18 -125 -55q-13 -9 -25 -20t-24 -22.5t-14 -13.5l-6 10q-4 -6 -13.5 -16t-18 -17.5t-23.5 -20.5t-22 -19q-3 -14 -7 -21q-31 -32 -74 -91.5t-43 -90.5q0 -19 16 -19q20 0 88 15t91 18q19 3 30 -10q-117 -24 -127 -42q15 -8 35 -4.5t32 15.5q146 28 171 31
l16 -4l24 3l11 -7l-52 -8q-28 -4 -18 -19l7 -10q-4 -2 -35 -11.5t-78 -24t-73 -22.5q-9 -3 -12.5 -9.5t0.5 -11.5q-59 -14 -76 -14q-6 0 -15.5 8t-14.5 8q-10 0 -27.5 11.5t-34.5 9.5q-12 11 -33 44.5t-31 51.5q-7 11 -7 34v27q17 15 17 56l10 -6q4 6 3 18t1 18q19 37 42 73
t32 36q6 0 3.5 -7.5t4.5 -7.5q6 0 22 26t21 26h12q-3 6 -5 28h7q18 43 119.5 109.5t132.5 66.5q15 0 51 -19q4 -9 16 -29t17 -36.5t2 -34.5zM387 22v-1q-38 -22 -55 -22q-8 0 -14 3q11 5 37 11.5t32 8.5zM293 -17q-11 0 -19 4l33 11q13 -10 -3 -14q-5 -1 -11 -1zM127 331
q-11 4 -18 -8l10 -6zM174 218l-9 5l-12 -19q-14 -25 -10 -32zM134 158h-10l-7 -14l6 -8zM495 74l-30 -10l-10 12l27 4zM399 112q-31 0 -43 6q88 15 112 17q-7 -23 -69 -23zM212 286l9 -6q21 21 21 29q-11 0 -30 -23zM216 274l-9 6l-6 -10l7 -6zM113 307l-8 9l-14 -23l9 -7z
" />
    <glyph glyph-name="d" unicode="d" horiz-adv-x="665" 
d="M670 377q-43 -66 -63 -85q-13 -13 -27 -11l15 16q-13 4 -22 -5q-7 -7 -42 -35l18 -4q-166 -143 -359 -228l-9 -55q-8 4 -17 4t-20 -2t-18 -2q-27 0 -46 15t-37 47t-20 34q7 18 8 38l25 11q23 12 31 30q11 26 35 113l-4 15q5 17 25.5 56.5t21.5 61.5q1 14 -17 36.5
t-18 34.5t11.5 21t36 19.5t28.5 12.5l10 -7q18 20 34 60.5t31 67t38 26.5q6 0 25.5 -30t24.5 -42q1 -12 0.5 -17t-4.5 -18.5t-5 -20.5q4 0 54.5 4t67.5 -1q-7 -12 5 -12q16 0 21 12q5 -4 27.5 -6.5t32.5 -5.5q26 -8 45.5 -23t29 -27.5t16 -36t7.5 -31.5t4 -30zM612 316
l-13 3l-8 -9l13 -3zM568 446q-59 0 -109 -9t-76.5 -19.5t-56.5 -24.5t-43 -18l-1 -31q-2 -2 -8.5 -6.5t-9.5 -8.5v-1q10 8 12 -9q1 -21 -7 -23q-7 1 -13 6v-1q5 -8 7 -21q0 -11 -11.5 -40t-14.5 -49q12 7 45.5 23.5t66.5 35.5t55 38q2 -2 15 -6l-6 14l9 6q5 -8 10 -8
q15 0 64 57q20 -7 48 30t24 65zM516 238l-9 3l-33 -18q12 -8 21 0zM479 210v1q-19 0 -54 -23q-11 -7 -42 -25.5t-47 -28.5q-2 -12 -11 -17q-11 11 -29 -6q11 0 23 -7q31 19 86 56.5t74 49.5zM237 64v-1l51 25q-3 2 -4 7t2 10v1q-26 -14 -49 -42zM225 68l-31 -17l-2 -10
l28 15z" />
    <glyph glyph-name="e" unicode="e" horiz-adv-x="537" 
d="M570 491q1 -4 -3 -8t-12 -9t-11 -7q-53 -24 -151.5 -43.5t-120.5 -25.5q-27 -44 -42 -68q20 2 78.5 20t73.5 18q21 0 32 -9t27 -37q-6 -17 11 -26l-7 -22q-212 -35 -260 -56q-17 -7 -33 -62.5t-17 -81.5q32 -24 107 -6l6 -10q5 0 10.5 4t5.5 8q7 1 17 -9.5t17 -8.5
q33 9 192 60q7 2 8 -1q2 -4 -10 -10q-3 -2 -11 -6l-68 -25q13 -9 24 -15q5 -2 -2 -4q-67 -23 -168 -48q23 -11 56 -2q41 11 144 47q6 2 6.5 0.5t-1.5 -6.5q-9 -15 -28 -22q-143 -55 -210 -55q-201 0 -196 199q1 26 13 61.5t27 65.5t45.5 89.5t50.5 101.5q-8 42 14 76
q27 -3 63 34t51 37q23 0 85 -19q2 -34 -18 -72q38 -9 87 -9l9 -19q2 0 10.5 3t14.5 3t24.5 -5.5t24.5 -6.5q6 0 2 -4q-13 -12 -27 -18t-21.5 -6.5t-11 -5t-1.5 -14.5q9 4 38 14.5t45 17.5q1 0 4.5 3t4 2.5zM487 494q-1 3 -9 4.5t-12 -0.5l3 -12zM139 193v-11h1q16 22 18 26
q-16 1 -19 -15zM129 108l-8 10q-7 -30 3 -37zM429 114q-19 -22 -57 -20q-23 -17 -43.5 -23t-31.5 7q65 14 129 40q3 1 4 -0.5t-1 -3.5zM255 397l-13 -3l-17 -28l13 3zM219 352q-5 0 -13 -8.5t-10 -16.5l13 2zM147 176l-10 -1l-11 -37l7 -9z" />
    <glyph glyph-name="f" unicode="f" horiz-adv-x="517" 
d="M519 273l58 9q2 -19 -19 -24l-61 -16q10 -13 61 0l-5 -12q-16 -5 -69.5 -23.5t-89 -28.5t-60.5 -12l-116 -11q-31 -12 -60 -62l6 -9q-20 -38 -61 -126l-8 5q-5 0 -2 -16t3 -18q0 -10 -16 -40l-37 -12q-15 -5 -29 17l-8 -7q-20 20 -10 32q-14 22 -16 38q9 19 25.5 59
t20.5 48q23 48 -16 72l-8 48q25 10 28 34l58 17l-6 10q13 3 17.5 11.5t7.5 26.5t8 30l93 232q25 61 59 80l56 31q55 0 109.5 -54t54.5 -123q0 -41 -21 -70q-8 1 -20 8.5t-16 8.5q0 42 -28 73q-27 -11 -49.5 -41.5t-54 -91t-44.5 -82.5q4 -4 21.5 -3t29.5 -5l-31 -7l9 -7
q16 2 52 7.5t49 7.5q6 1 10 -6q2 -4 -4 -6q-14 -4 -14 -14l79 15l18 -11l28 6q15 2 18 12zM483 226q-8 9 -27 7q-13 -1 -23 -3.5t-19.5 -6.5t-15.5 -6q-3 -1 -2 -6q0 -3 2 -2q49 13 55 8zM53 106q0 6 -13 13l5 -26q8 8 8 13zM386 206q2 3 0 9q-5 -2 -11.5 -2.5t-11 -1.5
t-5.5 -3q-4 -8 0 -9zM149 99l20 34q-6 -1 -18.5 -9.5t-12.5 -15.5q0 -9 11 -9zM114 68l19 48q-14 -6 -22 -24q-6 -12 3 -24zM105 -2q-10 0 -16 -8l-7 -14l7 -7z" />
    <glyph glyph-name="g" unicode="g" horiz-adv-x="590" 
d="M52 269l-8 13q3 2 29 50t71 101t101 81q5 2 8 10.5t9 12.5q47 30 83 40.5t100 10.5q28 -7 41.5 -22.5t24.5 -34.5t28 -29q0 -14 -19 -33q11 -4 20 -17q-2 -9 -9 -11q-25 25 -52 25q-41 0 -100.5 -30.5t-113 -76t-89 -105t-29.5 -109.5q48 -8 114.5 1t89.5 20q19 9 35 35
q40 64 96 121q4 -4 14 -10q-20 -23 -17 -35l25 30q13 -6 16 -8t12 -9t13 -16.5t5 -23.5q9 0 10 -7.5t-2 -17.5t-5 -19.5t1 -13.5q-46 -47 -111 -103q-19 -58 -36 -98l4 -7q8 14 37 89l11 5q-8 -19 -24.5 -64t-31 -79.5t-29.5 -61.5q-4 -8 -2.5 -20t-2.5 -21q-1 -2 -4 -9
t-4.5 -10t-5 -9t-6.5 -8.5t-7.5 -5t-9.5 -2.5h-17v13q-57 -12 -73 44l25 44q-19 -5 -28 -32h-17q5 11 64 141q6 13 13.5 19t10.5 13.5t3 32.5l-18 -6q-12 12 -32.5 7t-39.5 -20q-66 -1 -102.5 17.5t-63.5 70.5h-12q-21 55 7 137zM517 281q-8 16 -15 7l-20 -27q11 2 35 20z
M135 149l2 38q-12 -14 -12 -25q0 -10 10 -13z" />
    <glyph glyph-name="h" unicode="h" horiz-adv-x="650" 
d="M389 -39q7 -16 33 33q7 11 14 27q2 -1 3 -3t1 -5v-5.5t-1.5 -6.5t-3 -7l-4 -8t-3.5 -8t-4 -8t-4 -7q-5 -9 -14 -32.5t-16.5 -37t-14.5 -13.5q-86 51 -86 99q0 70 74 206l-5 9q-14 0 -65 -6t-54 -6q-5 7 -13 7q-19 0 -30 -27q-32 -78 -61 -210q-7 0 -13.5 2.5t-8.5 4t-8 8
t-8 8.5q-1 -1 -2 -1q-1 -1 -3 -1h-5q-2 0 -6 1.5t-5 1.5l5 12q-17 11 -25.5 22.5t-9 26.5t2 27.5t8.5 36t9 41.5q-10 2 -23.5 2.5t-31.5 -0.5t-26 -1q5 9 12 14.5t21.5 11.5t16.5 7l-16 9l58 24q3 8 10.5 19t10.5 17q9 17 21 56.5t21 56.5q6 11 64.5 114.5t76.5 149.5
q1 1 2 3.5t3.5 3.5t8.5 1q24 0 36 -7.5t22.5 -25t19.5 -25.5q0 -7 1 -23.5t1.5 -25.5t-2 -25.5t-7.5 -34.5h-7q-6 -18 -32.5 -62.5t-34.5 -62.5q-31 -15 -31 -47l21 6q31 37 107 37q15 0 48 -11q22 27 44 62.5t34 58t36.5 70t32.5 63.5q7 12 23 12q24 0 36 -27.5t12 -61.5
q0 -48 -19 -62q-5 -51 -36 -68q4 -9 -1.5 -22t-19.5 -34.5t-17 -26.5q-9 3 -20 -4.5t-17 -17.5q-13 -22 -28 -54q-2 -4 4 -5q4 2 7 6l12 25q9 19 23 17q-12 -21 -38 -80t-48 -91l-11 4q-8 4 -17 -10q-1 -3 -8 -14t-12 -19q-4 -11 -4 -16.5t2.5 -18t2.5 -13.5q-2 -4 -8 -11
t-9.5 -12.5t-3.5 -11.5zM447 69l-19 -32q-3 -4 -5 -1l-1 11l15 22q4 6 7 3zM499 191q-9 2 -13 -6l-41 -80q13 1 27 31zM394 4q-10 0 -13 -6l-10 -20l6 -8zM293 79l11 40l11 -4q-3 -12 -8 -21t-8.5 -12t-5.5 -3zM-20 157l-6 -15l-19 -4q0 1 22 21q3 3 4 1q0 -1 -1 -3z
M190 177q-10 0 -20 -27l9 -3z" />
    <glyph glyph-name="i" unicode="i" horiz-adv-x="360" 
d="M385 547q0 -39 -9 -93h-11q-9 -13 -23 -43.5t-30 -54.5t-36 -35l4 -12l-39 -22q-18 -25 -31 -54t-28 -73t-19 -55q-1 -2 -3 -5.5t-3.5 -6.5t-2 -6.5t0.5 -6t5 -3.5q3 -1 11 23q7 17 20.5 55.5t26.5 68t29 47.5q11 3 3 -9l-1 -1q-16 -26 -29 -58t-27.5 -73.5t-24.5 -65.5
q-31 -73 -22 -110q-27 9 -50 22v32q-10 -8 -11 -24q-37 28 -55 75q0 63 32 147t68 147.5t89 148.5t69 115q10 14 30 14q5 0 31 -7v-24q15 -6 25.5 -21.5t10.5 -31.5zM153 60q-5 5 -7.5 5.5t-3 -1.5t-0.5 -4.5v-4.5l-11 -27q-2 -6 3 -7q2 -1 5 4z" />
    <glyph glyph-name="j" unicode="j" horiz-adv-x="551" 
d="M581 509q0 -20 -26 -48t-31 -39q-25 -52 -37 -86q-23 -18 -37 -49.5t-14 -65.5q-8 -7 -17 6q-8 12 -18 2q-12 -10 -6 -32l20 5q3 -7 -7 -31l-22 16l-9 -9l7 -7q-1 -3 -4 -13.5t-4.5 -18t-2.5 -16t1.5 -13.5t9.5 -4q-9 -27 -22 -14q-7 -10 -5.5 -16.5t11.5 -5.5
q-2 -11 -10 -10.5t-17 7.5l-13 -12l8 -4q-7 -20 -1 -38q14 30 24 33q-59 -152 -165 -255q-70 0 -120.5 41t-72 99t-21.5 123q0 111 53 185q46 0 73.5 -37.5t27.5 -106.5l-35 -27q-25 -48 -25 -90q0 -68 46 -68q11 0 22 7.5t23 24t20.5 30t23 40t22.5 39.5q22 50 54.5 157
t70 200t89.5 161q3 3 12.5 16t13.5 17.5t11 12.5t12 11t10 3q15 0 54 -27q23 -48 23 -93zM402 156l-12 -35q-11 4 5 41zM361 133l-16 -24l11 -12q5 10 5 36zM220 -165v7l-14 -10l3 -10zM275 -70l-23 -27l4 -4l-15 -17l11 -2l20 28q11 14 3 22zM275 -57l10 -14l18 26
q-19 2 -28 -12zM199 -148q0 -5 3 -11q26 9 44 32q-2 0 -8.5 -1.5t-9.5 -2t-8.5 -2t-8.5 -2.5t-6 -3t-4.5 -4.5t-1.5 -5.5zM487 371q-15 0 -27 -28l15 -3z" />
    <glyph glyph-name="k" unicode="k" horiz-adv-x="715" 
d="M740 496l-21 -11q4 -4 15 -4v-52q-15 2 -33.5 -10.5t-32 -25.5t-15.5 -13q-7 0 -3 5.5t-3 5.5q-14 0 -38 -32l-15 11q-7 -7 -17 -13t-26.5 -15t-24.5 -13q7 -8 26 1q-5 -16 -19 -16q-7 0 -12 4.5t-8 4.5q-2 0 -45.5 -18.5t-89.5 -39t-49 -21.5q12 -14 31 -31.5
t41.5 -36.5t29.5 -26l-7 -5q4 -2 11.5 -5t13 -5.5t10.5 -6t5 -6.5t-5 -8q15 -12 33.5 -19.5t26.5 -12.5l-12 -10q21 -21 50 -16q12 -8 30.5 -28t38 -32.5t45.5 -12.5q24 0 41 -15q-31 -5 -86 -5q-9 0 -20.5 2.5t-25.5 9t-25 11.5t-29 15.5t-27 15.5t-27.5 16.5t-23.5 14.5
l-2 -11q-23 15 -71.5 49t-89.5 61t-82 51q-21 -31 -44 -76q-11 5 -3 21h-11q-11 -13 -12 -27t14 -21q-29 -66 -48 -142q-31 0 -54 20q0 16 -4 24l-8 -12q-8 11 -4 24q-6 3 -14 3q-3 58 24 105l-9 7q17 43 39.5 92t40 84.5t49 91t45 79.5t49.5 85.5t44 74.5q37 5 57.5 -37.5
t20.5 -76.5q0 -11 -21.5 -46.5t-40 -67.5t-12.5 -39q211 100 227 107l4 -6q17 5 17 23q7 -6 13 -6t8 4.5t-3 9.5h1q16 0 64 25t58 25q25 0 50 -50zM332 256l-4 9l-15 -7q0 -13 19 -2zM722 499l-5 12q-14 -11 -10 -19zM370 285l-31 -14l1 -10q2 1 7 3t8.5 4t7.5 4.5t6 5.5
t1 7zM190 202q-12 1 -20 -13l-21 -34h13zM130 88l-8 6q-4 -6 -7 -18t1 -18zM588 340l-29 -13q0 8 24 21zM663 22q-3 -4 -15 -3.5t-18 5.5l2 8zM608 62q-8 -14 -61 19l6 8zM622 37l-2 -8q-7 0 -13 3.5t-9 7.5t-2 6zM456 323l-49 -22q10 -2 13 -2q28 2 36 24z" />
    <glyph glyph-name="l" unicode="l" horiz-adv-x="612" 
d="M672 237q2 -10 -35 -28.5t-77 -28.5q-28 -19 -47 -17q-14 0 -17 5q-14 -14 5 -19q24 -7 74 13q8 0 9 -4q-65 -31 -75 -31q-22 0 -61 -13q-106 -37 -235 -89q-5 -2 -22 -13.5t-24 -12.5q-24 -4 -50 -4q-11 0 -17 11h-23q-5 5 -14.5 17.5t-17 20.5t-13.5 8h-12
q8 81 63 198.5t112.5 205.5t112.5 159v16q40 0 62.5 -27.5t22.5 -65.5q0 -8 -27 -70t-42 -89q-7 -11 -30.5 -38t-30.5 -37q-5 -7 -12 -27t-11 -26q-3 -6 -15 -18t-17.5 -23.5t-0.5 -24.5q47 14 89 25q22 6 37 6q28 0 39 -19q4 4 25 12.5t25 8.5q7 0 14.5 -2.5t14.5 -2.5
t99 27q2 -4 12 -5v-1q-83 -27 -98 -36l10 -6q10 4 37.5 14.5t52 19.5t39.5 13q23 -8 27 -15q3 1 10 4t11 5t10 4t7.5 2t3.5 -2zM474 136l-16 7q-39 -7 -110 -33t-123 -52l1 -4zM662 256q0 -3 -4 -6t-11 -7.5t-9 -5.5q-8 6 -15 9q4 3 21.5 8t17.5 2zM591 246l-17 -6
q-5 0 -8 5l20 6q9 3 9 -2q-1 -2 -4 -3zM660 193l-60 -28q-9 -4 -14 3v1q48 21 58 24.5t16 -0.5zM376 189l6 -8l22 12q-12 7 -28 -4zM254 307v18q-14 0 -14 -18h14zM208 245l-12 3q-1 -4 -4 -10.5t-4.5 -10t-2.5 -8t0 -7.5t5 -5z" />
    <glyph glyph-name="m" unicode="m" horiz-adv-x="875" 
d="M860 412q0 -24 -8.5 -44.5t-21.5 -16.5q-6 2 -11.5 -1.5t-9.5 -10.5t-7 -14t-5.5 -15t-3.5 -10h-16q0 -3 1.5 -6t4.5 -4.5l5 -2.5t6.5 -2.5t5.5 -1.5q-7 -15 -28 -13l-28 -88l12 6l21 64l6 -16l-14 -50q-9 -32 -24 -32q-6 0 -9 -4.5t-4 -14t-2 -12.5l-7 9l-6 -6
q15 -30 15 -35q0 -10 -6 -26t-19 -42.5t-17 -36.5l-17 15q-2 -2 -8 -4q-3 -1 -10 -1q-27 0 -54.5 35.5t-27.5 64.5q0 18 20 64t54 113.5t44 89.5l-3 8q-7 -4 -36.5 -18t-47.5 -27t-19 -27l-177 -151q-8 10 -15 11.5t-17.5 -2t-17.5 -3.5q-26 0 -51 82q18 58 64 166l-10 20
q-50 -41 -105 -128q-34 -55 -142 -251q-10 4 5 35q-7 2 -13.5 -7t-12.5 -26q-10 -30 1 -56q-8 -6 -16 -6q-28 0 -63 38t-35 57q0 26 130 229q48 77 86.5 126.5t84.5 84.5q57 87 96 87q12 0 22 -3.5t18.5 -12t14.5 -16t13 -22t10.5 -22.5t11 -26t9.5 -24q-9 -48 8 -87
q8 6 46.5 34.5t57.5 39.5q11 6 21 -10q16 12 9 28q108 67 142 67q21 0 64 -33q3 -8 12 -28t13 -29t7.5 -23t3.5 -26zM790 336l-6 8l-11 -31q21 16 17 23zM737 194l31 94h-1q-33 -47 -33 -77q0 -5 2 -17h1zM786 351h11l12 31q-4 0 -7 -1.5t-5 -4.5t-3.5 -6t-3.5 -9t-4 -10z
M723 194q-3 -3 -5 -17q0 -3 0.5 -7t0.5 -5q6 5 8 15.5t-4 13.5zM135 108l-6 4l-11 -19l6 -6zM820 320l-8 -20h-11q8 16 19 20zM143 137l-9 -14l6 -5l3 6q5 9 0 13z" />
    <glyph glyph-name="n" unicode="n" horiz-adv-x="753" 
d="M522 365q81 125 155 197q18 11 52 13q56 2 81 -16l-20 -14l2 -4q17 0 32 10l28 -30q-43 -20 -101.5 -67t-94.5 -96q-3 -5 -8 -1.5t-8 1.5q-1 -13 -5.5 -25t-9.5 -20t-15.5 -23.5t-16.5 -24.5q-2 -4 -4 -16.5t-5 -19.5q0 -3 -8 -9.5t-10 -11.5q-11 -35 -91 -239l-45 21
l-6 -14q-45 12 -58.5 33t-20.5 76q-1 10 0.5 48t-2.5 45q-11 31 -11 56.5t3 50.5t1 44l-5 39q-53 -17 -92 -87l3 -16q-17 -32 -65.5 -141t-74.5 -143h-28q-17 0 -35.5 36t-21.5 37l-6 44q-3 7 -1 20t2 15t4.5 12.5t5.5 13.5q15 36 32 68.5t39 64.5t36.5 53t43 52t38 41.5
t41 42.5t34.5 35q28 -10 72.5 -42t53.5 -57q5 -13 11 -35.5t13 -55t10 -43.5q53 92 113.5 179.5t76.5 93.5l21 3q-18 -17 -34.5 -36.5t-31.5 -40t-25 -34t-23 -33.5t-16 -24q-13 -21 -11 -22zM665 400q1 1 -0.5 3.5t-3.5 3t-3 -0.5q-22 -34 -14 -38zM645 517q3 -6 8 -5
l17 22l-8 4q-8 -7 -17 -21zM779 538l-19 -14l2 -9q2 1 7 4t6.5 4.5t3 5.5t0.5 9zM584 208l-5 -34l-9 6q1 8 1 11.5t1.5 9t4.5 7.5t7 0zM691 436q1 1 0 3.5t-2.5 3.5t-4.5 -2l-20 -26q7 1 9 -5zM289 486l-8 6l-22 -23q3 -5 8.5 -2.5t8 4.5t7.5 8t6 7z" />
    <glyph glyph-name="o" unicode="o" horiz-adv-x="654" 
d="M624 300q0 -27 -13.5 -56.5t-39.5 -50.5q4 -7 -0.5 -14t-12.5 -7l-7 13q-15 -4 -8 -17q-9 0 -19 -6t-10 -14q0 -7 -4 -9.5t-13 -2.5t-12 -1q-8 -8 -32 -40l-11 10q-13 -8 -19 -20.5t-20 -19.5q-9 -5 -29.5 -7.5t-23.5 -3.5q-1 -1 1 -3t4.5 -4t2.5 -4l-18 -6l-28 17
q-7 -5 -10 -20.5t-14 -19.5q-8 -3 -31.5 -11t-39.5 -13q-22 22 -51 0q-51 32 -104 77q-32 25 -32 116q0 69 32 134.5t79.5 112t101 82.5t97.5 53.5t68 17.5q10 0 20 -4t15.5 -7.5t19 -14.5t19.5 -16q0 -50 90 -111q52 -35 52 -130zM365 68q0 10 -15 10q0 -1 -1 -4l-1.5 -4.5
t0.5 -3.5q4 -3 17 2zM519 333l-56 65q-1 4 -2 6t-2 4.5t-2 2l-3 -1.5q-6 -6 -11 -6q-3 0 -6 2t-5 4l-1 2q-40 0 -98 -39t-89 -88q-65 -31 -103 -149q55 5 71 11l180 75q59 23 82 53zM409 97l-5 10q-14 -7 -19.5 -12t-4.5 -13zM192 258l23 28q-10 6 -21.5 -0.5t-13.5 -15.5
q0 -11 12 -12zM189 13l30 -5q-7 11 -18 11q-8 -2 -12 -6zM440 115q-1 1 -3.5 8t-4.5 8l-16 -17l4 -11z" />
    <glyph glyph-name="p" unicode="p" horiz-adv-x="510" 
d="M545 459q0 -31 -16.5 -57t-34.5 -40.5t-62 -45.5q-5 -4 -9 -6.5t-8 -5.5l-8 7q-11 -7 -29 -18t-30 -18t-27.5 -16t-27 -14t-23 -9t-21 -3.5t-15.5 4.5q-5 -8 -14 -28.5t-16.5 -35.5t-9.5 -15t-3 6t-2.5 7.5t-7.5 -6.5q-34 -62 -32 -89q0 -2 11 0q4 1 3 -2l-45 -131
q-7 -24 -9 -46q-9 0 -39 13.5t-39 26.5q-21 31 -21 79q47 144 161 390q-24 18 -38 35q12 15 15 35l-25 6q6 9 27 22v16q32 -2 53.5 15t29.5 38.5t18 39.5t22 18q8 0 22 -4q5 -2 13.5 -5.5t16 -6t15.5 -3.5q20 -51 22 -60q62 -2 98 -8q43 -6 64 -25t21 -60zM454 365l-62 -37
q-4 -3 1.5 -5.5t12.5 2.5q3 2 13 7.5t15.5 9t11.5 8t8 8.5t0 7zM353 297q-8 6 -11 4.5t-10 -5.5t-13 -4h-13q-9 0 -16.5 -8.5t-9.5 -19.5q31 9 73 33zM383 313q-3 5 -16 4t-18 -9q3 0 8 -4t9 -1zM482 377q0 7 -10 1q-11 -6 -12 -10q-1 -3 3 -4q11 -1 17 8q2 3 2 5zM177 127
q8 3 5 -8q-2 -6 -8 -21l-4 -9q-1 0 -6 -2.5t-7 -0.5q2 11 9 25.5t11 15.5z" />
    <glyph glyph-name="q" unicode="q" horiz-adv-x="736" 
d="M831 -162q-4 -6 -9 -18t-8 -17l-34 9h-4q-20 36 -49 51l35 -48q-21 6 -37 25.5t-30 45.5t-22 35q-11 12 -29.5 43t-34.5 46v14q-59 62 -106 124q-14 -9 -35.5 -32.5t-28.5 -29.5q-2 3 0.5 12.5t1.5 13.5q-10 -7 -29.5 -33t-41 -46t-43.5 -20q-25 0 -34 -3
q-13 -15 -60 -22.5t-56 -10.5q-2 2 -5 6t-5.5 7t-6.5 6.5t-6 3t-5 -2.5l-5 -7q-26 34 -48 55l-3 -10l-21 11q-26 46 -37 115q28 142 106 252t200 154q18 16 51.5 26t63.5 10q13 0 27.5 -7t22.5 -14t22.5 -21t17.5 -17l12 -71h10q-2 -4 -6 -27t-11 -33q-6 -8 -26.5 -25.5
t-29.5 -25.5q7 -12 30 -66l-13 -14q3 -27 76.5 -131.5t142.5 -166.5q96 -86 100 -146zM474 443h-27q-39 0 -79.5 -27t-81.5 -69t-48 -47q-5 -7 -17 -28t-21 -33.5t-13 -12.5q-13 7 -26 -5l16 -10q-14 -8 -17 -17l-31 -82h58q25 0 95 31.5t84 43.5q16 13 34 35t18 30
q0 7 -28.5 44.5t-28.5 68.5q0 23 32.5 34.5t68.5 9.5zM182 241l31 41q-9 0 -21 -11t-13 -21q0 -7 3 -9zM343 34l41 33v1q-45 -13 -46 -27q-2 -4 5 -7zM185 3l-17 14q-10 -8 11 -25zM260 18q0 -3 3.5 -5t9 -1.5t10.5 3.5q-5 1 -15 9q-8 -1 -8 -6z" />
    <glyph glyph-name="r" unicode="r" horiz-adv-x="621" 
d="M486 353l-11 11q-20 -13 -35.5 -33.5t-42.5 -36.5q-19 27 -74 -24q24 -22 71.5 -71t78 -78t72 -54.5t75.5 -25.5q46 0 119 20q19 -5 35 -25q-35 -9 -56 -17l2 -2q28 -1 27 -6q-27 -22 -85 -42q-8 -3 3 -6q3 -2 6 -1q35 12 112 64q7 -7 10 -13q-43 -40 -106.5 -69.5
t-116.5 -29.5q-76 26 -107 57q-9 9 -108.5 130.5t-134.5 139.5q-19 -26 -44.5 -75.5t-36.5 -79.5q-3 -6 4 -27t4 -31t-11 -19t-23 -22t-21 -19q-15 0 -31 11t-22 26l-15 41q10 9 8 9.5t-9.5 4.5t-7.5 12q0 41 95.5 246.5t166.5 312.5q37 0 50 -17t14.5 -46.5t5.5 -37.5
q69 29 106 29q32 0 57 -7l-7 -16q30 -9 30 9l19 -8q-2 -7 -8 -14q16 -12 19 5q28 -27 28 -56q0 -24 -13 -35q-10 -9 -40.5 -37.5t-51.5 -46.5zM497 545q-20 7 -37 -2l32 -5zM649 -36l-45 -10q-13 4 -15 -3q-1 -6 14 -10q25 4 56 15v1q-3 0 -7 4zM385 287l-27 -13l-6 9
q26 19 33 4zM159 155l-5 8l-29 -53l5 -12z" />
    <glyph glyph-name="s" unicode="s" horiz-adv-x="515" 
d="M468 589l-1 -12q26 -7 39.5 -28.5t11.5 -50.5q7 -6 7 -14q0 -16 -22 -33.5t-50 -23.5q-10 14 -6.5 19.5t8 10.5t0.5 9q-74 0 -123 -17t-116 -65v-15l42 -30q10 -7 53.5 -32.5t61.5 -44.5l11 7q47 -51 44 -95l-6 -80l-17 4q-40 -55 -146 -102q-23 10 -35.5 5.5
t-11.5 -24.5q-72 -27 -109 -27q-21 0 -62 39q-28 6 -38 20t-6 30q-22 30 -22 46q0 27 33 52q5 -4 18 -18t24 -22.5t19 -8.5q40 0 100 22t104 61v10q-8 8 -22 26.5t-23.5 26.5t-17.5 3q-23 30 -33.5 38.5t-23.5 -0.5q-41 35 -46 64q-2 11 -7 31.5t-7.5 35t-2.5 23.5
q3 40 50 78.5t114.5 62t130.5 23.5q50 0 83 -4zM494 421l-9 7l25 17q0 -11 -12 -21q-3 -2 -4 -3zM290 443v1q-73 -22 -74 -42zM200 -17v12l-35 -15l5 -7z" />
    <glyph glyph-name="s" unicode="&#xe004;" horiz-adv-x="515" 
d="M468 589l-1 -12q26 -7 39.5 -28.5t11.5 -50.5q7 -6 7 -14q0 -16 -22 -33.5t-50 -23.5q-10 14 -6.5 19.5t8 10.5t0.5 9q-74 0 -123 -17t-116 -65v-15l42 -30q10 -7 53.5 -32.5t61.5 -44.5l11 7q47 -51 44 -95l-6 -80l-17 4q-40 -55 -146 -102q-23 10 -35.5 5.5
t-11.5 -24.5q-72 -27 -109 -27q-21 0 -62 39q-28 6 -38 20t-6 30q-22 30 -22 46q0 27 33 52q5 -4 18 -18t24 -22.5t19 -8.5q40 0 100 22t104 61v10q-8 8 -22 26.5t-23.5 26.5t-17.5 3q-23 30 -33.5 38.5t-23.5 -0.5q-41 35 -46 64q-2 11 -7 31.5t-7.5 35t-2.5 23.5
q3 40 50 78.5t114.5 62t130.5 23.5q50 0 83 -4zM494 421l-9 7l25 17q0 -11 -12 -21q-3 -2 -4 -3zM290 443v1q-73 -22 -74 -42zM200 -17v12l-35 -15l5 -7z" />
    <glyph glyph-name="t" unicode="t" horiz-adv-x="578" 
d="M407 632l43 -86q144 30 186 36q74 -19 91 -65q-21 -19 1 -56q-6 -4 -16 -7l-2 6q-8 4 -14 4q-7 0 -7 -7q0 -4 2 -8q-3 -1 -92 -9.5t-139 -30.5h-14v11q-12 1 -22 -12q-26 -3 -38 -18t-28 -62q-4 -12 -21 -26l9 -5q-5 -19 -14 -40t-16 -20q-4 0 -5 3.5t-0.5 7.5t0.5 6.5
t-2 2.5q-5 -1 -8 -6.5t-5.5 -17.5t-3.5 -16q6 -16 6 -29q-13 -35 -17 -35t-5.5 5t-1.5 12t-1 10q-6 -12 -23 -54l8 -5q7 13 19 10q-32 -87 -47 -149q-32 -3 -65 5l4 11q-8 3 -12.5 7.5t-7.5 15t-4 15.5t-2.5 22t-1.5 22q-8 10 -8 21q0 18 33.5 107.5t73.5 179.5h-78
q-19 0 -40.5 -5t-38.5 -1q-33 51 -33 97q0 19 14 33q113 -12 193 4q34 7 53 27t25 39t23.5 34.5t48.5 15.5zM328 279l-4 7l-10 -18l6 -7z" />
    <glyph glyph-name="u" unicode="u" horiz-adv-x="655" 
d="M685 473l-14 -50q-22 2 -31 -11q-7 -9 7 -18q3 -2 2.5 -6.5t-5 -8t-10.5 -3.5l-14 7q-6 -11 -10 -19.5t-7.5 -17.5t-3.5 -14.5t5 -5.5l-11 -21q-6 0 -10 -3t-10 -11t-12.5 -18.5t-20 -30t-30.5 -39.5l8 -10q40 51 69 99q9 -11 2 -24q-40 -73 -90.5 -128.5t-95 -84.5
t-91.5 -47.5t-75.5 -23t-51.5 -4.5q-5 0 -8 5q0 5 -7 5q-5 0 -5.5 -1t-0.5 -4q2 -5 -5 -5q-10 0 -19 5t-13.5 10t-12.5 16t-10 13l-11 -5q-58 35 -58 117q0 60 27 119q27 58 88 201t70 163q17 14 31 14q22 -1 61 -103l14 10v-23q-43 -78 -97 -197q-8 13 -1 27q7 2 1 7.5
t-9 0.5q-14 -18 -10 -42.5t1 -31.5q-1 -2 -6 -13t-8 -18q-13 6 -24 -17q7 -3 18 4h1q-5 -11 -21 -48q-7 10 2 29l-6 6q-18 -34 -18 -45t13 -12q-8 -20 -11 -28q59 0 110 18t87 45.5t71 73t57.5 86t51.5 99.5q2 5 13 6.5t15 3.5q9 5 3 10q-6 3 -14 2q29 66 40 109q2 11 16 11
q3 0 22 -15q11 -9 29 -16q6 -13 8 -51q2 -46 25 -48zM254 420l-25 -41q-3 -6 -2 -7l13 -8q8 11 14.5 30t-0.5 26zM226 12q2 0 23 3q-10 18 -32 14q-14 -3 -7 -11q5 -6 16 -6zM511 184l-10 10q-28 -28 -18 -41zM426 94q-11 0 -21 -4t-27 -15.5t-28 -17.5l2 -10q40 19 74 47z
M339 40q-4 9 -19 5q-3 -1 -16.5 -3.5t-18.5 -7.5t-4 -15q27 5 58 21z" />
    <glyph glyph-name="v" unicode="v" horiz-adv-x="585" 
d="M643 497q51 62 76 83q12 8 14 -2q-23 -19 -66.5 -80t-71.5 -79q-18 2 -26 -9t-11.5 -24t-10.5 -13q-5 0 -9.5 -3.5t-7.5 -8t-7 -11.5t-7 -11q-35 -49 -90 -109.5t-131 -139t-111 -116.5l-62 21q-4 7 -18.5 27.5t-21.5 37t-7 34.5q-3 98 20 444q0 7 -4.5 25.5t-4 32.5
t10.5 22q106 -43 113 -189q-8 -14 -0.5 -46t6.5 -43l-11 -2q-8 -49 -21 -91l16 -44q123 112 260 295q20 -1 37.5 17t44.5 15l39 42q6 7 15 6t12 -8q-29 -39 -94 -98q-5 -5 4 -5q3 0 6 1q27 22 65 61t49 54q4 0 18.5 10t24.5 1q-30 -25 -27 -43q24 28 35 25l3 -1
q-31 -35 -56 -76zM178 274h-11q-2 -16 9 -16zM550 410l-33 -19q7 -6 16 -6q15 2 17 25zM180 281q0 2 1.5 9t0 10t-8.5 3l-4 -18zM634 484q-3 -1 -5 -0.5t-3.5 1.5t-1.5 0l-21 -21q-11 -5 -6 -12q3 -5 11 1q17 14 26 31zM690 586q4 7 9 14t12 7q5 0 9 -6q-8 -5 -20 -18
q-2 3 -10 3zM593 408l-8 -17l-9 8q6 16 17 9zM486 343l-15 -22l6 -12q24 25 9 34z" />
    <glyph glyph-name="w" unicode="w" horiz-adv-x="845" 
d="M991 521q-6 -5 -29.5 -28t-40.5 -32.5t-36 -9.5q-28 -26 -90.5 -88.5t-76.5 -75.5l-15 13q4 -14 -0.5 -29t-11.5 -25t-20.5 -27t-19.5 -27q-2 1 -3 2.5t-1 3.5t0.5 4t2.5 5t3 5t3.5 5.5t3.5 5.5q-11 8 -33 -26q-19 -29 -11 -42q-10 -11 -49 -60.5t-67.5 -78t-44.5 -28.5
q-6 0 -12 11t-13.5 27t-16.5 23l-6 -7l-28 41q-4 6 -22.5 49.5t-31.5 57.5q-20 -25 -56.5 -78.5t-62.5 -90.5t-32 -37t-23 19t-21 19q-6 0 -9 -5q-50 58 -55 215q-1 77 0 107t5 110.5t5 107.5l13 10q32 -15 56 -62t34 -90q5 -24 -0.5 -61.5t-13.5 -66t-9.5 -58t11.5 -36.5
l142 194l23 8l53 79q4 6 7.5 21t8 25t12.5 10q16 0 33 -16.5t23 -36.5l25 -86q-16 -22 -44 -77.5t-46 -77.5q11 -1 27.5 -15.5t24.5 -14.5t49.5 50.5t89.5 112t106 115.5t95 59q22 4 45 4q-19 -19 -5 -23l45 35q14 -2 20 -19l42 -7q-9 -18 -29 -32l8 -3q6 0 31 19t38 4z
M901 494l-20 -14l2 -9q2 1 7 4t6.5 4.5t3 5.5t1.5 9zM874 476l-55 -43l2 -10q5 4 15.5 11.5t15 11.5t10.5 9.5t8.5 10.5t3.5 10zM686 280l-9 -13l6 -7q10 14 3 20zM677 251l-5 5l-13 -18l6 -6zM720 311l35 33q-28 15 -36 -33h1zM376 439l-26 -41l11 2q22 28 15 39z" />
    <glyph glyph-name="x" unicode="x" horiz-adv-x="525" 
d="M614 548l-264 -241l12 -4q-37 -27 -54 -48h-17v-29q0 -38 39 -111h9q6 -12 15 -25t21.5 -27t22.5 -24t27 -25t24 -21.5t24 -21t19 -15.5q-15 -7 -37 -5.5t-36 11.5l-42 30q-28 8 -43 -2q-6 5 -14 11t-13.5 10t-12.5 9.5t-9.5 8.5t-6.5 8t-2.5 7.5t2.5 6.5q-63 46 -79 82
l-48 -48q-5 4 -12 3t-12 -6l-73 -71q-18 -2 -65.5 -46.5t-73.5 -44.5q-3 0 -3 2t4 6t9.5 8t6.5 6l1 1q1 1 1 2l44 42l-2 12l-35 -32q1 7 1.5 22t2.5 28.5t6 25.5l33 31q5 17 20 39l14 -7l54 51q33 33 32 52q32 28 48 51q15 2 21 9q0 1 -1 3.5t-1 3.5q-51 179 6 335
q20 15 27 6l-17 -54q6 5 10.5 12.5t11.5 23.5t8 18q31 -4 53 -26t35 -23l11 -21q-27 -55 -29 -114l-6 -15l8 -5q15 15 90 94.5t111 112.5h16v-14q3 1 10 8.5t15.5 12.5t20.5 3l-9 -16q33 -7 55 -23t22 -29q0 -9 -6 -14zM356 274l-18 -19h-14l24 22zM384 -30l-17 -3l-24 17
q15 7 41 -14zM1 21l-17 -14l3 -10q14 7 14 24zM65 163l-10 -10l-7 7q3 2 8.5 7t8.5 8v-12zM49 147l-31 -29l-7 3q9 11 31 33z" />
    <glyph glyph-name="y" unicode="y" horiz-adv-x="572" 
d="M388 117l-7 -7l-14 13q-5 -4 -7 -5.5t-5.5 -6.5t-4 -8.5t1.5 -10t7 -13.5q-10 -15 -24 -43q-13 -6 -24 -17l8 -20l-4 -7l-12 16q-24 -32 -32 -83l19 -9q-5 -20 -7 -45q-12 -6 -31 -6q-44 0 -74 26q-1 14 -14 14q-12 15 -10 21q9 46 56.5 145.5t64.5 146.5l-7 6
q-44 0 -83 19q-7 -11 -18 0l-66 65h-12q-29 42 -28 94t18 94.5t49 96.5l14 -6q3 8 6 11q5 5 9 5q8 0 81 -32l16 -28q-4 -27 -26 -70t-25 -73l-15 -12q-10 -58 21 -98q48 -4 86.5 14.5t62.5 52.5l106 149l8 -13l40 58q10 15 25 3q36 29 66 14q-1 -9 3.5 -13.5t17.5 -5.5
q17 -23 23 -59q-14 -36 -47 -73q-7 1 -13 1t-10 -0.5t-8.5 -3.5t-6.5 -4t-5 -6.5t-4 -7t-4.5 -9t-4.5 -9.5l14 -7q-79 -83 -91 -119l-14 13q0 -18 -7 -33t-22 -34.5t-16 -21.5q-3 -5 -4.5 -11t-1.5 -14t-1 -12l-10 7q2 12 -4 17q-10 -17 -10.5 -23t11.5 -23zM280 -90l-11 5
l-3 -17l8 -4zM572 386l-6 12q15 15 26 10q-12 -14 -20 -22zM364 73l10 -9q-6 -12 -19 -7zM306 -36l-14 -40q-10 7 -5 21.5t18 19.5z" />
    <glyph glyph-name="y" unicode="&#xe006;" horiz-adv-x="572" 
d="M388 117l-7 -7l-14 13q-5 -4 -7 -5.5t-5.5 -6.5t-4 -8.5t1.5 -10t7 -13.5q-10 -15 -24 -43q-13 -6 -24 -17l8 -20l-4 -7l-12 16q-24 -32 -32 -83l19 -9q-5 -20 -7 -45q-12 -6 -31 -6q-44 0 -74 26q-1 14 -14 14q-12 15 -10 21q9 46 56.5 145.5t64.5 146.5l-7 6
q-44 0 -83 19q-7 -11 -18 0l-66 65h-12q-29 42 -28 94t18 94.5t49 96.5l14 -6q3 8 6 11q5 5 9 5q8 0 81 -32l16 -28q-4 -27 -26 -70t-25 -73l-15 -12q-10 -58 21 -98q48 -4 86.5 14.5t62.5 52.5l106 149l8 -13l40 58q10 15 25 3q36 29 66 14q-1 -9 3.5 -13.5t17.5 -5.5
q17 -23 23 -59q-14 -36 -47 -73q-7 1 -13 1t-10 -0.5t-8.5 -3.5t-6.5 -4t-5 -6.5t-4 -7t-4.5 -9t-4.5 -9.5l14 -7q-79 -83 -91 -119l-14 13q0 -18 -7 -33t-22 -34.5t-16 -21.5q-3 -5 -4.5 -11t-1.5 -14t-1 -12l-10 7q2 12 -4 17q-10 -17 -10.5 -23t11.5 -23zM280 -90l-11 5
l-3 -17l8 -4zM572 386l-6 12q15 15 26 10q-12 -14 -20 -22zM364 73l10 -9q-6 -12 -19 -7zM306 -36l-14 -40q-10 7 -5 21.5t18 19.5z" />
    <glyph glyph-name="z" unicode="z" horiz-adv-x="635" 
d="M724 94l47 1q11 -5 11 -14q-124 -4 -203 -19q-11 -2 -18 -14.5t-12 -16.5q-6 10 -26 5l-2 -12q-44 -5 -73 -10q-36 45 -115 -14q-38 0 -87 7v-14l-174 22q-6 8 -18.5 23.5t-18 23t-12.5 18.5t-10 20.5t-3 19.5q0 32 44.5 73.5t101.5 76t132.5 82.5t116.5 83
q-21 6 -59.5 0.5t-61.5 -8t-47 12.5q-6 -3 -8 -14q-40 -3 -46 -2q-11 1 -35.5 37t-22.5 46q1 3 7.5 11.5t1.5 20.5q121 47 327 47q79 0 129 -15q12 -35 12 -89l12 -11v-15h-15q-7 -25 -29 -45.5t-51 -43.5t-44 -46l-8 11q-18 -17 -88.5 -57.5t-90.5 -53.5l-9 -19
q-27 2 -64 -25v-15l-11 -9l-8 8q-12 -12 -18 -24q66 -4 171 0l8 -10l6 10q13 0 37 2q41 -14 46 -8q2 3 1 10q32 6 63.5 8t71 2t64.5 1q1 -5 -2 -12.5t-9 -9.5q-40 -2 -54 -3q-95 -8 -114 -23l1 -5q212 22 269 22q9 -1 9 -4q-16 -6 -22 -23zM745 135q-26 0 -74 -2
q-15 9 -15 19q33 1 81 -1q13 -1 8 -16zM771 64q2 -1 2.5 -3.5t-2 -4t-5.5 -1.5q-62 0 -188 -16q5 16 91 24t102 1zM779 136h-21q4 13 10 14q9 2 23 -10q1 -1 -0.5 -1.5l-4.5 -1.5t-7 -1zM407 6v-1q-22 -2 -47 -4q19 26 47 5zM420 448l-11 16l-10 -3l13 -20zM841 85l-44 -3
q-7 5 -7 13l29 1q32 -3 32 -8q0 -3 -10 -3z" />
    <glyph glyph-name="braceleft" unicode="{" horiz-adv-x="513" 
d="M608 642l-12 -33q-40 -30 -86 -51q-10 -5 -22 0t-26 -1q-131 -58 -175 -101q-25 -23 -30 -45q77 -26 90 -33q-5 -8 1.5 -10.5t13.5 1.5q20 -13 20 -24q0 -35 -58 -78l13.5 -9t16 -13t5.5 -13q0 -3 -18 -20.5t-50.5 -48t-55.5 -55.5q-24 -26 -46.5 -54.5t-34.5 -47
t-11 -22.5q-1 -13 4 -18q44 0 107 19q10 -21 36 -18l7 -23l27 -3q1 -5 11 -18t10 -22q-12 -4 -46 -14t-53.5 -15.5t-45.5 -11t-43 -5.5q-20 0 -39.5 9t-43 26t-32.5 22q0 1 -3.5 14.5t-3.5 21.5q-1 47 43.5 112t86.5 94l12 -3q19 24 22 51l-64 34q39 46 120 96
q-36 18 -54 39t-19 57q0 33 31 69l14 -5q3 10 16.5 18.5t17.5 13.5l-3 16q1 1 2.5 2t6 3.5t10.5 6.5q9 -11 45 16q0 1 3.5 3.5t8 9t6.5 13.5q19 12 59 34l4 -15q53 23 89 43q5 3 3 6q-2 2 -5 1q-29 -11 -35 -5l82 44h13q0 -13 6.5 -17t34.5 0zM321 -49l-17 4l-4 13l10 1z
M164 246l9 -3q6 8 35.5 32t42.5 32q9 6 5 6q-6 0 -19 -6q-9 -4 -37 -28t-36 -33z" />
    <glyph glyph-name="bar" unicode="|" horiz-adv-x="257" 
d="M224 750h102l-298 -1000h-102z" />
    <glyph glyph-name="braceright" unicode="}" horiz-adv-x="512" 
d="M212 589l-9 -1l-12 19l17 -5zM477 610q0 -30 -19.5 -65t-63.5 -86.5t-47 -55.5l-12 4q-19 -24 -22 -52l64 -34q-40 -47 -119 -96q36 -18 53.5 -38.5t18.5 -56.5q0 -21 -23 -81l-14 6q-5 -6 -21 -21t-19 -18l8 -9q-1 -1 -3.5 -3t-3.5 -3q-9 12 -44 -15q-2 -2 -7 -5.5
t-7.5 -5.5t-6 -6t-6 -8t-3.5 -9q-12 -8 -60 -34l-3 15q-49 -14 -90 -42l2 -8q29 11 35 5q-31 -16 -87 -36l-14 3q0 13 -7 17t-35 0l-16 43l11 33q14 11 54 26l39 14q10 5 22 0.5t26 1.5q22 10 47.5 23.5t59.5 34.5t58.5 47t30.5 49q-32 17 -87 36q6 11 -5 11q-6 0 -11 -3
q-19 13 -19 25q0 36 57 78q-3 3 -13.5 9.5t-16 12t-5.5 12.5t51.5 65.5t108 120t57.5 62.5l-2 18q-50 0 -110 -18q-9 20 -36 17l-7 23l-27 3q-1 5 -10.5 18t-9.5 22q12 4 46 14t53.5 15.5t45.5 11t43 5.5q20 0 39 -9t42.5 -26t32.5 -22q7 -19 7 -35zM196 285
q-26 -21 -38 -42q5 -1 11.5 4t14.5 13t14 11q10 6 -2 14z" />
    <glyph glyph-name="asciitilde" unicode="~" horiz-adv-x="625" 
d="M529 275l5 -6l-19 -14q3 -2 27 -9t30 -20q-66 -100 -146 -96q-36 2 -61 16.5t-34.5 31t-21 36.5t-20.5 28q-42 -12 -95 -50t-84 -71q-31 9 -45 26t-12 33t2 33q37 37 39 47q-1 8 -10 13q100 102 160 102q27 0 45 -23q22 0 34.5 -14.5t18 -32t25 -32t53.5 -14.5
q24 0 94 37h1q-7 -13 -7 -26zM79 259l-30 -33l-9 11l32 27z" />
    <glyph glyph-name="exclamdown" unicode="&#xa1;" horiz-adv-x="341" 
d="M416 508q-2 -3 -6.5 -11.5t-7 -12t-7 -10.5t-7.5 -10t-7.5 -7t-9.5 -5.5t-10 -1.5q-17 0 -29.5 13t-21 40.5t-12.5 46.5t-10 54l30 47q5 -10 13.5 -14.5t15.5 0.5q23 -42 41 -53q28 -18 28 -76zM261 429q-35 -45 -34 -68l31 24q-1 -13 0 -23.5t-2 -25t-12 -28.5
q1 -2 2.5 -6t2.5 -6q-22 -36 -22 -71q-30 -40 -45.5 -87t-43.5 -89l-26 -5q-89 -134 -119 -134q-20 0 -39 33.5t-19 60.5q0 19 15 39t44.5 53.5t51.5 68.5q2 2 17 26.5t21.5 35t23.5 36.5t28.5 42t28.5 40t31 40.5t30.5 34.5t30.5 31zM126 27l-18 -28l-8 6l13 24z" />
    <glyph glyph-name="cent" unicode="&#xa2;" horiz-adv-x="496" 
d="M473 102q-13 -3 -33.5 -7t-30.5 -6t-24 -5.5t-21 -6.5t-14 -7.5t-9.5 -10.5t-2.5 -13q-40 -9 -96 -16q-27 -72 -37 -102l-1 -34q-9 -53 -30 -109q-6 7 -11 16.5t-11 25t-9 22.5q16 79 17 151l-9 6q1 3 1.5 8.5t0.5 8.5q-48 -2 -67 -2q-9 11 -28 28.5t-32 34.5t-19 39
q52 178 303 293q26 56 101 215q7 -1 12.5 -6.5t7.5 -10.5t5.5 -13.5t5.5 -12.5l10 23l13 -6q0 -4 1 -14.5t1 -15.5q0 -25 -8.5 -52.5t-17.5 -48t-32 -66.5q4 -12 11 -27t12 -25t8.5 -21.5t2 -23.5t-7.5 -24q-59 -10 -95 -20q-25 -52 -58 -133h58q-2 -1 -9.5 -6.5t-13.5 -6.5
q6 -4 47 1t56 -4l-76 -14l22 -7q15 -1 48.5 5.5t40.5 7.5zM236 231q-91 -40 -121 -97h74l28 68h9zM423 63l-58 -12q1 5 5 9.5t11.5 7t13.5 4t15 3.5t13 3v-15zM413 599l-4 7l-15 -32l6 -5z" />
    <glyph glyph-name="sterling" unicode="&#xa3;" horiz-adv-x="680" 
d="M665 30q-69 -62 -174 -61l-17 -11q-128 0 -222 30l-7 8q-38 11 -72 22q-41 -66 -69 -87l-49 29q-42 73 -65 170l12 9l-5 18q16 7 34 4l20 15q39 -6 98 -26q7 12 29 58q-27 8 -37.5 27t-18.5 23l4 56q14 -7 29 16h80q81 166 168 253v15q9 5 22 13.5t21.5 13t14.5 4.5
q9 0 82 -16q1 -3 2.5 -5t3 -3.5t4.5 -3.5l4.5 -3t5 -2.5t5.5 -2t7 -2t7 -2.5q11 -33 11 -44q0 -36 -22.5 -84.5t-66.5 -92.5q-5 3 -13 7t-11.5 6.5t-5.5 8.5t-1 17q1 12 -2 23.5t-2 20t12 21.5l-4 9q-44 -26 -121 -149q91 4 125 8q28 -4 35 -6l-26 -6q14 -9 51 -5
q3 -2 12 -9.5t17.5 -12t22.5 -7.5q-1 -21 -34.5 -24.5t-39.5 -12.5h46l10 -10q-13 0 -128.5 -8.5t-151.5 -9.5l-4 -8h29q4 0 8 -1t7 -3t2 -6l-53 -2q-22 -39 -52 -90q3 -1 9 -3.5t9 -3.5q10 -1 3 -7t-10 -1l-16 6l-4 -9q56 -22 77 -28t61.5 -8t82.5 11t116 41
q-5 -10 -26 -24l5 -7l37 18q10 -7 17.5 -16t15.5 -21.5t12 -18.5q8 1 11.5 2t9.5 -2.5t8.5 -5t7.5 -6.5t7 -6zM143 141q-39 14 -54 17q-17 3 -20 -5q31 -8 69 -21l2.5 5t2.5 4zM611 123q6 -13 -12 -22l-12 9zM296 96q9 1 9 -5q1 -8 -12 -6q-5 2 -18 6.5t-17 6.5l4 10
q23 -7 34 -12z" />
    <glyph glyph-name="currency" unicode="&#xa4;" horiz-adv-x="780" 
d="M700 112l-54 -52l-63 78q-43 -35 -109 -35q-67 0 -108 33l-62 -76l-54 52l66 70q-43 55 -43 126q0 77 44 126l-66 64l53 52l62 -72q42 36 108 36q71 0 111 -36l62 72l52 -52l-66 -64q44 -47 44 -126q0 -73 -45 -125zM475 441h-1q-48 0 -81 -38t-33 -95q0 -58 33 -95
t82 -37t82 37.5t33 94.5t-33 95t-82 38z" />
    <glyph glyph-name="yen" unicode="&#xa5;" horiz-adv-x="598" 
d="M592 480q-4 -3 -7.5 -7t-8 -8.5l-7.5 -7.5l-7 23q20 6 30 0zM663 544q-27 -22 -57 -51q-27 9 -42.5 0t-41.5 -38l26 -19q-114 -116 -186 -227q47 -6 82 -5l24 -32q34 6 70 -17q-75 -25 -224 -40q-2 -3 -9 -15t-10 -19q-11 -6 -24 -20l7 -18l-4 -7l-11 15
q-21 -27 -27.5 -56.5t8.5 -50.5q-6 -29 -7 -38q-46 0 -81 12q7 21 -1.5 27.5t-24.5 -2.5l-18 24q18 56 60 138q-11 -1 -40 -2.5t-43 -2.5q-2 14 -11 20t-27 10q-2 25 7 53q55 28 151 34q-31 125 -81 165q-1 3 -4 13t-5.5 16.5t-7 16.5t-11 19t-14.5 17q-61 61 -41 122
q6 2 16 6q17 -19 30 -7q9 9 1 20q22 8 52 8q27 0 77.5 -107t65.5 -204q98 153 175 243l6 -13l60 71l9 -10q21 12 41 15q21 3 35 -1q-1 -7 4 -9.5t21 -2.5q27 -20 25 -51zM265 9l-15 -42q-11 5 -5.5 21.5t19.5 20.5h1zM275 284q-1 4 -3 13.5t-3 14t-2.5 12t-3.5 12t-4.5 9
t-5 7.5t-6.5 5l20 -86q7 12 8 13z" />
    <glyph glyph-name="brokenbar" unicode="&#xa6;" horiz-adv-x="257" 
d="M53 174h102l-104 -350h-102zM203 674h102l-106 -350h-102z" />
    <glyph glyph-name="section" unicode="&#xa7;" horiz-adv-x="486" 
d="M242 92l29 18l-3 8l-25 -12q0 16 21 26q-35 90 -154 97q-6 9 -22.5 26t-25.5 30t-8 24q1 12 9 25t17.5 23.5t26.5 23.5t29 21t33.5 20t31 17t30 15.5t23.5 11.5q-16 25 -18 43q23 64 63.5 108.5t81.5 44.5q40 0 81 -27t69 -66q-15 -45 -53 -67l-13 3q-4 29 -14.5 43.5
t-33.5 14.5q-17 0 -42 -39t-28 -60q-2 -12 29 -34.5t61 -50.5t26 -55q-5 -43 -32 -70.5t-70 -51.5q32 -36 40 -72q-4 -35 -22 -59.5t-58 -60.5q3 -15 -12 -25l-69 -48l-3 10q-80 -51 -170 -89.5t-147 -55.5l-27 11q-12 -9 -43 -9q60 45 147 88q27 13 31 32l-63 -32
q2 18 27 31q22 11 66 35l-3 -18q24 16 18 26q65 33 115 69.5t54 56.5zM347 347q1 10 -6 21.5t-15 20.5t-25 25t-25 25q-8 -10 1.5 -26.5t9.5 -20.5q0 -14 -48.5 -42t-50.5 -43q-2 -10 8 -20q15 11 22 7t18.5 -14.5t18.5 -10.5q17 0 53.5 31t38.5 47zM-43 -99l-5 -13l-28 -15
v9z" />
    <glyph glyph-name="dieresis" unicode="&#xa8;" horiz-adv-x="500" 
d="M565 733q-18 -11 -44 -44t-44 -45q-28 0 -44.5 23.5t-8.5 47.5h-15q2 23 25 69t54 46q35 0 56 -24.5t21 -72.5zM351 715l-88 -90l-15 8l7 30q-25 55 -22 92q-12 7 -12 20q0 20 19.5 37.5t39.5 17.5q31 0 51 -31.5t20 -83.5z" />
    <glyph glyph-name="copyright" unicode="&#xa9;" horiz-adv-x="848" 
d="M518 225l-34 -18l-21 11q41 9 55 7zM460 192l32 11l6 -3q-22 -19 -38 -8zM79 118l-11 -17q-23 48 -26 97h1q8 -12 17 -18l-1 34q23 45 0 58q5 12 22.5 48.5t20.5 51.5l64 18q-1 -4 -8 -12t-8 -13q-21 -10 -7 -24q-22 -81 -22 -149q0 -48 24.5 -85t66.5 -53q28 3 60 -2
l10 -18h28l12 11q74 -6 152 33q9 4 17.5 11.5t12.5 11.5t11 6t13 -5q8 6 6 14q58 47 96 98l-10 5q-6 -6 -14.5 -15.5t-12 -13.5t-10.5 -10.5t-10.5 -6t-10.5 0.5q71 72 97 114q38 62 38 125q0 80 -67 131.5t-167 51.5q-79 64 -56 102q17 -3 71 -15l-9 -6q17 -7 21.5 -7.5
t18.5 5.5q150 -44 223.5 -132.5t73.5 -212.5l-14 2q0 -18 14 -29q-1 -16 -18 -33t-19 -22l27 -11q-7 -21 -15 -37q-29 13 -41 -9t-12 -72q-80 -97 -206 -153q-17 3 -78 -12l10 -14q-8 -2 -20 -4l-16 10q-29 -6 -46 -18q-85 0 -163 37t-123 106q5 24 -7 47zM245 234l2 17
q-3 5 -8.5 12t-8.5 11.5t-3 9.5q-2 97 78 165t177 71q8 -10 22 -2q11 -5 31 -25t23 -22v-19q-53 -17 -89.5 -32.5t-75 -40.5t-58 -59t-19.5 -77q15 -13 55 -13l-6 -17q29 11 48 0l24 6l6 -7l-57 -17q14 -22 36 -17l-13 16l51 12l-12 -15l15 -11q-32 -24 -93 -24
q-23 0 -48 14t-37 25t-40 39zM508 128l7 -10q-26 -18 -47 -16zM328 56v1l40 6q3 -8 -11 -10q-16 -2 -29 3z" />
    <glyph glyph-name="ordfeminine" unicode="&#xaa;" horiz-adv-x="431" 
d="M377 495q0 -50 -14 -107.5t-41 -91.5q-36 12 -48 70q17 21 28 43q-27 1 -98 -30l-21 12q-28 -38 -42 -38q-13 0 -26.5 25.5t-13.5 44.5q0 6 26.5 32t72.5 68t70 66q7 7 13 18.5t12.5 17.5t18.5 6q25 0 44 -46t19 -90zM324 550l-57 -65l48 -6l-10 -25h17q26 71 2 96z
M383 137l-164 -12l-8 8q-15 -4 -56.5 -9t-57.5 -10l-15 18q-10 -2 -22 -6.5t-19 -6.5t-14 0q-3 1 -13.5 7t-18.5 6q76 59 197 85.5t166 12.5q15 -5 24 -36t1 -57zM71 103l-65 -22q12 19 51 30z" />
    <glyph glyph-name="guillemotleft" unicode="&#xab;" horiz-adv-x="448" 
d="M7 276q51 56 119 105.5t128 73.5q5 -8 8.5 -28t13.5 -28l-10 -59l7 -7q19 20 54.5 56.5t47.5 49.5q43 -7 58 -50l-18 -25l15 -5q-14 -22 -69.5 -63t-61.5 -61l89 -82l-14 -10l37 -48l-3 -11q-59 7 -95.5 28t-64.5 49.5t-47 38.5l19 67q7 12 38 49q-37 4 -83.5 -21.5
t-71.5 -54.5l31 -60h18q25 -19 43 -55t11 -51q-87 21 -127 53.5t-62 109.5q3 8 1.5 12.5t-6 13t-5.5 13.5z" />
    <glyph glyph-name="logicalnot" unicode="&#xac;" horiz-adv-x="625" 
d="M462 109q-15 3 -7.5 32t-3.5 37l-19 -78q-6 -4 -18 -2.5t-18 3.5t-19 7t-21 7q1 41 24 123q-32 8 -124 -8t-105 -11q-10 4 -22.5 29.5t-18.5 54.5q14 3 41.5 8t40.5 9q-6 16 -44.5 7.5t-39.5 3.5q55 18 161.5 32t161.5 16q8 -6 25.5 -15.5t32 -20.5t26.5 -28
q-11 -72 -53 -206z" />
    <glyph glyph-name="uni00AD" unicode="&#xad;" horiz-adv-x="504" 
d="M499 204q-168 -51 -435 -64q-1 12 -12.5 22t-26.5 15q0 41 17 77q28 22 80.5 27.5t102.5 1t103 0.5l-5 -13q34 -9 77 -9l24 -36q38 5 75 -21z" />
    <glyph glyph-name="registered" unicode="&#xae;" horiz-adv-x="432" 
d="M454 462q0 -73 -34.5 -129t-101.5 -81q-20 8 -52 -13l-6 6l-20 -10h-21q-55 0 -98.5 47t-43.5 104q0 6 2 24l10 16v22q11 32 23 53l24 -15q-13 -34 -13 -35l-6 -5v-31q0 -105 79 -105q47 0 98 33q-45 7 -80 66q-17 -41 -20 -63q-20 0 -30 16.5t-12 17.5l21 62
q-10 10 -9 15.5t10 15.5l9 -5l22 66q27 -10 33.5 -9t19 6.5t27.5 4.5q-1 -6 6 -14t15 -9.5t13 6.5q10 -17 10 -25q0 -34 -80 -70q6 -19 33 -29.5t60 -12.5q44 45 50 92h7q2 21 -3 33q-3 8 -8 1q-10 33 -32.5 58t-44.5 25q-11 0 -24.5 -7t-17.5 -7q-16 0 -38 35q29 19 53 19
q59 0 114.5 -50.5t55.5 -118.5zM288 498l-39 -23l6 -5l22 10l-1 -10q11 5 16.5 9.5t4.5 8t-2.5 5.5t-6.5 5zM163 573l5 -12q-4 -10 -6 -17l-12 13q1 2 13 16zM141 532l7 -18q-6 -14 -9 -22l-19 22q6 10 13 21z" />
    <glyph glyph-name="macron" unicode="&#xaf;" horiz-adv-x="500" 
d="M623 776q-2 -6 -5.5 -21t-5.5 -18.5t-8 -11t-15 -9.5t-23 -2q-5 0 -37 -14t-58 -6l-29 -22q-39 22 -53 8h-67l-3 -8l63 -4q-2 -6 -2 -9q-80 0 -114 6l-13 -6q-28 18 -46 17q-12 13 -12 28q0 14 19 38.5t23 32.5q228 -26 386 1z" />
    <glyph glyph-name="degree" unicode="&#xb0;" horiz-adv-x="387" 
d="M352 504q-31 -47 -72 -83h-25q-6 -10 3 -16q-51 -35 -96 -40q-13 16 -23 9q-3 -3 -3 -8q-36 7 -68.5 39.5t-32.5 81.5l12 15q0 52 37.5 80t129.5 49q2 -2 10.5 -7.5t11.5 -7.5t8.5 -6.5t9 -8.5t5.5 -9l12 25q39 -6 60 -38.5t21 -74.5zM282 546q0 17 -18 33q3 -17 -4 -40
q-91 -12 -128 -41l-15 -43q19 -8 59 5t73 38t33 48z" />
    <glyph glyph-name="plusminus" unicode="&#xb1;" horiz-adv-x="625" 
d="M553 257q-126 -26 -241 -40q-27 -58 -33 -107q6 1 18 2.5t18 2.5q66 -15 135 -16l28 -24l-34 -8q5 -9 34.5 -5t43.5 -8q-300 -63 -406 -63q-13 15 -31 23q0 32 14.5 47t50.5 26q35 11 81 17q-2 2 -9.5 7.5t-11 8.5t-8.5 8t-7.5 9.5t-2.5 9.5q-1 23 7 58q-24 -2 -68 -2
q-3 36 -38 36q-3 36 10 66q51 13 143 17q19 35 88 150q21 8 42 4l1 -15q25 -13 27 -42l3 -49h-13q-10 -21 -24 -45q14 0 36 2l1 -11q30 -6 70 -6l24 -27q12 0 20 -3t17 -11t15 -12zM300 216q-2 0 -6 -1t-5 -1l-16 -51l5 -6z" />
    <glyph glyph-name="twosuperior" unicode="&#xb2;" horiz-adv-x="520" 
d="M540 372q-27 -21 -52.5 -25t-50.5 3l-25 -19l-15 8q-13 -4 -73 -22q-13 22 -35 -9q-104 -26 -164 -26l-47 41q6 3 6 11.5t-9 14.5q10 16 28.5 35t45.5 41t45.5 36t51 37.5t40.5 29.5q-16 17 -112 -22q-42 37 -42 86q93 33 218 39l-2 -5l32 -10l7 7q30 -18 30 -48
q0 -23 -20 -67l-57 -44l-8 9q-9 -8 -46.5 -36.5t-52.5 -42.5l175 24l91 -22l-7 -21l46 10z" />
    <glyph glyph-name="threesuperior" unicode="&#xb3;" horiz-adv-x="448" 
d="M443 444q0 -57 -34 -94q-19 9 -32 -16q-175 -69 -278 -69l-6 21l-10 -3q-8 20 -8 65q94 13 113 17q23 5 40 -2q48 11 87.5 28.5t39.5 28.5q0 5 -13.5 6.5t-46.5 2.5t-54 3q-3 4 -10 11l-11 11t-9 11t-5 11t1 11l66 58q-82 0 -108 -15q-20 24 -20 48q0 17 30.5 32.5
t57.5 15.5q53 0 129 -12q6 -7 10.5 -13t7 -12.5t4.5 -10.5t1.5 -11.5t-0.5 -10t-2.5 -11t-3 -10l-4 -12t-4.5 -12.5l53 -21q19 -35 19 -46z" />
    <glyph glyph-name="acute" unicode="&#xb4;" horiz-adv-x="500" 
d="M525 756q0 -26 -24 -50t-58.5 -38t-68 -22.5t-56.5 -8.5q-18 0 -28 7q-52 -6 -67 -7q12 16 16 33l38 14l-2 9q-51 -16 -58 -16q-9 0 -12 4q68 19 169 75v11q67 35 119 71q32 -23 32 -82z" />
    <glyph glyph-name="mu" unicode="&#xb5;" horiz-adv-x="581" 
d="M498 289l7 -4q8 16 17 43.5t15.5 40.5t15.5 12q-5 -19 -21.5 -64t-30.5 -82.5t-14 -38.5q-33 -98 -28 -204q-14 -13 -24 -16q-3 6 -10 3t-7 -8q-4 -1 -29 -1q-17 0 -36 4q3 19 2 31t-4 18t-6 5l-4 -49q-11 4 -17 9q1 9 3.5 34.5t5.5 42.5l-3 8q-56 -64 -106 -64l-2 7
q-5 0 -12.5 -3.5t-11.5 -3.5q-22 0 -39 25t-18 60h-5q-12 -58 -42.5 -146.5t-57.5 -130.5q-6 0 -18 14.5t-14 22.5q-11 11 -15 2q-38 33 -41 57l20 34q-5 5 -13.5 -6t-11.5 -20l-10 3q12 22 40 80q4 10 16.5 17.5t18.5 22.5q-2 4 -8 10q35 99 51 135q12 27 53 127t52 123
q53 8 71 8q10 0 25 -9t19 -18l11 -3v-13q-8 -13 -32 -64t-30 -61q-5 7 -1 16l-5 5q-8 -10 -5.5 -25.5t0.5 -19.5q-8 -19 -19 -57q1 -4 3.5 -11t4 -10.5t4.5 -9t6 -8.5t8 -6t11.5 -4.5t14.5 -1.5q42 0 79.5 43.5t77.5 127.5q1 3 4 3.5t7 1t6 1.5q5 3 2 6l-9 1q15 33 24 73
q13 9 33 9q47 0 79 -19q-12 -6 -18 -19.5t-13 -39.5t-16 -46zM294 52l-10 2q-2 -2 -38 -28q14 -6 48 26zM501 273l-8 3q-9 -22 -1 -27zM234 339l-12 -20q-2 -2 -2.5 -7t4.5 -8q18 27 10 35z" />
    <glyph glyph-name="paragraph" unicode="&#xb6;" horiz-adv-x="619" 
d="M634 513q0 -17 -29.5 -59t-34.5 -61q-9 -31 -32 -85l-12 4q-1 -3 -3.5 -9.5t-3.5 -10t-2 -8.5t0 -9t4 -8q-1 -3 -3 -7t-3 -7l-9 1l-20 -55l8 -6q-2 -4 -2 -5v-1q-1 -1 -1 -2q-11 1 -13 -10q0 -1 -1 -5l-1.5 -6t1 -6.5t5.5 -9.5q-35 -146 -54 -156v45l-19 -12
q-6 5 -19.5 12t-20 16.5t-6.5 27.5q0 29 32 126.5t32 123.5l-7 2q-18 -51 -58 -99l-10 12q-9 -13 -2 -25q2 -4 6.5 -9.5t6.5 -10t2 -9.5q0 -12 -12 -27q-5 3 -10 1t-5.5 -6t4.5 -8q-30 -36 -13 -70l-5 -12l-12 6l-21 -65h9l-25 -61q-10 8 -39.5 25t-43.5 30t-14 27
q0 22 47.5 124.5t55.5 143.5q20 4 20 23q-13 0 -55.5 -21.5t-56.5 -21.5q-20 0 -62 41.5t-42 59.5q0 51 99.5 139.5t176.5 107.5q17 -11 37 -28.5t31 -29t32 -34.5t23 -25q16 24 26.5 52.5t18.5 36.5t31 8q4 -4 17.5 -18.5t20.5 -23t17 -20.5t14.5 -20t4.5 -13zM389 249
l-13 -30l-7 8l14 26zM299 476q-27 0 -67 -35.5t-72 -77.5q0 -15 6 -25l-15 -9l6 -7l15 7q3 -3 9 -7l78 35q0 16 18 60.5t22 58.5z" />
    <glyph glyph-name="periodcentered" unicode="&#xb7;" horiz-adv-x="176" 
d="M161 230q-4 -19 -35 -54.5t-56 -43.5l-55 63l10 13q-17 40 3.5 84t51.5 44q23 0 46 -31.5t35 -74.5z" />
    <glyph glyph-name="cedilla" unicode="&#xb8;" horiz-adv-x="500" 
d="M279 -114q0 -82 -108 -147h-25l10 -9q-7 -4 -21 -11q-7 9 -15 6t-10 -17q-4 -2 -9.5 -4t-12.5 -4.5t-11 -3.5q15 29 11 36q-2 5 -10 9q1 1 16 12.5t20 16t18.5 16t20 18.5t14.5 16.5t11.5 17.5t3.5 15q-8 7 -23.5 15.5t-25.5 17.5t-13 24l56 86h65l-21 -47
q6 -5 23.5 -16.5t26.5 -22.5t9 -24z" />
    <glyph glyph-name="onesuperior" unicode="&#xb9;" horiz-adv-x="326" 
d="M346 573q-6 -19 -51 -114.5t-58 -167.5l-22 -18q-39 25 -51 37h-11l-18 29l9 16q0 11 1.5 22t6 25.5t7.5 23.5t11 26.5t11 23.5t12.5 25.5t10.5 22.5l-47 -13q-25 25 -25 43q0 34 36 41q28 5 78.5 24.5t51.5 19.5q8 0 30 -11z" />
    <glyph glyph-name="ordmasculine" unicode="&#xba;" horiz-adv-x="446" 
d="M401 458q-4 -4 -28 -28.5t-41 -40t-41 -36t-45.5 -31.5t-38.5 -11q-14 0 -43 12l-10 42h-18l-11 31q5 38 24.5 89.5t54.5 95.5t70 44q11 0 29.5 -8.5t41.5 -26t39.5 -52.5t16.5 -80zM319 485q9 38 -11 38q-31 0 -90 -126v-12l62 43q5 38 39 57zM278 407l-68 -48
q59 0 67 43zM394 139l-166 -13l-9 9q-15 -4 -57 -9.5t-58 -10.5l-15 19q-10 -2 -22 -6.5t-19.5 -6.5t-14.5 0q-2 1 -13.5 7t-19.5 6q77 60 200.5 87t168.5 12q15 -5 24.5 -36t0.5 -58zM77 104l-65 -22q13 19 51 30z" />
    <glyph glyph-name="guillemotright" unicode="&#xbb;" horiz-adv-x="448" 
d="M441 253q-51 -56 -119 -105.5t-128 -73.5q-5 8 -8.5 28t-13.5 28l11 58l-8 8q-19 -20 -54.5 -56.5t-47.5 -49.5q-43 7 -58 50l18 25l-15 5q14 22 69.5 63t61.5 61l-89 82l14 10l-37 48l3 11q59 -7 95.5 -28t64.5 -49.5t47 -38.5l-19 -67q-7 -12 -38 -49q37 -4 83.5 21.5
t71.5 54.5l-31 60h-18q-25 19 -43 55t-11 51q87 -21 127 -53.5t62 -109.5q-3 -8 -1.5 -12.5t6 -13t5.5 -13.5z" />
    <glyph glyph-name="onequarter" unicode="&#xbc;" horiz-adv-x="697" 
d="M672 169q-14 -65 -89 -85l-31 -82l-12 6q-15 -31 -6 -73l-49 -6l-54 41q0 40 33 85l-99 -16q-10 5 -34 16t-33.5 16.5t-19 17t-9.5 26.5q0 29 49 84.5t105 97.5h33q14 -17 14 -54l-80 -121l74 11q23 3 49 34t26 59l30 22q30 -16 30 -82l53 21q3 -14 20 -18zM305 629
l18 -55q-6 -18 -50.5 -113.5t-57.5 -168.5q16 12 28 18l90 86l7 -6l114 81l-8 7q78 53 164 82l9 -9l-8 -12q43 -29 51 -40v-35l-30 -29l-12 5q-224 -124 -371 -251q-47 -41 -151 -139t-157 -145q-13 26 2 55.5t57 80.5q16 16 10 25l-45 -49l-6 4q48 60 65 69
q13 29 65.5 85.5t102.5 98.5q-39 24 -51 37h-11l-18 29l9 16q0 11 1.5 22t6 25.5t7.5 23.5t11 26.5t11 23.5t12.5 25.5t10.5 22.5l-47 -13q-25 25 -25 43q0 34 36 41q28 5 78.5 24.5t51.5 19.5q8 0 30 -11z" />
    <glyph glyph-name="onehalf" unicode="&#xbd;" horiz-adv-x="724" 
d="M749 38q-27 -21 -52.5 -24.5t-50.5 3.5l-24 -19l-16 7q-23 -7 -73 -21q-4 10 -16 7q-10 -3 -19 -17q-104 -26 -165 -26l-46 42q6 3 6 11.5t-9 14.5q10 16 28 35t45.5 41.5t45 35.5t51.5 38t40 29q-17 17 -112 -22q-38 32 -38 67l16 26q110 28 199 32l-3 -6l33 -9l7 7
q30 -19 30 -48q0 -23 -20 -67l-57 -44l-8 9q-7 -6 -45 -36t-54 -44l174 25l92 -23l-7 -20l47 10zM215 292q16 12 28 18l90 86l7 -6l114 81l-8 7q78 53 164 82l9 -9l-8 -12q43 -29 51 -40v-35l-30 -29l-12 5q-224 -124 -371 -251q-47 -41 -151 -139t-157 -145q-13 26 2 55.5
t57 80.5q16 16 10 25l-45 -49l-6 4q48 60 65 69q13 30 66 86t103 98q-39 24 -51 37h-11l-18 29l9 16q0 11 1.5 22t6 25.5t7.5 23.5t11 26.5t11 23.5t12.5 25.5t10.5 22.5l-47 -13q-25 25 -25 43q0 34 36 41q28 5 78.5 24.5t51.5 19.5q8 0 30 -11l18 -55q-7 -27 -51.5 -119
t-57.5 -163z" />
    <glyph glyph-name="threequarters" unicode="&#xbe;" horiz-adv-x="806" 
d="M781 168q-14 -65 -88 -84l-31 -82l-13 6q-15 -31 -6 -73l-48 -6l-55 41q0 40 33 85l-98 -16q-10 5 -34 16t-33.5 16.5t-19 17t-9.5 26.5q0 29 49 84.5t104 97.5h34q13 -16 13 -54l-80 -121l74 11q23 3 49 33.5t26 58.5l30 23q30 -16 30 -82l53 21q4 -15 20 -19zM403 444
q0 -57 -34 -94q-19 9 -32 -16q-175 -69 -278 -69l-6 21l-10 -3q-8 20 -8 65q94 13 113 17q23 5 40 -2q48 11 87.5 28.5t39.5 28.5q0 5 -13.5 6.5t-46.5 2.5t-54 3q-3 4 -10 11l-11 11t-9 11t-5 11t1 11l66 58q-82 0 -108 -15q-20 24 -20 48q0 17 30.5 32.5t57.5 15.5
q53 0 129 -12q6 -7 10.5 -13t7 -12.5t4.5 -10.5t1.5 -11.5t-0.5 -10t-2.5 -11t-3 -10l-4 -12t-4.5 -12.5l53 -21q19 -35 19 -46zM758 453l-29 -28l-11 5q-222 -122 -364 -246q-46 -40 -148.5 -136.5t-154.5 -142.5q-13 26 2 56t56 77q15 18 10 25l-44 -49l-6 5q47 58 63 67
q18 40 102 122t113 95l89 84l7 -6l111 79l-7 7q81 54 161 80l8 -9l-7 -11q42 -30 49 -39v-35z" />
    <glyph glyph-name="questiondown" unicode="&#xbf;" horiz-adv-x="468" 
d="M-30 77q9 24 16 73q10 74 81.5 158.5t188.5 131.5q0 -21 6.5 -30t23.5 -7v-36q-72 -52 -127 -111.5t-71 -108.5q0 -8 4 -17.5t4.5 -13t-5.5 -10.5q14 -19 44 -17q27 1 109.5 22t108.5 22v-4q23 -19 35 -19q7 -1 7 10q0 1 -0.5 3.5t-1.5 3.5q45 -18 45 -87q0 -16 -11 -29
t-30 -16q-217 -31 -293 -31q-17 0 -46 15.5t-50 18.5zM284 548l14 113l49 -23q9 -33 43 -63q0 -13 6.5 -37t6.5 -33q0 -26 -10 -47.5t-26 -21.5q-22 0 -36 6t-23 23t-13 32.5t-11 50.5z" />
    <glyph glyph-name="Agrave" unicode="&#xc0;" 
d="M528 195q-9 -1 -27.5 -4t-26.5 -4q-1 -3 -7.5 -36t-18.5 -45q10 -7 7 -21t-14 -24q6 -9 4.5 -22t-15.5 -32q0 -2 1 -2q6 1 10 5q-2 -38 -20 -91q-16 0 -41.5 13.5t-33.5 10.5q1 16 -2.5 22t-13.5 6l1 14q9 0 10 10q-9 0 -9 10q1 13 9.5 41.5t10.5 40.5q8 0 6 -28
q5 0 11.5 22.5t8.5 41.5l-12 5q-2 -34 -10 -34q-1 0 -3 1q1 7 4 31t5 30l17 -21q0 5 1.5 13.5t0.5 16.5q-38 1 -123 -39t-130 -71l-5 -13l4 -12q-5 -11 -15.5 -34t-18 -38.5t-14.5 -24.5l-63 27q-1 14 -21 35t-14 35h-16q8 53 42.5 117t70 110t91.5 114t79 98q56 74 133 135
q1 1 18.5 2.5t18.5 12.5q34 -11 56 -28l-18 -6q0 -5 2.5 -6.5t6 -0.5t8 2.5l7.5 2.5t5 0q21 -18 24.5 -61t10.5 -54q2 -9 -2 -51.5t-14 -48.5q1 -1 3 -2.5t3 -1.5q-14 -51 -16 -79q0 -2 18 -33t16 -57zM447 481l-3 10q-23 -1 -108 -114l-5 5q5 15 2 18q-14 -15 -16.5 -22.5
t2.5 -23.5q-23 -30 -42 -54q-10 -13 -36 -51.5t-32 -47.5q3 2 27 21t48 29q23 10 92 29q1 12 4.5 23t7.5 21.5t5 14.5l17 -15q5 14 11.5 42t14 63.5t11.5 51.5zM399 293h-11q-3 -8 0 -10t10 -1zM398 299l-1 10l-4 1l-4 -11h9zM363 55l-6 -3l-4 -13h6zM222 129q-7 1 -10 2.5
t-13 -3t-14.5 -6.5t-14.5 -8t-13 -7q-4 -5 -11 -18zM234 135q3 2 16 8t19 10v1q-31 -1 -35 -19zM434 463l-8 -31h-9l8 27zM167 125q29 14 33 24q-4 -1 -10.5 -3t-10.5 -4zM629 647q-21 -9 -33 -6t-38 21q-1 -3 0.5 -7t7.5 -9t11 -8.5l15 -10.5t16 -11l-12 -7q-67 50 -154 89
l-9 -6q-64 31 -129 54q0 29 29 58.5t51 29.5q44 0 121.5 -52t77.5 -85q24 -24 46 -50z" />
    <glyph glyph-name="Aacute" unicode="&#xc1;" 
d="M528 195q-9 -1 -27.5 -4t-26.5 -4q-1 -3 -7.5 -36t-18.5 -45q10 -7 7 -21t-14 -24q6 -9 4.5 -22t-15.5 -32q0 -2 1 -2q6 1 10 5q-2 -38 -20 -91q-16 0 -41.5 13.5t-33.5 10.5q1 16 -2.5 22t-13.5 6l1 14q9 0 10 10q-9 0 -9 10q1 13 9.5 41.5t10.5 40.5q8 0 6 -28
q5 0 11.5 22.5t8.5 41.5l-12 5q-2 -34 -10 -34q-1 0 -3 1q1 7 4 31t5 30l17 -21q0 5 1.5 13.5t0.5 16.5q-38 1 -123 -39t-130 -71l-5 -13l4 -12q-5 -11 -15.5 -34t-18 -38.5t-14.5 -24.5l-63 27q-1 14 -21 35t-14 35h-16q8 53 42.5 117t70 110t91.5 114t79 98q56 74 133 135
q1 1 18.5 2.5t18.5 12.5q34 -11 56 -28l-18 -6q0 -5 2.5 -6.5t6 -0.5t8 2.5l7.5 2.5t5 0q21 -18 24.5 -61t10.5 -54q2 -9 -2 -51.5t-14 -48.5q1 -1 3 -2.5t3 -1.5q-14 -51 -16 -79q0 -2 18 -33t16 -57zM447 481l-3 10q-23 -1 -108 -114l-5 5q5 15 2 18q-14 -15 -16.5 -22.5
t2.5 -23.5q-23 -30 -42 -54q-10 -13 -36 -51.5t-32 -47.5q3 2 27 21t48 29q23 10 92 29q1 12 4.5 23t7.5 21.5t5 14.5l17 -15q5 14 11.5 42t14 63.5t11.5 51.5zM399 293h-11q-3 -8 0 -10t10 -1zM398 299l-1 10l-4 1l-4 -11h9zM363 55l-6 -3l-4 -13h6zM222 129q-7 1 -10 2.5
t-13 -3t-14.5 -6.5t-14.5 -8t-13 -7q-4 -5 -11 -18zM234 135q3 2 16 8t19 10v1q-31 -1 -35 -19zM434 463l-8 -31h-9l8 27zM167 125q29 14 33 24q-4 -1 -10.5 -3t-10.5 -4zM650 776q0 -26 -24 -50t-58.5 -38t-68 -22.5t-56.5 -8.5q-18 0 -28 7q-52 -6 -67 -7q12 16 16 33
l38 14l-2 9q-51 -16 -58 -16q-9 0 -12 4q68 19 169 75v11q67 35 119 71q32 -23 32 -82z" />
    <glyph glyph-name="Acircumflex" unicode="&#xc2;" 
d="M528 195q-9 -1 -27.5 -4t-26.5 -4q-1 -3 -7.5 -36t-18.5 -45q10 -7 7 -21t-14 -24q6 -9 4.5 -22t-15.5 -32q0 -2 1 -2q6 1 10 5q-2 -38 -20 -91q-16 0 -41.5 13.5t-33.5 10.5q1 16 -2.5 22t-13.5 6l1 14q9 0 10 10q-9 0 -9 10q1 13 9.5 41.5t10.5 40.5q8 0 6 -28
q5 0 11.5 22.5t8.5 41.5l-12 5q-2 -34 -10 -34q-1 0 -3 1q1 7 4 31t5 30l17 -21q0 5 1.5 13.5t0.5 16.5q-38 1 -123 -39t-130 -71l-5 -13l4 -12q-5 -11 -15.5 -34t-18 -38.5t-14.5 -24.5l-63 27q-1 14 -21 35t-14 35h-16q8 53 42.5 117t70 110t91.5 114t79 98q56 74 133 135
q1 1 18.5 2.5t18.5 12.5q34 -11 56 -28l-18 -6q0 -5 2.5 -6.5t6 -0.5t8 2.5l7.5 2.5t5 0q21 -18 24.5 -61t10.5 -54q2 -9 -2 -51.5t-14 -48.5q1 -1 3 -2.5t3 -1.5q-14 -51 -16 -79q0 -2 18 -33t16 -57zM447 481l-3 10q-23 -1 -108 -114l-5 5q5 15 2 18q-14 -15 -16.5 -22.5
t2.5 -23.5q-23 -30 -42 -54q-10 -13 -36 -51.5t-32 -47.5q3 2 27 21t48 29q23 10 92 29q1 12 4.5 23t7.5 21.5t5 14.5l17 -15q5 14 11.5 42t14 63.5t11.5 51.5zM399 293h-11q-3 -8 0 -10t10 -1zM398 299l-1 10l-4 1l-4 -11h9zM363 55l-6 -3l-4 -13h6zM222 129q-7 1 -10 2.5
t-13 -3t-14.5 -6.5t-14.5 -8t-13 -7q-4 -5 -11 -18zM234 135q3 2 16 8t19 10v1q-31 -1 -35 -19zM434 463l-8 -31h-9l8 27zM167 125q29 14 33 24q-4 -1 -10.5 -3t-10.5 -4zM631 657q-4 -15 -16.5 -21.5t-15.5 -10.5q-33 13 -55 54.5t-34 53.5q-42 -11 -108.5 -59.5
t-77.5 -48.5q-6 0 -14.5 7t-22.5 21t-24 22q12 20 -2 39q31 28 101.5 68.5t115.5 60.5l14 -10l15 7q34 -38 116 -164l-11 -9z" />
    <glyph glyph-name="Atilde" unicode="&#xc3;" 
d="M528 195q-9 -1 -27.5 -4t-26.5 -4q-1 -3 -7.5 -36t-18.5 -45q10 -7 7 -21t-14 -24q6 -9 4.5 -22t-15.5 -32q0 -2 1 -2q6 1 10 5q-2 -38 -20 -91q-16 0 -41.5 13.5t-33.5 10.5q1 16 -2.5 22t-13.5 6l1 14q9 0 10 10q-9 0 -9 10q1 13 9.5 41.5t10.5 40.5q8 0 6 -28
q5 0 11.5 22.5t8.5 41.5l-12 5q-2 -34 -10 -34q-1 0 -3 1q1 7 4 31t5 30l17 -21q0 5 1.5 13.5t0.5 16.5q-38 1 -123 -39t-130 -71l-5 -13l4 -12q-5 -11 -15.5 -34t-18 -38.5t-14.5 -24.5l-63 27q-1 14 -21 35t-14 35h-16q8 53 42.5 117t70 110t91.5 114t79 98q56 74 133 135
q1 1 18.5 2.5t18.5 12.5q34 -11 56 -28l-18 -6q0 -5 2.5 -6.5t6 -0.5t8 2.5l7.5 2.5t5 0q21 -18 24.5 -61t10.5 -54q2 -9 -2 -51.5t-14 -48.5q1 -1 3 -2.5t3 -1.5q-14 -51 -16 -79q0 -2 18 -33t16 -57zM447 481l-3 10q-23 -1 -108 -114l-5 5q5 15 2 18q-14 -15 -16.5 -22.5
t2.5 -23.5q-23 -30 -42 -54q-10 -13 -36 -51.5t-32 -47.5q3 2 27 21t48 29q23 10 92 29q1 12 4.5 23t7.5 21.5t5 14.5l17 -15q5 14 11.5 42t14 63.5t11.5 51.5zM399 293h-11q-3 -8 0 -10t10 -1zM398 299l-1 10l-4 1l-4 -11h9zM363 55l-6 -3l-4 -13h6zM222 129q-7 1 -10 2.5
t-13 -3t-14.5 -6.5t-14.5 -8t-13 -7q-4 -5 -11 -18zM234 135q3 2 16 8t19 10v1q-31 -1 -35 -19zM434 463l-8 -31h-9l8 27zM167 125q29 14 33 24q-4 -1 -10.5 -3t-10.5 -4zM671 713q-45 -70 -107 -70q-34 0 -52.5 15.5t-29 38t-17.5 28.5q-30 -8 -69.5 -36.5t-61.5 -52.5
q-21 6 -31 17t-9.5 22.5t0.5 24.5q36 33 31 45l-8.5 -8.5t-9 -8.5t-8.5 -6.5t-8 -3t-7 3.5q8 7 32 29.5t38.5 34.5t36.5 23.5t41 11.5q21 0 33 -16q16 0 25 -10.5t13 -23.5t18 -23.5t39 -10.5q8 0 17.5 3t15.5 5.5t19 9.5t17 9q-5 -10 -5 -19l16 4l3 -5l-14 -11
q3 -2 20 -6.5t22 -13.5z" />
    <glyph glyph-name="Adieresis" unicode="&#xc4;" 
d="M528 195q-9 -1 -27.5 -4t-26.5 -4q-1 -3 -7.5 -36t-18.5 -45q10 -7 7 -21t-14 -24q6 -9 4.5 -22t-15.5 -32q0 -2 1 -2q6 1 10 5q-2 -38 -20 -91q-16 0 -41.5 13.5t-33.5 10.5q1 16 -2.5 22t-13.5 6l1 14q9 0 10 10q-9 0 -9 10q1 13 9.5 41.5t10.5 40.5q8 0 6 -28
q5 0 11.5 22.5t8.5 41.5l-12 5q-2 -34 -10 -34q-1 0 -3 1q1 7 4 31t5 30l17 -21q0 5 1.5 13.5t0.5 16.5q-38 1 -123 -39t-130 -71l-5 -13l4 -12q-5 -11 -15.5 -34t-18 -38.5t-14.5 -24.5l-63 27q-1 14 -21 35t-14 35h-16q8 53 42.5 117t70 110t91.5 114t79 98q56 74 133 135
q1 1 18.5 2.5t18.5 12.5q34 -11 56 -28l-18 -6q0 -5 2.5 -6.5t6 -0.5t8 2.5l7.5 2.5t5 0q21 -18 24.5 -61t10.5 -54q2 -9 -2 -51.5t-14 -48.5q1 -1 3 -2.5t3 -1.5q-14 -51 -16 -79q0 -2 18 -33t16 -57zM447 481l-3 10q-23 -1 -108 -114l-5 5q5 15 2 18q-14 -15 -16.5 -22.5
t2.5 -23.5q-23 -30 -42 -54q-10 -13 -36 -51.5t-32 -47.5q3 2 27 21t48 29q23 10 92 29q1 12 4.5 23t7.5 21.5t5 14.5l17 -15q5 14 11.5 42t14 63.5t11.5 51.5zM399 293h-11q-3 -8 0 -10t10 -1zM398 299l-1 10l-4 1l-4 -11h9zM363 55l-6 -3l-4 -13h6zM222 129q-7 1 -10 2.5
t-13 -3t-14.5 -6.5t-14.5 -8t-13 -7q-4 -5 -11 -18zM234 135q3 2 16 8t19 10v1q-31 -1 -35 -19zM434 463l-8 -31h-9l8 27zM167 125q29 14 33 24q-4 -1 -10.5 -3t-10.5 -4zM650 733q-18 -11 -44 -44t-44 -45q-28 0 -44.5 23.5t-8.5 47.5h-15q2 23 25 69t54 46q35 0 56 -24.5
t21 -72.5zM436 715l-88 -90l-15 8l7 30q-25 55 -22 92q-12 7 -12 20q0 20 19.5 37.5t39.5 17.5q31 0 51 -31.5t20 -83.5z" />
    <glyph glyph-name="Aring" unicode="&#xc5;" 
d="M528 195q-9 -1 -27.5 -4t-26.5 -4q-1 -3 -7.5 -36t-18.5 -45q10 -7 7 -21t-14 -24q6 -9 4.5 -22t-15.5 -32q0 -2 1 -2q6 1 10 5q-2 -38 -20 -91q-16 0 -41.5 13.5t-33.5 10.5q1 16 -2.5 22t-13.5 6l1 14q9 0 10 10q-9 0 -9 10q1 13 9.5 41.5t10.5 40.5q8 0 6 -28
q5 0 11.5 22.5t8.5 41.5l-12 5q-2 -34 -10 -34q-1 0 -3 1q1 7 4 31t5 30l17 -21q0 5 1.5 13.5t0.5 16.5q-38 1 -123 -39t-130 -71l-5 -13l4 -12q-5 -11 -15.5 -34t-18 -38.5t-14.5 -24.5l-63 27q-1 14 -21 35t-14 35h-16q8 53 42.5 117t70 110t91.5 114t79 98q56 74 133 135
q1 1 18.5 2.5t18.5 12.5q34 -11 56 -28l-18 -6q0 -5 2.5 -6.5t6 -0.5t8 2.5l7.5 2.5t5 0q21 -18 24.5 -61t10.5 -54q2 -9 -2 -51.5t-14 -48.5q1 -1 3 -2.5t3 -1.5q-14 -51 -16 -79q0 -2 18 -33t16 -57zM447 481l-3 10q-23 -1 -108 -114l-5 5q5 15 2 18q-14 -15 -16.5 -22.5
t2.5 -23.5q-23 -30 -42 -54q-10 -13 -36 -51.5t-32 -47.5q3 2 27 21t48 29q23 10 92 29q1 12 4.5 23t7.5 21.5t5 14.5l17 -15q5 14 11.5 42t14 63.5t11.5 51.5zM399 293h-11q-3 -8 0 -10t10 -1zM398 299l-1 10l-4 1l-4 -11h9zM363 55l-6 -3l-4 -13h6zM222 129q-7 1 -10 2.5
t-13 -3t-14.5 -6.5t-14.5 -8t-13 -7q-4 -5 -11 -18zM234 135q3 2 16 8t19 10v1q-31 -1 -35 -19zM431 662l-12 -24q-35 6 -54.5 37t-19.5 69q28 41 67 75h23q6 10 -3 15q46 32 87 37q12 -15 22 -9q3 2 3 7q34 -7 63 -35.5t29 -73.5l-12 -15q0 -48 -33.5 -73.5t-118.5 -44.5
q-34 23 -41 35zM561 788q-28 12 -90 -20.5t-62 -63.5q0 -10 17 -29h1q-3 13 3 36q82 10 116 37zM434 463l-8 -31h-9l8 27zM167 125q29 14 33 24q-4 -1 -10.5 -3t-10.5 -4z" />
    <glyph glyph-name="AE" unicode="&#xc6;" horiz-adv-x="891" 
d="M399 176q-39 -1 -133.5 -44t-136.5 -72l-5 -13l4 -12q-5 -11 -15.5 -34t-18 -38.5t-14.5 -24.5l-58 24q-1 14 -24 35.5t-17 35.5h-16q8 53 42.5 117.5t70.5 110.5t92 114.5t79 98.5q54 72 134 135q1 1 18.5 2.5t18.5 12.5q46 -14 62 -28l-18 -6q0 -5 2.5 -6.5t6 -0.5
t8 2.5l7.5 2.5t5 0q13 -12 18.5 -28.5t7 -39t3.5 -30.5h3q4 38 19 61q21 -3 42 14.5t38.5 36t31.5 18.5q24 0 83 -18q3 -29 -17 -71q3 0 37 -3t47 -3l10 -19q2 0 10 3t14 3t25 -5.5t25 -6.5q6 0 2 -4q-13 -12 -27 -18t-22 -6.5t-11.5 -5t-1.5 -14.5q4 1 35.5 12.5t47.5 19.5
q1 0 4.5 3t4.5 2.5t2 -2.5q1 -4 -2.5 -8t-11.5 -9t-11 -7q-52 -24 -147 -42.5t-121 -26.5q-5 -7 -18 -28.5t-19 -29.5q123 28 143 28q21 0 31.5 -8.5t27.5 -36.5q-6 -17 10 -25l-5 -21q-58 -5 -138.5 -22.5t-117.5 -32.5q-16 -7 -32 -62.5t-16 -78.5q31 -23 107 -5l6 -10
q5 0 10.5 4t6.5 8q7 1 17 -9.5t17 -8.5q6 2 192 60q7 2 8 -1q1 -4 -21 -16l-68 -25q10 -8 24 -15q5 -2 -2 -4q-67 -23 -168 -48q23 -11 56 -2q41 11 144 47q6 2 6.5 0.5t-1.5 -6.5q-9 -15 -29 -22q-141 -55 -209 -55q-91 0 -145 47t-51 148q0 2 1 6t1 6zM399 304l-1 10l-4 1
l-4 -11h9zM400 298h-11q-3 -8 0 -10t10 -1zM448 486l-3 10q-23 -1 -108 -114l-5 5q5 15 2 18q-14 -15 -16.5 -22.5t2.5 -23.5q-22 -30 -42 -54q-10 -13 -36 -51.5t-32 -47.5q3 2 27 21t48 29q23 10 92 29q1 12 4.5 23t7.5 21.5t5 14.5l17 -15q5 14 11.5 42t14 63.5
t11.5 51.5zM490 110l-8 9q-8 -26 4 -35zM841 490q0 3 -7.5 4.5t-12.5 -0.5l2 -12zM223 134q-7 1 -10 2.5t-13 -3t-14.5 -6.5t-14.5 -8t-13 -7q-4 -5 -11 -18zM235 140q3 2 16 8t19 10v1q-31 -1 -35 -19zM614 393l-13 -3l-17 -27l13 3zM588 354q-6 0 -14.5 -9t-11.5 -18l15 4
zM435 468l-8 -31h-9l8 27zM168 130q29 14 33 24q-4 -1 -10.5 -3t-10.5 -4zM500 193l-1 -11q17 21 20 26q-17 2 -19 -15zM508 176h-10l-11 -36l8 -9zM792 118q-20 -22 -57 -20q-23 -17 -44 -23t-31 7q62 13 129 40q3 1 4 -0.5t-1 -3.5z" />
    <glyph glyph-name="Ccedilla" unicode="&#xc7;" horiz-adv-x="534" 
d="M269 -114q0 -82 -108 -147h-25l10 -9q-7 -4 -21 -11q-7 9 -15 6t-10 -17q-4 -2 -9.5 -4t-12.5 -4.5t-11 -3.5q15 29 11 36q-2 5 -10 9q1 1 16 12.5t20 16t18.5 16t20 18.5t14.5 16.5t11.5 17.5t3.5 15q-8 7 -23.5 15.5t-25.5 17.5t-13 24l45 70q-6 2 -7 2
q-10 0 -27.5 11.5t-34.5 9.5q-12 11 -33 44.5t-31 51.5q-7 11 -7 34v27q17 15 17 56l10 -6q4 6 3 18t1 18q19 37 42 73t32 36q6 0 3.5 -7.5t4.5 -7.5q6 0 22 26t21 26h12q-3 6 -5 28h7q18 43 119.5 109.5t132.5 66.5q15 0 51 -19q4 -9 16 -29t17 -36.5t2 -34.5
q-73 -18 -125 -55q-13 -9 -25 -20t-24 -22.5t-14 -13.5l-6 10q-4 -6 -13.5 -16t-18 -17.5t-23.5 -20.5t-22 -19q-3 -14 -7 -21q-31 -32 -74 -91.5t-43 -90.5q0 -19 16 -19q20 0 88 15t91 18q19 3 30 -10q-117 -24 -127 -42q15 -8 35 -4.5t32 15.5q146 28 171 31l16 -4l24 3
l11 -7l-52 -8q-28 -4 -18 -19l7 -10q-4 -2 -35 -11.5t-78 -24t-73 -22.5q-9 -3 -12.5 -9.5t0.5 -11.5l-34 -8l-10 -23q6 -5 23.5 -16.5t26.5 -22.5t9 -24zM387 22v-1q-40 -22 -54 -22q-7 0 -15 3q11 5 37 11.5t32 8.5zM291 -17q-5 0 -17 4l33 11q14 -10 -5 -14q-5 -1 -11 -1
zM127 331q-11 4 -18 -8l10 -6zM174 218l-9 5l-12 -19q-14 -25 -10 -32zM134 158h-10l-7 -14l6 -8zM495 74l-30 -10l-10 12l27 4zM356 118v1q91 15 112 16q-7 -23 -68 -23q-32 0 -44 6zM212 286l9 -6q21 21 21 29q-11 0 -30 -23zM216 274l-9 6l-6 -10l7 -6zM113 307l-8 9
l-14 -23l9 -7z" />
    <glyph glyph-name="Egrave" unicode="&#xc8;" horiz-adv-x="537" 
d="M570 491q1 -4 -3 -8t-12 -9t-11 -7q-53 -24 -151.5 -43.5t-120.5 -25.5q-27 -44 -42 -68q20 2 78.5 20t73.5 18q21 0 32 -9t27 -37q-6 -17 11 -26l-7 -22q-212 -35 -260 -56q-17 -7 -33 -62.5t-17 -81.5q32 -24 107 -6l6 -10q5 0 10.5 4t5.5 8q7 1 17 -9.5t17 -8.5
q33 9 192 60q7 2 8 -1q2 -4 -10 -10q-3 -2 -11 -6l-68 -25q13 -9 24 -15q5 -2 -2 -4q-67 -23 -168 -48q23 -11 56 -2q41 11 144 47q6 2 6.5 0.5t-1.5 -6.5q-9 -15 -28 -22q-143 -55 -210 -55q-201 0 -196 199q1 26 13 61.5t27 65.5t45.5 89.5t50.5 101.5q-8 42 14 76
q27 -3 63 34t51 37q23 0 85 -19q2 -34 -18 -72q38 -9 87 -9l9 -19q2 0 10.5 3t14.5 3t24.5 -5.5t24.5 -6.5q6 0 2 -4q-13 -12 -27 -18t-21.5 -6.5t-11 -5t-1.5 -14.5q9 4 38 14.5t45 17.5q1 0 4.5 3t4 2.5zM487 494q-1 3 -9 4.5t-12 -0.5l3 -12zM139 193v-11h1q16 22 18 26
q-16 1 -19 -15zM129 108l-8 10q-7 -30 3 -37zM563 647q-21 -9 -33 -6t-38 21q-1 -3 0.5 -7t7.5 -9t11 -8.5l15 -10.5t16 -11l-12 -7q-67 50 -154 89l-9 -6q-64 31 -129 54q0 29 29 58.5t51 29.5q44 0 121.5 -52t77.5 -85q24 -24 46 -50zM429 114q-19 -22 -57 -20
q-23 -17 -43.5 -23t-31.5 7q65 14 129 40q3 1 4 -0.5t-1 -3.5zM255 397l-13 -3l-17 -28l13 3zM219 352q-5 0 -13 -8.5t-10 -16.5l13 2zM147 176l-10 -1l-11 -37l7 -9z" />
    <glyph glyph-name="Eacute" unicode="&#xc9;" horiz-adv-x="537" 
d="M570 491q1 -4 -3 -8t-12 -9t-11 -7q-53 -24 -151.5 -43.5t-120.5 -25.5q-27 -44 -42 -68q20 2 78.5 20t73.5 18q21 0 32 -9t27 -37q-6 -17 11 -26l-7 -22q-212 -35 -260 -56q-17 -7 -33 -62.5t-17 -81.5q32 -24 107 -6l6 -10q5 0 10.5 4t5.5 8q7 1 17 -9.5t17 -8.5
q33 9 192 60q7 2 8 -1q2 -4 -10 -10q-3 -2 -11 -6l-68 -25q13 -9 24 -15q5 -2 -2 -4q-67 -23 -168 -48q23 -11 56 -2q41 11 144 47q6 2 6.5 0.5t-1.5 -6.5q-9 -15 -28 -22q-143 -55 -210 -55q-201 0 -196 199q1 26 13 61.5t27 65.5t45.5 89.5t50.5 101.5q-8 42 14 76
q27 -3 63 34t51 37q23 0 85 -19q2 -34 -18 -72q38 -9 87 -9l9 -19q2 0 10.5 3t14.5 3t24.5 -5.5t24.5 -6.5q6 0 2 -4q-13 -12 -27 -18t-21.5 -6.5t-11 -5t-1.5 -14.5q9 4 38 14.5t45 17.5q1 0 4.5 3t4 2.5zM487 494q-1 3 -9 4.5t-12 -0.5l3 -12zM139 193v-11h1q16 22 18 26
q-16 1 -19 -15zM129 108l-8 10q-7 -30 3 -37zM429 114q-19 -22 -57 -20q-23 -17 -43.5 -23t-31.5 7q65 14 129 40q3 1 4 -0.5t-1 -3.5zM255 397l-13 -3l-17 -28l13 3zM219 352q-5 0 -13 -8.5t-10 -16.5l13 2zM147 176l-10 -1l-11 -37l7 -9zM581 781q0 -26 -24 -50t-58.5 -38
t-68 -22.5t-56.5 -8.5q-18 0 -28 7q-52 -6 -67 -7q12 16 16 33l38 14l-2 9q-51 -16 -58 -16q-9 0 -12 4q68 19 169 75v11q67 35 119 71q32 -23 32 -82z" />
    <glyph glyph-name="Ecircumflex" unicode="&#xca;" horiz-adv-x="537" 
d="M570 491q1 -4 -3 -8t-12 -9t-11 -7q-53 -24 -151.5 -43.5t-120.5 -25.5q-27 -44 -42 -68q20 2 78.5 20t73.5 18q21 0 32 -9t27 -37q-6 -17 11 -26l-7 -22q-212 -35 -260 -56q-17 -7 -33 -62.5t-17 -81.5q32 -24 107 -6l6 -10q5 0 10.5 4t5.5 8q7 1 17 -9.5t17 -8.5
q33 9 192 60q7 2 8 -1q2 -4 -10 -10q-3 -2 -11 -6l-68 -25q13 -9 24 -15q5 -2 -2 -4q-67 -23 -168 -48q23 -11 56 -2q41 11 144 47q6 2 6.5 0.5t-1.5 -6.5q-9 -15 -28 -22q-143 -55 -210 -55q-201 0 -196 199q1 26 13 61.5t27 65.5t45.5 89.5t50.5 101.5q-8 42 14 76
q27 -3 63 34t51 37q23 0 85 -19q2 -34 -18 -72q38 -9 87 -9l9 -19q2 0 10.5 3t14.5 3t24.5 -5.5t24.5 -6.5q6 0 2 -4q-13 -12 -27 -18t-21.5 -6.5t-11 -5t-1.5 -14.5q9 4 38 14.5t45 17.5q1 0 4.5 3t4 2.5zM487 494q-1 3 -9 4.5t-12 -0.5l3 -12zM139 193v-11h1q16 22 18 26
q-16 1 -19 -15zM129 108l-8 10q-7 -30 3 -37zM429 114q-19 -22 -57 -20q-23 -17 -43.5 -23t-31.5 7q65 14 129 40q3 1 4 -0.5t-1 -3.5zM255 397l-13 -3l-17 -28l13 3zM219 352q-5 0 -13 -8.5t-10 -16.5l13 2zM147 176l-10 -1l-11 -37l7 -9zM545 677q-4 -15 -16.5 -21.5
t-15.5 -10.5q-33 13 -55 54.5t-34 53.5q-42 -11 -108.5 -59.5t-77.5 -48.5q-6 0 -14.5 7t-22.5 21t-24 22q12 20 -2 39q31 28 101.5 68.5t115.5 60.5l14 -10l15 7q34 -38 116 -164l-11 -9z" />
    <glyph glyph-name="Edieresis" unicode="&#xcb;" horiz-adv-x="537" 
d="M570 491q1 -4 -3 -8t-12 -9t-11 -7q-53 -24 -151.5 -43.5t-120.5 -25.5q-27 -44 -42 -68q20 2 78.5 20t73.5 18q21 0 32 -9t27 -37q-6 -17 11 -26l-7 -22q-212 -35 -260 -56q-17 -7 -33 -62.5t-17 -81.5q32 -24 107 -6l6 -10q5 0 10.5 4t5.5 8q7 1 17 -9.5t17 -8.5
q33 9 192 60q7 2 8 -1q2 -4 -10 -10q-3 -2 -11 -6l-68 -25q13 -9 24 -15q5 -2 -2 -4q-67 -23 -168 -48q23 -11 56 -2q41 11 144 47q6 2 6.5 0.5t-1.5 -6.5q-9 -15 -28 -22q-143 -55 -210 -55q-201 0 -196 199q1 26 13 61.5t27 65.5t45.5 89.5t50.5 101.5q-8 42 14 76
q27 -3 63 34t51 37q23 0 85 -19q2 -34 -18 -72q38 -9 87 -9l9 -19q2 0 10.5 3t14.5 3t24.5 -5.5t24.5 -6.5q6 0 2 -4q-13 -12 -27 -18t-21.5 -6.5t-11 -5t-1.5 -14.5q9 4 38 14.5t45 17.5q1 0 4.5 3t4 2.5zM487 494q-1 3 -9 4.5t-12 -0.5l3 -12zM139 193v-11h1q16 22 18 26
q-16 1 -19 -15zM129 108l-8 10q-7 -30 3 -37zM429 114q-19 -22 -57 -20q-23 -17 -43.5 -23t-31.5 7q65 14 129 40q3 1 4 -0.5t-1 -3.5zM255 397l-13 -3l-17 -28l13 3zM219 352q-5 0 -13 -8.5t-10 -16.5l13 2zM147 176l-10 -1l-11 -37l7 -9zM538 733q-18 -11 -44 -44t-44 -45
q-28 0 -44.5 23.5t-8.5 47.5h-15q2 23 25 69t54 46q35 0 56 -24.5t21 -72.5zM324 715l-88 -90l-15 8l7 30q-25 55 -22 92q-12 7 -12 20q0 20 19.5 37.5t39.5 17.5q31 0 51 -31.5t20 -83.5z" />
    <glyph glyph-name="Igrave" unicode="&#xcc;" horiz-adv-x="360" 
d="M385 547q0 -39 -9 -93h-11q-9 -13 -23 -43.5t-30 -54.5t-36 -35l4 -12l-39 -22q-18 -25 -31 -54t-28 -73t-19 -55q-1 -2 -3 -5.5t-3.5 -6.5t-2 -6.5t0.5 -6t5 -3.5q3 -1 11 23q7 17 20.5 55.5t26.5 68t29 47.5q11 3 3 -9l-1 -1q-16 -26 -29 -58t-27.5 -73.5t-24.5 -65.5
q-31 -73 -22 -110q-27 9 -50 22v32q-10 -8 -11 -24q-37 28 -55 75q0 63 32 147t68 147.5t89 148.5t69 115q10 14 30 14q5 0 31 -7v-24q15 -6 25.5 -21.5t10.5 -31.5zM153 60q-5 5 -7.5 5.5t-3 -1.5t-0.5 -4.5v-4.5l-11 -27q-2 -6 3 -7q2 -1 5 4zM507 647q-21 -9 -33 -6
t-38 21q-1 -3 0.5 -7t7.5 -9t11 -8.5l15 -10.5t16 -11l-12 -7q-67 50 -154 89l-9 -6q-64 31 -129 54q0 29 29 58.5t51 29.5q44 0 121.5 -52t77.5 -85q24 -24 46 -50z" />
    <glyph glyph-name="Iacute" unicode="&#xcd;" horiz-adv-x="360" 
d="M385 547q0 -39 -9 -93h-11q-9 -13 -23 -43.5t-30 -54.5t-36 -35l4 -12l-39 -22q-18 -25 -31 -54t-28 -73t-19 -55q-1 -2 -3 -5.5t-3.5 -6.5t-2 -6.5t0.5 -6t5 -3.5q3 -1 11 23q7 17 20.5 55.5t26.5 68t29 47.5q11 3 3 -9l-1 -1q-16 -26 -29 -58t-27.5 -73.5t-24.5 -65.5
q-31 -73 -22 -110q-27 9 -50 22v32q-10 -8 -11 -24q-37 28 -55 75q0 63 32 147t68 147.5t89 148.5t69 115q10 14 30 14q5 0 31 -7v-24q15 -6 25.5 -21.5t10.5 -31.5zM153 60q-5 5 -7.5 5.5t-3 -1.5t-0.5 -4.5v-4.5l-11 -27q-2 -6 3 -7q2 -1 5 4zM595 786q0 -26 -24 -50
t-58.5 -38t-68 -22.5t-56.5 -8.5q-18 0 -28 7q-52 -6 -67 -7q12 16 16 33l38 14l-2 9q-51 -16 -58 -16q-9 0 -12 4q68 19 169 75v11q67 35 119 71q32 -23 32 -82z" />
    <glyph glyph-name="Icircumflex" unicode="&#xce;" horiz-adv-x="360" 
d="M385 547q0 -39 -9 -93h-11q-9 -13 -23 -43.5t-30 -54.5t-36 -35l4 -12l-39 -22q-18 -25 -31 -54t-28 -73t-19 -55q-1 -2 -3 -5.5t-3.5 -6.5t-2 -6.5t0.5 -6t5 -3.5q3 -1 11 23q7 17 20.5 55.5t26.5 68t29 47.5q11 3 3 -9l-1 -1q-16 -26 -29 -58t-27.5 -73.5t-24.5 -65.5
q-31 -73 -22 -110q-27 9 -50 22v32q-10 -8 -11 -24q-37 28 -55 75q0 63 32 147t68 147.5t89 148.5t69 115q10 14 30 14q5 0 31 -7v-24q15 -6 25.5 -21.5t10.5 -31.5zM153 60q-5 5 -7.5 5.5t-3 -1.5t-0.5 -4.5v-4.5l-11 -27q-2 -6 3 -7q2 -1 5 4zM531 657q-4 -15 -16.5 -21.5
t-15.5 -10.5q-33 13 -55 54.5t-34 53.5q-42 -11 -108.5 -59.5t-77.5 -48.5q-6 0 -14.5 7t-22.5 21t-24 22q12 20 -2 39q31 28 101.5 68.5t115.5 60.5l14 -10l15 7q34 -38 116 -164l-11 -9z" />
    <glyph glyph-name="Idieresis" unicode="&#xcf;" horiz-adv-x="360" 
d="M385 547q0 -39 -9 -93h-11q-9 -13 -23 -43.5t-30 -54.5t-36 -35l4 -12l-39 -22q-18 -25 -31 -54t-28 -73t-19 -55q-1 -2 -3 -5.5t-3.5 -6.5t-2 -6.5t0.5 -6t5 -3.5q3 -1 11 23q7 17 20.5 55.5t26.5 68t29 47.5q11 3 3 -9l-1 -1q-16 -26 -29 -58t-27.5 -73.5t-24.5 -65.5
q-31 -73 -22 -110q-27 9 -50 22v32q-10 -8 -11 -24q-37 28 -55 75q0 63 32 147t68 147.5t89 148.5t69 115q10 14 30 14q5 0 31 -7v-24q15 -6 25.5 -21.5t10.5 -31.5zM153 60q-5 5 -7.5 5.5t-3 -1.5t-0.5 -4.5v-4.5l-11 -27q-2 -6 3 -7q2 -1 5 4zM541 733q-18 -11 -44 -44
t-44 -45q-28 0 -44.5 23.5t-8.5 47.5h-15q2 23 25 69t54 46q35 0 56 -24.5t21 -72.5zM327 715l-88 -90l-15 8l7 30q-25 55 -22 92q-12 7 -12 20q0 20 19.5 37.5t39.5 17.5q31 0 51 -31.5t20 -83.5z" />
    <glyph glyph-name="Eth" unicode="&#xd0;" horiz-adv-x="729" 
d="M724 379q-8 -12 -19.5 -30.5t-18.5 -29.5t-16.5 -22.5t-18 -16.5t-17.5 -4l14 17q-7 4 -15 -1t-24 -20.5t-24 -21.5l15 -3q-138 -120 -356 -247l-19 -16q-9 0 -22.5 -5.5t-20.5 -5.5q-27 0 -44.5 17.5t-31 44t-21.5 34.5l2 46h24q20 0 32 16q5 12 10 50.5t10 53.5
q-47 -6 -63 -8q-1 28 -33 36q2 29 11 54q35 30 117 39q27 66 27 85q1 14 -17 38.5t-18 37.5q0 9 9 16.5t18.5 11t26 8.5t22.5 8l10 -9q17 17 32.5 47t30 47t38.5 17q6 0 27.5 -31t21.5 -41q-1 -5 -6 -15.5t-5 -14.5q12 -3 55 -4t70 -9q-7 -13 7.5 -12.5t18.5 10.5
q4 -4 13.5 -7t24 -6.5t21.5 -5.5q24 -8 42.5 -21.5t28 -26.5t16.5 -33t9 -31t5 -29q1 -5 1 -7zM666 314l-14 3l-8 -11l14 -4zM622 447q-165 -2 -262 -27q-17 -40 -24 -65q26 -3 51 -2l20 -31q28 6 59 -14q-85 -31 -154 -45q-17 -54 -25 -96q11 8 46 28t69 42t56 42
q9 -5 15 -4l-6 13l8 7q4 -7 12 -7q18 0 64 61q20 -5 47.5 33t23.5 65zM534 208v1q-20 -2 -57 -27q-30 -22 -88 -60q0 -12 -9 -19q-10 10 -31 -7q10 0 24 -7q30 21 85.5 63t75.5 56zM570 239l-9 4l-32 -23q12 -6 21 2zM291 42v-1l50 30q-6 9 -1 17v1q-11 -7 -27 -22.5
t-22 -24.5zM276 44l-31 -19v-9l27 15z" />
    <glyph glyph-name="Ntilde" unicode="&#xd1;" horiz-adv-x="753" 
d="M522 365q81 125 155 197q18 11 52 13q56 2 81 -16l-20 -14l2 -4q17 0 32 10l28 -30q-43 -20 -101.5 -67t-94.5 -96q-3 -5 -8 -1.5t-8 1.5q-1 -13 -5.5 -25t-9.5 -20t-15.5 -23.5t-16.5 -24.5q-2 -4 -4 -16.5t-5 -19.5q0 -3 -8 -9.5t-10 -11.5q-11 -35 -91 -239l-45 21
l-6 -14q-45 12 -58.5 33t-20.5 76q-1 10 0.5 48t-2.5 45q-11 31 -11 56.5t3 50.5t1 44l-5 39q-53 -17 -92 -87l3 -16q-17 -32 -65.5 -141t-74.5 -143h-28q-17 0 -35.5 36t-21.5 37l-6 44q-3 7 -1 20t2 15t4.5 12.5t5.5 13.5q15 36 32 68.5t39 64.5t36.5 53t43 52t38 41.5
t41 42.5t34.5 35q28 -10 72.5 -42t53.5 -57q5 -13 11 -35.5t13 -55t10 -43.5q53 92 113.5 179.5t76.5 93.5l21 3q-18 -17 -34.5 -36.5t-31.5 -40t-25 -34t-23 -33.5t-16 -24q-13 -21 -11 -22zM665 400q1 1 -0.5 3.5t-3.5 3t-3 -0.5q-22 -34 -14 -38zM645 517q3 -6 8 -5
l17 22l-8 4q-8 -7 -17 -21zM779 538l-19 -14l2 -9q2 1 7 4t6.5 4.5t3 5.5t0.5 9zM584 208l-5 -34l-9 6q1 8 1 11.5t1.5 9t4.5 7.5t7 0zM691 436q1 1 0 3.5t-2.5 3.5t-4.5 -2l-20 -26q7 1 9 -5zM289 486l-8 6l-22 -23q3 -5 8.5 -2.5t8 4.5t7.5 8t6 7zM743 688
q-45 -70 -107 -70q-34 0 -52.5 15.5t-29 38t-17.5 28.5q-30 -8 -69.5 -36.5t-61.5 -52.5q-21 6 -31 17t-9.5 22.5t0.5 24.5q36 33 31 45l-8.5 -8.5t-9 -8.5t-8.5 -6.5t-8 -3t-7 3.5q8 7 32 29.5t38.5 34.5t36.5 23.5t41 11.5q21 0 33 -16q16 0 25 -10.5t13 -23.5t18 -23.5
t39 -10.5q8 0 17.5 3t15.5 5.5t19 9.5t17 9q-5 -10 -5 -19l16 4l3 -5l-14 -11q3 -2 20 -6.5t22 -13.5z" />
    <glyph glyph-name="Ograve" unicode="&#xd2;" horiz-adv-x="654" 
d="M624 300q0 -27 -13.5 -56.5t-39.5 -50.5q4 -7 -0.5 -14t-12.5 -7l-7 13q-15 -4 -8 -17q-9 0 -19 -6t-10 -14q0 -7 -4 -9.5t-13 -2.5t-12 -1q-8 -8 -32 -40l-11 10q-13 -8 -19 -20.5t-20 -19.5q-9 -5 -29.5 -7.5t-23.5 -3.5q-1 -1 1 -3t4.5 -4t2.5 -4l-18 -6l-28 17
q-7 -5 -10 -20.5t-14 -19.5q-8 -3 -31.5 -11t-39.5 -13q-22 22 -51 0q-51 32 -104 77q-32 25 -32 116q0 69 32 134.5t79.5 112t101 82.5t97.5 53.5t68 17.5q10 0 20 -4t15.5 -7.5t19 -14.5t19.5 -16q0 -50 90 -111q52 -35 52 -130zM365 68q0 10 -15 10q0 -1 -1 -4l-1.5 -4.5
t0.5 -3.5q4 -3 17 2zM519 333l-56 65q-1 4 -2 6t-2 4.5t-2 2l-3 -1.5q-6 -6 -11 -6q-3 0 -6 2t-5 4l-1 2q-40 0 -98 -39t-89 -88q-65 -31 -103 -149q55 5 71 11l180 75q59 23 82 53zM409 97l-5 10q-14 -7 -19.5 -12t-4.5 -13zM192 258l23 28q-10 6 -21.5 -0.5t-13.5 -15.5
q0 -11 12 -12zM189 13l30 -5q-7 11 -18 11q-8 -2 -12 -6zM440 115q-1 1 -3.5 8t-4.5 8l-16 -17l4 -11zM628 617q-21 -9 -33 -6t-38 21q-1 -3 0.5 -7t7.5 -9t11 -8.5l15 -10.5t16 -11l-12 -7q-67 50 -154 89l-9 -6q-64 31 -129 54q0 29 29 58.5t51 29.5q44 0 121.5 -52
t77.5 -85q24 -24 46 -50z" />
    <glyph glyph-name="Oacute" unicode="&#xd3;" horiz-adv-x="654" 
d="M624 300q0 -27 -13.5 -56.5t-39.5 -50.5q4 -7 -0.5 -14t-12.5 -7l-7 13q-15 -4 -8 -17q-9 0 -19 -6t-10 -14q0 -7 -4 -9.5t-13 -2.5t-12 -1q-8 -8 -32 -40l-11 10q-13 -8 -19 -20.5t-20 -19.5q-9 -5 -29.5 -7.5t-23.5 -3.5q-1 -1 1 -3t4.5 -4t2.5 -4l-18 -6l-28 17
q-7 -5 -10 -20.5t-14 -19.5q-8 -3 -31.5 -11t-39.5 -13q-22 22 -51 0q-51 32 -104 77q-32 25 -32 116q0 69 32 134.5t79.5 112t101 82.5t97.5 53.5t68 17.5q10 0 20 -4t15.5 -7.5t19 -14.5t19.5 -16q0 -50 90 -111q52 -35 52 -130zM365 68q0 10 -15 10q0 -1 -1 -4l-1.5 -4.5
t0.5 -3.5q4 -3 17 2zM519 333l-56 65q-1 4 -2 6t-2 4.5t-2 2l-3 -1.5q-6 -6 -11 -6q-3 0 -6 2t-5 4l-1 2q-40 0 -98 -39t-89 -88q-65 -31 -103 -149q55 5 71 11l180 75q59 23 82 53zM409 97l-5 10q-14 -7 -19.5 -12t-4.5 -13zM192 258l23 28q-10 6 -21.5 -0.5t-13.5 -15.5
q0 -11 12 -12zM189 13l30 -5q-7 11 -18 11q-8 -2 -12 -6zM440 115q-1 1 -3.5 8t-4.5 8l-16 -17l4 -11zM666 756q0 -26 -24 -50t-58.5 -38t-68 -22.5t-56.5 -8.5q-17 0 -28 7q-52 -6 -67 -7q12 16 16 33l38 14l-2 9q-51 -16 -58 -16q-9 0 -12 4q68 19 169 75v11q67 35 119 71
q32 -23 32 -82z" />
    <glyph glyph-name="Ocircumflex" unicode="&#xd4;" horiz-adv-x="654" 
d="M624 300q0 -27 -13.5 -56.5t-39.5 -50.5q4 -7 -0.5 -14t-12.5 -7l-7 13q-15 -4 -8 -17q-9 0 -19 -6t-10 -14q0 -7 -4 -9.5t-13 -2.5t-12 -1q-8 -8 -32 -40l-11 10q-13 -8 -19 -20.5t-20 -19.5q-9 -5 -29.5 -7.5t-23.5 -3.5q-1 -1 1 -3t4.5 -4t2.5 -4l-18 -6l-28 17
q-7 -5 -10 -20.5t-14 -19.5q-8 -3 -31.5 -11t-39.5 -13q-22 22 -51 0q-51 32 -104 77q-32 25 -32 116q0 69 32 134.5t79.5 112t101 82.5t97.5 53.5t68 17.5q10 0 20 -4t15.5 -7.5t19 -14.5t19.5 -16q0 -50 90 -111q52 -35 52 -130zM365 68q0 10 -15 10q0 -1 -1 -4l-1.5 -4.5
t0.5 -3.5q4 -3 17 2zM519 333l-56 65q-1 4 -2 6t-2 4.5t-2 2l-3 -1.5q-6 -6 -11 -6q-3 0 -6 2t-5 4l-1 2q-40 0 -98 -39t-89 -88q-65 -31 -103 -149q55 5 71 11l180 75q59 23 82 53zM409 97l-5 10q-14 -7 -19.5 -12t-4.5 -13zM192 258l23 28q-10 6 -21.5 -0.5t-13.5 -15.5
q0 -11 12 -12zM189 13l30 -5q-7 11 -18 11q-8 -2 -12 -6zM440 115q-1 1 -3.5 8t-4.5 8l-16 -17l4 -11zM635 657q-4 -15 -16.5 -21.5t-15.5 -10.5q-33 13 -55 54.5t-34 53.5q-42 -11 -108.5 -59.5t-77.5 -48.5q-6 0 -14.5 7t-22.5 21t-24 22q12 20 -2 39q31 28 101.5 68.5
t115.5 60.5l14 -10l15 7q34 -38 116 -164l-11 -9z" />
    <glyph glyph-name="Otilde" unicode="&#xd5;" horiz-adv-x="654" 
d="M624 300q0 -27 -13.5 -56.5t-39.5 -50.5q4 -7 -0.5 -14t-12.5 -7l-7 13q-15 -4 -8 -17q-9 0 -19 -6t-10 -14q0 -7 -4 -9.5t-13 -2.5t-12 -1q-8 -8 -32 -40l-11 10q-13 -8 -19 -20.5t-20 -19.5q-9 -5 -29.5 -7.5t-23.5 -3.5q-1 -1 1 -3t4.5 -4t2.5 -4l-18 -6l-28 17
q-7 -5 -10 -20.5t-14 -19.5q-8 -3 -31.5 -11t-39.5 -13q-22 22 -51 0q-51 32 -104 77q-32 25 -32 116q0 69 32 134.5t79.5 112t101 82.5t97.5 53.5t68 17.5q10 0 20 -4t15.5 -7.5t19 -14.5t19.5 -16q0 -50 90 -111q52 -35 52 -130zM365 68q0 10 -15 10q0 -1 -1 -4l-1.5 -4.5
t0.5 -3.5q4 -3 17 2zM519 333l-56 65q-1 4 -2 6t-2 4.5t-2 2l-3 -1.5q-6 -6 -11 -6q-3 0 -6 2t-5 4l-1 2q-40 0 -98 -39t-89 -88q-65 -31 -103 -149q55 5 71 11l180 75q59 23 82 53zM409 97l-5 10q-14 -7 -19.5 -12t-4.5 -13zM192 258l23 28q-10 6 -21.5 -0.5t-13.5 -15.5
q0 -11 12 -12zM189 13l30 -5q-7 11 -18 11q-8 -2 -12 -6zM440 115q-1 1 -3.5 8t-4.5 8l-16 -17l4 -11zM668 693q-45 -70 -107 -70q-34 0 -52.5 15.5t-29 38t-17.5 28.5q-30 -8 -69.5 -36.5t-61.5 -52.5q-21 6 -31 17t-9.5 22.5t0.5 24.5q36 33 31 45l-8.5 -8.5t-9 -8.5
t-8.5 -6.5t-8 -3t-7 3.5q8 7 32 29.5t38.5 34.5t36.5 23.5t41 11.5q21 0 33 -16q16 0 25 -10.5t13 -23.5t18 -23.5t39 -10.5q8 0 17.5 3t15.5 5.5t19 9.5t17 9q-5 -10 -5 -19l16 4l3 -5l-14 -11q3 -2 20 -6.5t22 -13.5z" />
    <glyph glyph-name="Odieresis" unicode="&#xd6;" horiz-adv-x="654" 
d="M624 300q0 -27 -13.5 -56.5t-39.5 -50.5q4 -7 -0.5 -14t-12.5 -7l-7 13q-15 -4 -8 -17q-9 0 -19 -6t-10 -14q0 -7 -4 -9.5t-13 -2.5t-12 -1q-8 -8 -32 -40l-11 10q-13 -8 -19 -20.5t-20 -19.5q-9 -5 -29.5 -7.5t-23.5 -3.5q-1 -1 1 -3t4.5 -4t2.5 -4l-18 -6l-28 17
q-7 -5 -10 -20.5t-14 -19.5q-8 -3 -31.5 -11t-39.5 -13q-22 22 -51 0q-51 32 -104 77q-32 25 -32 116q0 69 32 134.5t79.5 112t101 82.5t97.5 53.5t68 17.5q10 0 20 -4t15.5 -7.5t19 -14.5t19.5 -16q0 -50 90 -111q52 -35 52 -130zM365 68q0 10 -15 10q0 -1 -1 -4l-1.5 -4.5
t0.5 -3.5q4 -3 17 2zM519 333l-56 65q-1 4 -2 6t-2 4.5t-2 2l-3 -1.5q-6 -6 -11 -6q-3 0 -6 2t-5 4l-1 2q-40 0 -98 -39t-89 -88q-65 -31 -103 -149q55 5 71 11l180 75q59 23 82 53zM409 97l-5 10q-14 -7 -19.5 -12t-4.5 -13zM192 258l23 28q-10 6 -21.5 -0.5t-13.5 -15.5
q0 -11 12 -12zM189 13l30 -5q-7 11 -18 11q-8 -2 -12 -6zM440 115q-1 1 -3.5 8t-4.5 8l-16 -17l4 -11zM658 718q-18 -11 -44 -44t-44 -45q-28 0 -44.5 23.5t-8.5 47.5h-15q2 23 25 69t54 46q35 0 56 -24.5t21 -72.5zM444 700l-88 -90l-15 8l7 30q-25 55 -22 92q-12 7 -12 20
q0 20 19.5 37.5t39.5 17.5q31 0 51 -31.5t20 -83.5z" />
    <glyph glyph-name="multiply" unicode="&#xd7;" horiz-adv-x="625" 
d="M525 391q0 -9 -10 -23.5t-34 -37.5t-42 -38.5t-55 -47.5t-52 -45q49 -99 148 -143l-5 -13q-7 3 -26 -2.5t-23 -5.5q-45 0 -96 26.5t-70 71.5q-4 -5 -11.5 -13.5t-10.5 -12.5q-9 1 -21 -5t-32 -22.5t-26 -20.5q-10 -7 -24.5 -14t-20 -11t-3.5 -12l-32 -34q-8 40 0 66
t34 48q0 22 12 37l13 -8q8 11 39 31v23q34 27 45 37q-51 110 -51 150q0 70 29 70q32 0 61 -14t29 -35q0 -31 14 -80q6 6 29.5 31t34 35.5t30.5 29t39 32.5q3 -2 29.5 -11t42.5 -18.5t16 -20.5zM104 110l-24 -16q11 24 24 33v-17z" />
    <glyph glyph-name="Oslash" unicode="&#xd8;" horiz-adv-x="662" 
d="M587 234l-4 -21q-2 -2 -29 -19t-32 -34q-12 0 -22 -5t-9 -16l-38 -8q-4 -3 1.5 -8.5t-3.5 -12.5q-5 -4 -27 -5t-26 -6q-1 -1 1 -3t4.5 -4t2.5 -4l-18 -6l-28 17q-7 -5 -10 -20.5t-14 -19.5q-14 -5 -38 -13.5t-34 -11.5q-13 -19 -82 -117v-17q-18 -25 -40.5 -51.5
t-31.5 -26.5q-4 0 -4 7t1 17.5t1 14.5q5 14 17 44l-6 8l22 39l3 -2q12 30 41 91q-50 25 -95 52q-38 22 -55 106q-12 63 9 125t62 106.5t90 80.5t91.5 54.5t67.5 19.5q9 0 16.5 -1t16.5 -5t14.5 -7t18 -10.5t19.5 -11.5q4 -20 26 -42q10 14 22 29.5t26.5 35t23.5 30.5l77 57
q47 -1 74 -14l9 -27l-19 -13l5 -12l19 8l4 -10q-87 -77 -147 -142q57 -32 73 -114q5 -26 -7.5 -59t-38.5 -43zM420 443q-7 5 -13 5q-44 -2 -100.5 -47.5t-81.5 -99.5q-60 -35 -78 -156q58 7 77 16l30 15q73 134 166 267zM172 271l20 31q-12 6 -23.5 -1t-11.5 -17
q-1 -5 3 -8.5t12 -4.5zM445 153l-30 -14l10 -11q25 15 20 25zM413 116q0 10 -15 10q0 -1 -1 -4l-1.5 -4.5t0.5 -3.5q4 -3 17 2zM529 378l-19 14q-30 -37 -50 -66l-13 -3q-31 -54 -46 -77l9 4q19 8 44 26.5t36 36.5zM203 -35v15l-21 -35v-11zM488 160q-3 3 -5 12
q-23 -8 -22 -26z" />
    <glyph glyph-name="Ugrave" unicode="&#xd9;" horiz-adv-x="655" 
d="M685 473l-14 -50q-22 2 -31 -11q-7 -9 7 -18q3 -2 2.5 -6.5t-5 -8t-10.5 -3.5l-14 7q-6 -11 -10 -19.5t-7.5 -17.5t-3.5 -14.5t5 -5.5l-11 -21q-6 0 -10 -3t-10 -11t-12.5 -18.5t-20 -30t-30.5 -39.5l8 -10q40 51 69 99q9 -11 2 -24q-40 -73 -90.5 -128.5t-95 -84.5
t-91.5 -47.5t-75.5 -23t-51.5 -4.5q-5 0 -8 5q0 5 -7 5q-5 0 -5.5 -1t-0.5 -4q2 -5 -5 -5q-10 0 -19 5t-13.5 10t-12.5 16t-10 13l-11 -5q-58 35 -58 117q0 60 27 119q27 58 88 201t70 163q17 14 31 14q22 -1 61 -103l14 10v-23q-43 -78 -97 -197q-8 13 -1 27q7 2 1 7.5
t-9 0.5q-14 -18 -10 -42.5t1 -31.5q-1 -2 -6 -13t-8 -18q-13 6 -24 -17q7 -3 18 4h1q-5 -11 -21 -48q-7 10 2 29l-6 6q-18 -34 -18 -45t13 -12q-8 -20 -11 -28q59 0 110 18t87 45.5t71 73t57.5 86t51.5 99.5q2 5 13 6.5t15 3.5q9 5 3 10q-6 3 -14 2q29 66 40 109q2 11 16 11
q3 0 22 -15q11 -9 29 -16q6 -13 8 -51q2 -46 25 -48zM254 420l-25 -41q-3 -6 -2 -7l13 -8q8 11 14.5 30t-0.5 26zM226 12q2 0 23 3q-10 18 -32 14q-14 -3 -7 -11q5 -6 16 -6zM511 184l-10 10q-28 -28 -18 -41zM426 94q-11 0 -21 -4t-27 -15.5t-28 -17.5l2 -10q40 19 74 47z
M339 40q-4 9 -19 5q-3 -1 -16.5 -3.5t-18.5 -7.5t-4 -15q27 5 58 21zM570 657q-21 -9 -33 -6t-38 21q-1 -3 0.5 -7t7.5 -9t11 -8.5l15 -10.5t16 -11l-12 -7q-67 50 -154 89l-9 -6q-64 31 -129 54q0 29 29 58.5t51 29.5q44 0 121.5 -52t77.5 -85q24 -24 46 -50z" />
    <glyph glyph-name="Uacute" unicode="&#xda;" horiz-adv-x="655" 
d="M685 473l-14 -50q-22 2 -31 -11q-7 -9 7 -18q3 -2 2.5 -6.5t-5 -8t-10.5 -3.5l-14 7q-6 -11 -10 -19.5t-7.5 -17.5t-3.5 -14.5t5 -5.5l-11 -21q-6 0 -10 -3t-10 -11t-12.5 -18.5t-20 -30t-30.5 -39.5l8 -10q40 51 69 99q9 -11 2 -24q-40 -73 -90.5 -128.5t-95 -84.5
t-91.5 -47.5t-75.5 -23t-51.5 -4.5q-5 0 -8 5q0 5 -7 5q-5 0 -5.5 -1t-0.5 -4q2 -5 -5 -5q-10 0 -19 5t-13.5 10t-12.5 16t-10 13l-11 -5q-58 35 -58 117q0 60 27 119q27 58 88 201t70 163q17 14 31 14q22 -1 61 -103l14 10v-23q-43 -78 -97 -197q-8 13 -1 27q7 2 1 7.5
t-9 0.5q-14 -18 -10 -42.5t1 -31.5q-1 -2 -6 -13t-8 -18q-13 6 -24 -17q7 -3 18 4h1q-5 -11 -21 -48q-7 10 2 29l-6 6q-18 -34 -18 -45t13 -12q-8 -20 -11 -28q59 0 110 18t87 45.5t71 73t57.5 86t51.5 99.5q2 5 13 6.5t15 3.5q9 5 3 10q-6 3 -14 2q29 66 40 109q2 11 16 11
q3 0 22 -15q11 -9 29 -16q6 -13 8 -51q2 -46 25 -48zM254 420l-25 -41q-3 -6 -2 -7l13 -8q8 11 14.5 30t-0.5 26zM226 12q2 0 23 3q-10 18 -32 14q-14 -3 -7 -11q5 -6 16 -6zM511 184l-10 10q-28 -28 -18 -41zM426 94q-11 0 -21 -4t-27 -15.5t-28 -17.5l2 -10q40 19 74 47z
M339 40q-4 9 -19 5q-3 -1 -16.5 -3.5t-18.5 -7.5t-4 -15q27 5 58 21zM666 756q0 -26 -24 -50t-58.5 -38t-68 -22.5t-56.5 -8.5q-17 0 -28 7q-52 -6 -67 -7q12 16 16 33l38 14l-2 9q-51 -16 -58 -16q-9 0 -12 4q68 19 169 75v11q67 35 119 71q32 -23 32 -82z" />
    <glyph glyph-name="Ucircumflex" unicode="&#xdb;" horiz-adv-x="655" 
d="M685 473l-14 -50q-22 2 -31 -11q-7 -9 7 -18q3 -2 2.5 -6.5t-5 -8t-10.5 -3.5l-14 7q-6 -11 -10 -19.5t-7.5 -17.5t-3.5 -14.5t5 -5.5l-11 -21q-6 0 -10 -3t-10 -11t-12.5 -18.5t-20 -30t-30.5 -39.5l8 -10q40 51 69 99q9 -11 2 -24q-40 -73 -90.5 -128.5t-95 -84.5
t-91.5 -47.5t-75.5 -23t-51.5 -4.5q-5 0 -8 5q0 5 -7 5q-5 0 -5.5 -1t-0.5 -4q2 -5 -5 -5q-10 0 -19 5t-13.5 10t-12.5 16t-10 13l-11 -5q-58 35 -58 117q0 60 27 119q27 58 88 201t70 163q17 14 31 14q22 -1 61 -103l14 10v-23q-43 -78 -97 -197q-8 13 -1 27q7 2 1 7.5
t-9 0.5q-14 -18 -10 -42.5t1 -31.5q-1 -2 -6 -13t-8 -18q-13 6 -24 -17q7 -3 18 4h1q-5 -11 -21 -48q-7 10 2 29l-6 6q-18 -34 -18 -45t13 -12q-8 -20 -11 -28q59 0 110 18t87 45.5t71 73t57.5 86t51.5 99.5q2 5 13 6.5t15 3.5q9 5 3 10q-6 3 -14 2q29 66 40 109q2 11 16 11
q3 0 22 -15q11 -9 29 -16q6 -13 8 -51q2 -46 25 -48zM254 420l-25 -41q-3 -6 -2 -7l13 -8q8 11 14.5 30t-0.5 26zM226 12q2 0 23 3q-10 18 -32 14q-14 -3 -7 -11q5 -6 16 -6zM511 184l-10 10q-28 -28 -18 -41zM426 94q-11 0 -21 -4t-27 -15.5t-28 -17.5l2 -10q40 19 74 47z
M339 40q-4 9 -19 5q-3 -1 -16.5 -3.5t-18.5 -7.5t-4 -15q27 5 58 21zM687 682q-4 -15 -16.5 -21.5t-15.5 -10.5q-33 13 -55 54.5t-34 53.5q-42 -11 -108.5 -59.5t-77.5 -48.5q-6 0 -14.5 7t-22.5 21t-24 22q12 20 -2 39q31 28 101.5 68.5t115.5 60.5l14 -10l15 7
q34 -38 116 -164l-11 -9z" />
    <glyph glyph-name="Udieresis" unicode="&#xdc;" horiz-adv-x="655" 
d="M685 473l-14 -50q-22 2 -31 -11q-7 -9 7 -18q3 -2 2.5 -6.5t-5 -8t-10.5 -3.5l-14 7q-6 -11 -10 -19.5t-7.5 -17.5t-3.5 -14.5t5 -5.5l-11 -21q-6 0 -10 -3t-10 -11t-12.5 -18.5t-20 -30t-30.5 -39.5l8 -10q40 51 69 99q9 -11 2 -24q-40 -73 -90.5 -128.5t-95 -84.5
t-91.5 -47.5t-75.5 -23t-51.5 -4.5q-5 0 -8 5q0 5 -7 5q-5 0 -5.5 -1t-0.5 -4q2 -5 -5 -5q-10 0 -19 5t-13.5 10t-12.5 16t-10 13l-11 -5q-58 35 -58 117q0 60 27 119q27 58 88 201t70 163q17 14 31 14q22 -1 61 -103l14 10v-23q-43 -78 -97 -197q-8 13 -1 27q7 2 1 7.5
t-9 0.5q-14 -18 -10 -42.5t1 -31.5q-1 -2 -6 -13t-8 -18q-13 6 -24 -17q7 -3 18 4h1q-5 -11 -21 -48q-7 10 2 29l-6 6q-18 -34 -18 -45t13 -12q-8 -20 -11 -28q59 0 110 18t87 45.5t71 73t57.5 86t51.5 99.5q2 5 13 6.5t15 3.5q9 5 3 10q-6 3 -14 2q29 66 40 109q2 11 16 11
q3 0 22 -15q11 -9 29 -16q6 -13 8 -51q2 -46 25 -48zM254 420l-25 -41q-3 -6 -2 -7l13 -8q8 11 14.5 30t-0.5 26zM226 12q2 0 23 3q-10 18 -32 14q-14 -3 -7 -11q5 -6 16 -6zM511 184l-10 10q-28 -28 -18 -41zM426 94q-11 0 -21 -4t-27 -15.5t-28 -17.5l2 -10q40 19 74 47z
M339 40q-4 9 -19 5q-3 -1 -16.5 -3.5t-18.5 -7.5t-4 -15q27 5 58 21zM696 733q-18 -11 -44 -44t-44 -45q-28 0 -44.5 23.5t-8.5 47.5h-15q2 23 25 69t54 46q35 0 56 -24.5t21 -72.5zM482 715l-88 -90l-15 8l7 30q-25 55 -22 92q-12 7 -12 20q0 20 19.5 37.5t39.5 17.5
q31 0 51 -31.5t20 -83.5z" />
    <glyph glyph-name="Yacute" unicode="&#xdd;" horiz-adv-x="572" 
d="M388 117l-7 -7l-14 13q-5 -4 -7 -5.5t-5.5 -6.5t-4 -8.5t1.5 -10t7 -13.5q-10 -15 -24 -43q-13 -6 -24 -17l8 -20l-4 -7l-12 16q-24 -32 -32 -83l19 -9q-5 -20 -7 -45q-12 -6 -31 -6q-44 0 -74 26q-1 14 -14 14q-12 15 -10 21q9 46 56.5 145.5t64.5 146.5l-7 6
q-44 0 -83 19q-7 -11 -18 0l-66 65h-12q-29 42 -28 94t18 94.5t49 96.5l14 -6q3 8 6 11q5 5 9 5q8 0 81 -32l16 -28q-4 -27 -26 -70t-25 -73l-15 -12q-10 -58 21 -98q48 -4 86.5 14.5t62.5 52.5l106 149l8 -13l40 58q10 15 25 3q36 29 66 14q-1 -9 3.5 -13.5t17.5 -5.5
q17 -23 23 -59q-14 -36 -47 -73q-7 1 -13 1t-10 -0.5t-8.5 -3.5t-6.5 -4t-5 -6.5t-4 -7t-4.5 -9t-4.5 -9.5l14 -7q-79 -83 -91 -119l-14 13q0 -18 -7 -33t-22 -34.5t-16 -21.5q-3 -5 -4.5 -11t-1.5 -14t-1 -12l-10 7q2 12 -4 17q-10 -17 -10.5 -23t11.5 -23zM280 -90l-11 5
l-3 -17l8 -4zM572 386l-6 12q15 15 26 10q-12 -14 -20 -22zM364 73l10 -9q-6 -12 -19 -7zM306 -36l-14 -40q-10 7 -5 21.5t18 19.5zM648 756q0 -26 -24 -50t-58.5 -38t-68 -22.5t-56.5 -8.5q-17 0 -28 7q-52 -6 -67 -7q12 16 16 33l38 14l-2 9q-51 -16 -58 -16q-9 0 -12 4
q68 19 169 75v11q67 35 119 71q32 -23 32 -82z" />
    <glyph glyph-name="Thorn" unicode="&#xde;" horiz-adv-x="523" 
d="M492 328q0 -14 -0.5 -24t-4.5 -20.5t-6 -17t-11 -16t-12.5 -14t-18.5 -15.5t-21 -15.5t-27.5 -19t-31.5 -21.5l-8 8q-11 -7 -29 -18t-29.5 -18t-28.5 -16.5t-26.5 -13.5t-23.5 -9.5t-19.5 -3.5t-15.5 4l-27 -73q-5 0 -5 13t-3 13q-4 0 -11 -14.5t-13.5 -36t-6.5 -37.5h15
q-16 -37 -19 -68q-3 1 -15 5.5t-19 7.5t-16.5 7.5t-16.5 9.5t-11 11q-21 32 -21 79q15 42 122 283q-3 2 -31 34q0 5 5 12.5t3 11.5q-1 3 -8 5t-7 6q0 7 11.5 15.5t20.5 10.5v15q37 -6 67.5 28t45.5 77.5t29 81t22 37.5q1 0 3.5 -0.5t3.5 -0.5q9 3 14.5 0.5t19.5 -9.5t27 -9
q1 -5 8 -23.5t8 -29.5q-2 -8 -22 -62t-25 -76q53 -2 83 -7q42 -6 62 -26t20 -61zM297 158q-7 6 -10.5 4.5t-10 -5.5t-12.5 -4h-14q-9 0 -16 -8t-9 -19q33 10 72 32zM147 12l-14 -38l-10 3q1 2 3 8.5t3.5 9.5l4 8t6 7t7.5 2zM426 237l-7 5l-17 -13q6 -8 24 8zM398 226
l-63 -37l7 -7q6 4 16.5 10l17.5 10t13.5 9t8.5 8.5t0 6.5zM327 174q-7 7 -28 -5l6 -7z" />
    <glyph glyph-name="germandbls" unicode="&#xdf;" horiz-adv-x="1030" 
d="M468 589l-1 -12q26 -7 39.5 -28.5t11.5 -50.5q7 -6 7 -14q0 -16 -22 -33.5t-50 -23.5q-10 14 -6.5 19.5t8 10.5t0.5 9q-74 0 -123 -17t-116 -65v-15l42 -30q10 -7 53.5 -32.5t61.5 -44.5l11 7q47 -51 44 -95l-6 -80l-17 4q-40 -55 -146 -102q-23 10 -35.5 5.5
t-11.5 -24.5q-72 -27 -109 -27q-21 0 -62 39q-28 6 -38 20t-6 30q-22 30 -22 46q0 27 33 52q5 -4 18 -18t24 -22.5t19 -8.5q40 0 100 22t104 61v10q-8 8 -22 26.5t-23.5 26.5t-17.5 3q-23 30 -33.5 38.5t-23.5 -0.5q-41 35 -46 64q-2 11 -7 31.5t-7.5 35t-2.5 23.5
q3 40 50 78.5t114.5 62t130.5 23.5q50 0 83 -4zM494 421l-9 7l25 17q0 -11 -12 -21q-3 -2 -4 -3zM290 443v1q-73 -22 -74 -42zM200 -17v12l-35 -15l5 -7zM983 589l-1 -12q26 -7 39.5 -28.5t11.5 -50.5q7 -6 7 -14q0 -16 -22 -33.5t-50 -23.5q-10 14 -6.5 19.5t8 10.5t0.5 9
q-74 0 -123 -17t-116 -65v-15l42 -30q10 -7 53.5 -32.5t61.5 -44.5l11 7q47 -51 44 -95l-6 -80l-17 4q-40 -55 -146 -102q-23 10 -35.5 5.5t-11.5 -24.5q-72 -27 -109 -27q-21 0 -62 39q-28 6 -38 20t-6 30q-22 30 -22 46q0 27 33 52q5 -4 18 -18t24 -22.5t19 -8.5
q40 0 100 22t104 61v10q-8 8 -22 26.5t-23.5 26.5t-17.5 3q-23 30 -33.5 38.5t-23.5 -0.5q-41 35 -46 64q-2 11 -7 31.5t-7.5 35t-2.5 23.5q3 40 50 78.5t114.5 62t130.5 23.5q50 0 83 -4zM1009 421l-9 7l25 17q0 -11 -12 -21q-3 -2 -4 -3zM805 443v1q-73 -22 -74 -42z
M715 -17v12l-35 -15l5 -7z" />
    <glyph glyph-name="agrave" unicode="&#xe0;" 
d="M528 195q-9 -1 -27.5 -4t-26.5 -4q-1 -3 -7.5 -36t-18.5 -45q10 -7 7 -21t-14 -24q6 -9 4.5 -22t-15.5 -32q0 -2 1 -2q6 1 10 5q-2 -38 -20 -91q-16 0 -41.5 13.5t-33.5 10.5q1 16 -2.5 22t-13.5 6l1 14q9 0 10 10q-9 0 -9 10q1 13 9.5 41.5t10.5 40.5q8 0 6 -28
q5 0 11.5 22.5t8.5 41.5l-12 5q-2 -34 -10 -34q-1 0 -3 1q1 7 4 31t5 30l17 -21q0 5 1.5 13.5t0.5 16.5q-38 1 -123 -39t-130 -71l-5 -13l4 -12q-5 -11 -15.5 -34t-18 -38.5t-14.5 -24.5l-63 27q-1 14 -21 35t-14 35h-16q8 53 42.5 117t70 110t91.5 114t79 98q56 74 133 135
q1 1 18.5 2.5t18.5 12.5q34 -11 56 -28l-18 -6q0 -5 2.5 -6.5t6 -0.5t8 2.5l7.5 2.5t5 0q21 -18 24.5 -61t10.5 -54q2 -9 -2 -51.5t-14 -48.5q1 -1 3 -2.5t3 -1.5q-14 -51 -16 -79q0 -2 18 -33t16 -57zM447 481l-3 10q-23 -1 -108 -114l-5 5q5 15 2 18q-14 -15 -16.5 -22.5
t2.5 -23.5q-23 -30 -42 -54q-10 -13 -36 -51.5t-32 -47.5q3 2 27 21t48 29q23 10 92 29q1 12 4.5 23t7.5 21.5t5 14.5l17 -15q5 14 11.5 42t14 63.5t11.5 51.5zM399 293h-11q-3 -8 0 -10t10 -1zM398 299l-1 10l-4 1l-4 -11h9zM363 55l-6 -3l-4 -13h6zM222 129q-7 1 -10 2.5
t-13 -3t-14.5 -6.5t-14.5 -8t-13 -7q-4 -5 -11 -18zM234 135q3 2 16 8t19 10v1q-31 -1 -35 -19zM434 463l-8 -31h-9l8 27zM167 125q29 14 33 24q-4 -1 -10.5 -3t-10.5 -4zM629 647q-21 -9 -33 -6t-38 21q-1 -3 0.5 -7t7.5 -9t11 -8.5l15 -10.5t16 -11l-12 -7q-67 50 -154 89
l-9 -6q-64 31 -129 54q0 29 29 58.5t51 29.5q44 0 121.5 -52t77.5 -85q24 -24 46 -50z" />
    <glyph glyph-name="aacute" unicode="&#xe1;" 
d="M528 195q-9 -1 -27.5 -4t-26.5 -4q-1 -3 -7.5 -36t-18.5 -45q10 -7 7 -21t-14 -24q6 -9 4.5 -22t-15.5 -32q0 -2 1 -2q6 1 10 5q-2 -38 -20 -91q-16 0 -41.5 13.5t-33.5 10.5q1 16 -2.5 22t-13.5 6l1 14q9 0 10 10q-9 0 -9 10q1 13 9.5 41.5t10.5 40.5q8 0 6 -28
q5 0 11.5 22.5t8.5 41.5l-12 5q-2 -34 -10 -34q-1 0 -3 1q1 7 4 31t5 30l17 -21q0 5 1.5 13.5t0.5 16.5q-38 1 -123 -39t-130 -71l-5 -13l4 -12q-5 -11 -15.5 -34t-18 -38.5t-14.5 -24.5l-63 27q-1 14 -21 35t-14 35h-16q8 53 42.5 117t70 110t91.5 114t79 98q56 74 133 135
q1 1 18.5 2.5t18.5 12.5q34 -11 56 -28l-18 -6q0 -5 2.5 -6.5t6 -0.5t8 2.5l7.5 2.5t5 0q21 -18 24.5 -61t10.5 -54q2 -9 -2 -51.5t-14 -48.5q1 -1 3 -2.5t3 -1.5q-14 -51 -16 -79q0 -2 18 -33t16 -57zM447 481l-3 10q-23 -1 -108 -114l-5 5q5 15 2 18q-14 -15 -16.5 -22.5
t2.5 -23.5q-23 -30 -42 -54q-10 -13 -36 -51.5t-32 -47.5q3 2 27 21t48 29q23 10 92 29q1 12 4.5 23t7.5 21.5t5 14.5l17 -15q5 14 11.5 42t14 63.5t11.5 51.5zM399 293h-11q-3 -8 0 -10t10 -1zM398 299l-1 10l-4 1l-4 -11h9zM363 55l-6 -3l-4 -13h6zM222 129q-7 1 -10 2.5
t-13 -3t-14.5 -6.5t-14.5 -8t-13 -7q-4 -5 -11 -18zM234 135q3 2 16 8t19 10v1q-31 -1 -35 -19zM434 463l-8 -31h-9l8 27zM167 125q29 14 33 24q-4 -1 -10.5 -3t-10.5 -4zM650 776q0 -26 -24 -50t-58.5 -38t-68 -22.5t-56.5 -8.5q-18 0 -28 7q-52 -6 -67 -7q12 16 16 33
l38 14l-2 9q-51 -16 -58 -16q-9 0 -12 4q68 19 169 75v11q67 35 119 71q32 -23 32 -82z" />
    <glyph glyph-name="acircumflex" unicode="&#xe2;" 
d="M528 195q-9 -1 -27.5 -4t-26.5 -4q-1 -3 -7.5 -36t-18.5 -45q10 -7 7 -21t-14 -24q6 -9 4.5 -22t-15.5 -32q0 -2 1 -2q6 1 10 5q-2 -38 -20 -91q-16 0 -41.5 13.5t-33.5 10.5q1 16 -2.5 22t-13.5 6l1 14q9 0 10 10q-9 0 -9 10q1 13 9.5 41.5t10.5 40.5q8 0 6 -28
q5 0 11.5 22.5t8.5 41.5l-12 5q-2 -34 -10 -34q-1 0 -3 1q1 7 4 31t5 30l17 -21q0 5 1.5 13.5t0.5 16.5q-38 1 -123 -39t-130 -71l-5 -13l4 -12q-5 -11 -15.5 -34t-18 -38.5t-14.5 -24.5l-63 27q-1 14 -21 35t-14 35h-16q8 53 42.5 117t70 110t91.5 114t79 98q56 74 133 135
q1 1 18.5 2.5t18.5 12.5q34 -11 56 -28l-18 -6q0 -5 2.5 -6.5t6 -0.5t8 2.5l7.5 2.5t5 0q21 -18 24.5 -61t10.5 -54q2 -9 -2 -51.5t-14 -48.5q1 -1 3 -2.5t3 -1.5q-14 -51 -16 -79q0 -2 18 -33t16 -57zM447 481l-3 10q-23 -1 -108 -114l-5 5q5 15 2 18q-14 -15 -16.5 -22.5
t2.5 -23.5q-23 -30 -42 -54q-10 -13 -36 -51.5t-32 -47.5q3 2 27 21t48 29q23 10 92 29q1 12 4.5 23t7.5 21.5t5 14.5l17 -15q5 14 11.5 42t14 63.5t11.5 51.5zM399 293h-11q-3 -8 0 -10t10 -1zM398 299l-1 10l-4 1l-4 -11h9zM363 55l-6 -3l-4 -13h6zM222 129q-7 1 -10 2.5
t-13 -3t-14.5 -6.5t-14.5 -8t-13 -7q-4 -5 -11 -18zM234 135q3 2 16 8t19 10v1q-31 -1 -35 -19zM434 463l-8 -31h-9l8 27zM167 125q29 14 33 24q-4 -1 -10.5 -3t-10.5 -4zM631 657q-4 -15 -16.5 -21.5t-15.5 -10.5q-33 13 -55 54.5t-34 53.5q-42 -11 -108.5 -59.5
t-77.5 -48.5q-6 0 -14.5 7t-22.5 21t-24 22q12 20 -2 39q31 28 101.5 68.5t115.5 60.5l14 -10l15 7q34 -38 116 -164l-11 -9z" />
    <glyph glyph-name="atilde" unicode="&#xe3;" 
d="M528 195q-9 -1 -27.5 -4t-26.5 -4q-1 -3 -7.5 -36t-18.5 -45q10 -7 7 -21t-14 -24q6 -9 4.5 -22t-15.5 -32q0 -2 1 -2q6 1 10 5q-2 -38 -20 -91q-16 0 -41.5 13.5t-33.5 10.5q1 16 -2.5 22t-13.5 6l1 14q9 0 10 10q-9 0 -9 10q1 13 9.5 41.5t10.5 40.5q8 0 6 -28
q5 0 11.5 22.5t8.5 41.5l-12 5q-2 -34 -10 -34q-1 0 -3 1q1 7 4 31t5 30l17 -21q0 5 1.5 13.5t0.5 16.5q-38 1 -123 -39t-130 -71l-5 -13l4 -12q-5 -11 -15.5 -34t-18 -38.5t-14.5 -24.5l-63 27q-1 14 -21 35t-14 35h-16q8 53 42.5 117t70 110t91.5 114t79 98q56 74 133 135
q1 1 18.5 2.5t18.5 12.5q34 -11 56 -28l-18 -6q0 -5 2.5 -6.5t6 -0.5t8 2.5l7.5 2.5t5 0q21 -18 24.5 -61t10.5 -54q2 -9 -2 -51.5t-14 -48.5q1 -1 3 -2.5t3 -1.5q-14 -51 -16 -79q0 -2 18 -33t16 -57zM447 481l-3 10q-23 -1 -108 -114l-5 5q5 15 2 18q-14 -15 -16.5 -22.5
t2.5 -23.5q-23 -30 -42 -54q-10 -13 -36 -51.5t-32 -47.5q3 2 27 21t48 29q23 10 92 29q1 12 4.5 23t7.5 21.5t5 14.5l17 -15q5 14 11.5 42t14 63.5t11.5 51.5zM399 293h-11q-3 -8 0 -10t10 -1zM398 299l-1 10l-4 1l-4 -11h9zM363 55l-6 -3l-4 -13h6zM222 129q-7 1 -10 2.5
t-13 -3t-14.5 -6.5t-14.5 -8t-13 -7q-4 -5 -11 -18zM234 135q3 2 16 8t19 10v1q-31 -1 -35 -19zM434 463l-8 -31h-9l8 27zM167 125q29 14 33 24q-4 -1 -10.5 -3t-10.5 -4zM671 713q-45 -70 -107 -70q-34 0 -52.5 15.5t-29 38t-17.5 28.5q-30 -8 -69.5 -36.5t-61.5 -52.5
q-21 6 -31 17t-9.5 22.5t0.5 24.5q36 33 31 45l-8.5 -8.5t-9 -8.5t-8.5 -6.5t-8 -3t-7 3.5q8 7 32 29.5t38.5 34.5t36.5 23.5t41 11.5q21 0 33 -16q16 0 25 -10.5t13 -23.5t18 -23.5t39 -10.5q8 0 17.5 3t15.5 5.5t19 9.5t17 9q-5 -10 -5 -19l16 4l3 -5l-14 -11
q3 -2 20 -6.5t22 -13.5z" />
    <glyph glyph-name="adieresis" unicode="&#xe4;" 
d="M528 195q-9 -1 -27.5 -4t-26.5 -4q-1 -3 -7.5 -36t-18.5 -45q10 -7 7 -21t-14 -24q6 -9 4.5 -22t-15.5 -32q0 -2 1 -2q6 1 10 5q-2 -38 -20 -91q-16 0 -41.5 13.5t-33.5 10.5q1 16 -2.5 22t-13.5 6l1 14q9 0 10 10q-9 0 -9 10q1 13 9.5 41.5t10.5 40.5q8 0 6 -28
q5 0 11.5 22.5t8.5 41.5l-12 5q-2 -34 -10 -34q-1 0 -3 1q1 7 4 31t5 30l17 -21q0 5 1.5 13.5t0.5 16.5q-38 1 -123 -39t-130 -71l-5 -13l4 -12q-5 -11 -15.5 -34t-18 -38.5t-14.5 -24.5l-63 27q-1 14 -21 35t-14 35h-16q8 53 42.5 117t70 110t91.5 114t79 98q56 74 133 135
q1 1 18.5 2.5t18.5 12.5q34 -11 56 -28l-18 -6q0 -5 2.5 -6.5t6 -0.5t8 2.5l7.5 2.5t5 0q21 -18 24.5 -61t10.5 -54q2 -9 -2 -51.5t-14 -48.5q1 -1 3 -2.5t3 -1.5q-14 -51 -16 -79q0 -2 18 -33t16 -57zM447 481l-3 10q-23 -1 -108 -114l-5 5q5 15 2 18q-14 -15 -16.5 -22.5
t2.5 -23.5q-23 -30 -42 -54q-10 -13 -36 -51.5t-32 -47.5q3 2 27 21t48 29q23 10 92 29q1 12 4.5 23t7.5 21.5t5 14.5l17 -15q5 14 11.5 42t14 63.5t11.5 51.5zM399 293h-11q-3 -8 0 -10t10 -1zM398 299l-1 10l-4 1l-4 -11h9zM363 55l-6 -3l-4 -13h6zM222 129q-7 1 -10 2.5
t-13 -3t-14.5 -6.5t-14.5 -8t-13 -7q-4 -5 -11 -18zM234 135q3 2 16 8t19 10v1q-31 -1 -35 -19zM434 463l-8 -31h-9l8 27zM167 125q29 14 33 24q-4 -1 -10.5 -3t-10.5 -4zM650 733q-18 -11 -44 -44t-44 -45q-28 0 -44.5 23.5t-8.5 47.5h-15q2 23 25 69t54 46q35 0 56 -24.5
t21 -72.5zM436 715l-88 -90l-15 8l7 30q-25 55 -22 92q-12 7 -12 20q0 20 19.5 37.5t39.5 17.5q31 0 51 -31.5t20 -83.5z" />
    <glyph glyph-name="aring" unicode="&#xe5;" 
d="M528 195q-9 -1 -27.5 -4t-26.5 -4q-1 -3 -7.5 -36t-18.5 -45q10 -7 7 -21t-14 -24q6 -9 4.5 -22t-15.5 -32q0 -2 1 -2q6 1 10 5q-2 -38 -20 -91q-16 0 -41.5 13.5t-33.5 10.5q1 16 -2.5 22t-13.5 6l1 14q9 0 10 10q-9 0 -9 10q1 13 9.5 41.5t10.5 40.5q8 0 6 -28
q5 0 11.5 22.5t8.5 41.5l-12 5q-2 -34 -10 -34q-1 0 -3 1q1 7 4 31t5 30l17 -21q0 5 1.5 13.5t0.5 16.5q-38 1 -123 -39t-130 -71l-5 -13l4 -12q-5 -11 -15.5 -34t-18 -38.5t-14.5 -24.5l-63 27q-1 14 -21 35t-14 35h-16q8 53 42.5 117t70 110t91.5 114t79 98q56 74 133 135
q1 1 18.5 2.5t18.5 12.5q34 -11 56 -28l-18 -6q0 -5 2.5 -6.5t6 -0.5t8 2.5l7.5 2.5t5 0q21 -18 24.5 -61t10.5 -54q2 -9 -2 -51.5t-14 -48.5q1 -1 3 -2.5t3 -1.5q-14 -51 -16 -79q0 -2 18 -33t16 -57zM447 481l-3 10q-23 -1 -108 -114l-5 5q5 15 2 18q-14 -15 -16.5 -22.5
t2.5 -23.5q-23 -30 -42 -54q-10 -13 -36 -51.5t-32 -47.5q3 2 27 21t48 29q23 10 92 29q1 12 4.5 23t7.5 21.5t5 14.5l17 -15q5 14 11.5 42t14 63.5t11.5 51.5zM399 293h-11q-3 -8 0 -10t10 -1zM398 299l-1 10l-4 1l-4 -11h9zM363 55l-6 -3l-4 -13h6zM222 129q-7 1 -10 2.5
t-13 -3t-14.5 -6.5t-14.5 -8t-13 -7q-4 -5 -11 -18zM234 135q3 2 16 8t19 10v1q-31 -1 -35 -19zM431 662l-12 -24q-35 6 -54.5 37t-19.5 69q28 41 67 75h23q6 10 -3 15q46 32 87 37q12 -15 22 -9q3 2 3 7q34 -7 63 -35.5t29 -73.5l-12 -15q0 -48 -33.5 -73.5t-118.5 -44.5
q-34 23 -41 35zM561 788q-28 12 -90 -20.5t-62 -63.5q0 -10 17 -29h1q-3 13 3 36q82 10 116 37zM434 463l-8 -31h-9l8 27zM167 125q29 14 33 24q-4 -1 -10.5 -3t-10.5 -4z" />
    <glyph glyph-name="ae" unicode="&#xe6;" horiz-adv-x="891" 
d="M399 176q-39 -1 -133.5 -44t-136.5 -72l-5 -13l4 -12q-5 -11 -15.5 -34t-18 -38.5t-14.5 -24.5l-58 24q-1 14 -24 35.5t-17 35.5h-16q8 53 42.5 117.5t70.5 110.5t92 114.5t79 98.5q54 72 134 135q1 1 18.5 2.5t18.5 12.5q46 -14 62 -28l-18 -6q0 -5 2.5 -6.5t6 -0.5
t8 2.5l7.5 2.5t5 0q13 -12 18.5 -28.5t7 -39t3.5 -30.5h3q4 38 19 61q21 -3 42 14.5t38.5 36t31.5 18.5q24 0 83 -18q3 -29 -17 -71q3 0 37 -3t47 -3l10 -19q2 0 10 3t14 3t25 -5.5t25 -6.5q6 0 2 -4q-13 -12 -27 -18t-22 -6.5t-11.5 -5t-1.5 -14.5q4 1 35.5 12.5t47.5 19.5
q1 0 4.5 3t4.5 2.5t2 -2.5q1 -4 -2.5 -8t-11.5 -9t-11 -7q-52 -24 -147 -42.5t-121 -26.5q-5 -7 -18 -28.5t-19 -29.5q123 28 143 28q21 0 31.5 -8.5t27.5 -36.5q-6 -17 10 -25l-5 -21q-58 -5 -138.5 -22.5t-117.5 -32.5q-16 -7 -32 -62.5t-16 -78.5q31 -23 107 -5l6 -10
q5 0 10.5 4t6.5 8q7 1 17 -9.5t17 -8.5q6 2 192 60q7 2 8 -1q1 -4 -21 -16l-68 -25q10 -8 24 -15q5 -2 -2 -4q-67 -23 -168 -48q23 -11 56 -2q41 11 144 47q6 2 6.5 0.5t-1.5 -6.5q-9 -15 -29 -22q-141 -55 -209 -55q-91 0 -145 47t-51 148q0 2 1 6t1 6zM399 304l-1 10l-4 1
l-4 -11h9zM400 298h-11q-3 -8 0 -10t10 -1zM448 486l-3 10q-23 -1 -108 -114l-5 5q5 15 2 18q-14 -15 -16.5 -22.5t2.5 -23.5q-22 -30 -42 -54q-10 -13 -36 -51.5t-32 -47.5q3 2 27 21t48 29q23 10 92 29q1 12 4.5 23t7.5 21.5t5 14.5l17 -15q5 14 11.5 42t14 63.5
t11.5 51.5zM490 110l-8 9q-8 -26 4 -35zM841 490q0 3 -7.5 4.5t-12.5 -0.5l2 -12zM223 134q-7 1 -10 2.5t-13 -3t-14.5 -6.5t-14.5 -8t-13 -7q-4 -5 -11 -18zM235 140q3 2 16 8t19 10v1q-31 -1 -35 -19zM614 393l-13 -3l-17 -27l13 3zM588 354q-6 0 -14.5 -9t-11.5 -18l15 4
zM435 468l-8 -31h-9l8 27zM168 130q29 14 33 24q-4 -1 -10.5 -3t-10.5 -4zM500 193l-1 -11q17 21 20 26q-17 2 -19 -15zM508 176h-10l-11 -36l8 -9zM792 118q-20 -22 -57 -20q-23 -17 -44 -23t-31 7q62 13 129 40q3 1 4 -0.5t-1 -3.5z" />
    <glyph glyph-name="ccedilla" unicode="&#xe7;" horiz-adv-x="534" 
d="M269 -114q0 -82 -108 -147h-25l10 -9q-7 -4 -21 -11q-7 9 -15 6t-10 -17q-4 -2 -9.5 -4t-12.5 -4.5t-11 -3.5q15 29 11 36q-2 5 -10 9q1 1 16 12.5t20 16t18.5 16t20 18.5t14.5 16.5t11.5 17.5t3.5 15q-8 7 -23.5 15.5t-25.5 17.5t-13 24l45 70q-6 2 -7 2
q-10 0 -27.5 11.5t-34.5 9.5q-12 11 -33 44.5t-31 51.5q-7 11 -7 34v27q17 15 17 56l10 -6q4 6 3 18t1 18q19 37 42 73t32 36q6 0 3.5 -7.5t4.5 -7.5q6 0 22 26t21 26h12q-3 6 -5 28h7q18 43 119.5 109.5t132.5 66.5q15 0 51 -19q4 -9 16 -29t17 -36.5t2 -34.5
q-73 -18 -125 -55q-13 -9 -25 -20t-24 -22.5t-14 -13.5l-6 10q-4 -6 -13.5 -16t-18 -17.5t-23.5 -20.5t-22 -19q-3 -14 -7 -21q-31 -32 -74 -91.5t-43 -90.5q0 -19 16 -19q20 0 88 15t91 18q19 3 30 -10q-117 -24 -127 -42q15 -8 35 -4.5t32 15.5q146 28 171 31l16 -4l24 3
l11 -7l-52 -8q-28 -4 -18 -19l7 -10q-4 -2 -35 -11.5t-78 -24t-73 -22.5q-9 -3 -12.5 -9.5t0.5 -11.5l-34 -8l-10 -23q6 -5 23.5 -16.5t26.5 -22.5t9 -24zM387 22v-1q-40 -22 -54 -22q-7 0 -15 3q11 5 37 11.5t32 8.5zM291 -17q-5 0 -17 4l33 11q14 -10 -5 -14q-5 -1 -11 -1
zM127 331q-11 4 -18 -8l10 -6zM174 218l-9 5l-12 -19q-14 -25 -10 -32zM134 158h-10l-7 -14l6 -8zM495 74l-30 -10l-10 12l27 4zM356 118v1q91 15 112 16q-7 -23 -68 -23q-32 0 -44 6zM212 286l9 -6q21 21 21 29q-11 0 -30 -23zM216 274l-9 6l-6 -10l7 -6zM113 307l-8 9
l-14 -23l9 -7z" />
    <glyph glyph-name="egrave" unicode="&#xe8;" horiz-adv-x="537" 
d="M570 491q1 -4 -3 -8t-12 -9t-11 -7q-53 -24 -151.5 -43.5t-120.5 -25.5q-27 -44 -42 -68q20 2 78.5 20t73.5 18q21 0 32 -9t27 -37q-6 -17 11 -26l-7 -22q-212 -35 -260 -56q-17 -7 -33 -62.5t-17 -81.5q32 -24 107 -6l6 -10q5 0 10.5 4t5.5 8q7 1 17 -9.5t17 -8.5
q33 9 192 60q7 2 8 -1q2 -4 -10 -10q-3 -2 -11 -6l-68 -25q13 -9 24 -15q5 -2 -2 -4q-67 -23 -168 -48q23 -11 56 -2q41 11 144 47q6 2 6.5 0.5t-1.5 -6.5q-9 -15 -28 -22q-143 -55 -210 -55q-201 0 -196 199q1 26 13 61.5t27 65.5t45.5 89.5t50.5 101.5q-8 42 14 76
q27 -3 63 34t51 37q23 0 85 -19q2 -34 -18 -72q38 -9 87 -9l9 -19q2 0 10.5 3t14.5 3t24.5 -5.5t24.5 -6.5q6 0 2 -4q-13 -12 -27 -18t-21.5 -6.5t-11 -5t-1.5 -14.5q9 4 38 14.5t45 17.5q1 0 4.5 3t4 2.5zM487 494q-1 3 -9 4.5t-12 -0.5l3 -12zM139 193v-11h1q16 22 18 26
q-16 1 -19 -15zM129 108l-8 10q-7 -30 3 -37zM563 647q-21 -9 -33 -6t-38 21q-1 -3 0.5 -7t7.5 -9t11 -8.5l15 -10.5t16 -11l-12 -7q-67 50 -154 89l-9 -6q-64 31 -129 54q0 29 29 58.5t51 29.5q44 0 121.5 -52t77.5 -85q24 -24 46 -50zM429 114q-19 -22 -57 -20
q-23 -17 -43.5 -23t-31.5 7q65 14 129 40q3 1 4 -0.5t-1 -3.5zM255 397l-13 -3l-17 -28l13 3zM219 352q-5 0 -13 -8.5t-10 -16.5l13 2zM147 176l-10 -1l-11 -37l7 -9z" />
    <glyph glyph-name="eacute" unicode="&#xe9;" horiz-adv-x="537" 
d="M570 491q1 -4 -3 -8t-12 -9t-11 -7q-53 -24 -151.5 -43.5t-120.5 -25.5q-27 -44 -42 -68q20 2 78.5 20t73.5 18q21 0 32 -9t27 -37q-6 -17 11 -26l-7 -22q-212 -35 -260 -56q-17 -7 -33 -62.5t-17 -81.5q32 -24 107 -6l6 -10q5 0 10.5 4t5.5 8q7 1 17 -9.5t17 -8.5
q33 9 192 60q7 2 8 -1q2 -4 -10 -10q-3 -2 -11 -6l-68 -25q13 -9 24 -15q5 -2 -2 -4q-67 -23 -168 -48q23 -11 56 -2q41 11 144 47q6 2 6.5 0.5t-1.5 -6.5q-9 -15 -28 -22q-143 -55 -210 -55q-201 0 -196 199q1 26 13 61.5t27 65.5t45.5 89.5t50.5 101.5q-8 42 14 76
q27 -3 63 34t51 37q23 0 85 -19q2 -34 -18 -72q38 -9 87 -9l9 -19q2 0 10.5 3t14.5 3t24.5 -5.5t24.5 -6.5q6 0 2 -4q-13 -12 -27 -18t-21.5 -6.5t-11 -5t-1.5 -14.5q9 4 38 14.5t45 17.5q1 0 4.5 3t4 2.5zM487 494q-1 3 -9 4.5t-12 -0.5l3 -12zM139 193v-11h1q16 22 18 26
q-16 1 -19 -15zM129 108l-8 10q-7 -30 3 -37zM429 114q-19 -22 -57 -20q-23 -17 -43.5 -23t-31.5 7q65 14 129 40q3 1 4 -0.5t-1 -3.5zM255 397l-13 -3l-17 -28l13 3zM219 352q-5 0 -13 -8.5t-10 -16.5l13 2zM147 176l-10 -1l-11 -37l7 -9zM581 781q0 -26 -24 -50t-58.5 -38
t-68 -22.5t-56.5 -8.5q-18 0 -28 7q-52 -6 -67 -7q12 16 16 33l38 14l-2 9q-51 -16 -58 -16q-9 0 -12 4q68 19 169 75v11q67 35 119 71q32 -23 32 -82z" />
    <glyph glyph-name="ecircumflex" unicode="&#xea;" horiz-adv-x="537" 
d="M570 491q1 -4 -3 -8t-12 -9t-11 -7q-53 -24 -151.5 -43.5t-120.5 -25.5q-27 -44 -42 -68q20 2 78.5 20t73.5 18q21 0 32 -9t27 -37q-6 -17 11 -26l-7 -22q-212 -35 -260 -56q-17 -7 -33 -62.5t-17 -81.5q32 -24 107 -6l6 -10q5 0 10.5 4t5.5 8q7 1 17 -9.5t17 -8.5
q33 9 192 60q7 2 8 -1q2 -4 -10 -10q-3 -2 -11 -6l-68 -25q13 -9 24 -15q5 -2 -2 -4q-67 -23 -168 -48q23 -11 56 -2q41 11 144 47q6 2 6.5 0.5t-1.5 -6.5q-9 -15 -28 -22q-143 -55 -210 -55q-201 0 -196 199q1 26 13 61.5t27 65.5t45.5 89.5t50.5 101.5q-8 42 14 76
q27 -3 63 34t51 37q23 0 85 -19q2 -34 -18 -72q38 -9 87 -9l9 -19q2 0 10.5 3t14.5 3t24.5 -5.5t24.5 -6.5q6 0 2 -4q-13 -12 -27 -18t-21.5 -6.5t-11 -5t-1.5 -14.5q9 4 38 14.5t45 17.5q1 0 4.5 3t4 2.5zM487 494q-1 3 -9 4.5t-12 -0.5l3 -12zM139 193v-11h1q16 22 18 26
q-16 1 -19 -15zM129 108l-8 10q-7 -30 3 -37zM429 114q-19 -22 -57 -20q-23 -17 -43.5 -23t-31.5 7q65 14 129 40q3 1 4 -0.5t-1 -3.5zM255 397l-13 -3l-17 -28l13 3zM219 352q-5 0 -13 -8.5t-10 -16.5l13 2zM147 176l-10 -1l-11 -37l7 -9zM545 677q-4 -15 -16.5 -21.5
t-15.5 -10.5q-33 13 -55 54.5t-34 53.5q-42 -11 -108.5 -59.5t-77.5 -48.5q-6 0 -14.5 7t-22.5 21t-24 22q12 20 -2 39q31 28 101.5 68.5t115.5 60.5l14 -10l15 7q34 -38 116 -164l-11 -9z" />
    <glyph glyph-name="edieresis" unicode="&#xeb;" horiz-adv-x="537" 
d="M570 491q1 -4 -3 -8t-12 -9t-11 -7q-53 -24 -151.5 -43.5t-120.5 -25.5q-27 -44 -42 -68q20 2 78.5 20t73.5 18q21 0 32 -9t27 -37q-6 -17 11 -26l-7 -22q-212 -35 -260 -56q-17 -7 -33 -62.5t-17 -81.5q32 -24 107 -6l6 -10q5 0 10.5 4t5.5 8q7 1 17 -9.5t17 -8.5
q33 9 192 60q7 2 8 -1q2 -4 -10 -10q-3 -2 -11 -6l-68 -25q13 -9 24 -15q5 -2 -2 -4q-67 -23 -168 -48q23 -11 56 -2q41 11 144 47q6 2 6.5 0.5t-1.5 -6.5q-9 -15 -28 -22q-143 -55 -210 -55q-201 0 -196 199q1 26 13 61.5t27 65.5t45.5 89.5t50.5 101.5q-8 42 14 76
q27 -3 63 34t51 37q23 0 85 -19q2 -34 -18 -72q38 -9 87 -9l9 -19q2 0 10.5 3t14.5 3t24.5 -5.5t24.5 -6.5q6 0 2 -4q-13 -12 -27 -18t-21.5 -6.5t-11 -5t-1.5 -14.5q9 4 38 14.5t45 17.5q1 0 4.5 3t4 2.5zM487 494q-1 3 -9 4.5t-12 -0.5l3 -12zM139 193v-11h1q16 22 18 26
q-16 1 -19 -15zM129 108l-8 10q-7 -30 3 -37zM429 114q-19 -22 -57 -20q-23 -17 -43.5 -23t-31.5 7q65 14 129 40q3 1 4 -0.5t-1 -3.5zM255 397l-13 -3l-17 -28l13 3zM219 352q-5 0 -13 -8.5t-10 -16.5l13 2zM147 176l-10 -1l-11 -37l7 -9zM538 733q-18 -11 -44 -44t-44 -45
q-28 0 -44.5 23.5t-8.5 47.5h-15q2 23 25 69t54 46q35 0 56 -24.5t21 -72.5zM324 715l-88 -90l-15 8l7 30q-25 55 -22 92q-12 7 -12 20q0 20 19.5 37.5t39.5 17.5q31 0 51 -31.5t20 -83.5z" />
    <glyph glyph-name="igrave" unicode="&#xec;" horiz-adv-x="360" 
d="M385 547q0 -39 -9 -93h-11q-9 -13 -23 -43.5t-30 -54.5t-36 -35l4 -12l-39 -22q-18 -25 -31 -54t-28 -73t-19 -55q-1 -2 -3 -5.5t-3.5 -6.5t-2 -6.5t0.5 -6t5 -3.5q3 -1 11 23q7 17 20.5 55.5t26.5 68t29 47.5q11 3 3 -9l-1 -1q-16 -26 -29 -58t-27.5 -73.5t-24.5 -65.5
q-31 -73 -22 -110q-27 9 -50 22v32q-10 -8 -11 -24q-37 28 -55 75q0 63 32 147t68 147.5t89 148.5t69 115q10 14 30 14q5 0 31 -7v-24q15 -6 25.5 -21.5t10.5 -31.5zM153 60q-5 5 -7.5 5.5t-3 -1.5t-0.5 -4.5v-4.5l-11 -27q-2 -6 3 -7q2 -1 5 4zM507 647q-21 -9 -33 -6
t-38 21q-1 -3 0.5 -7t7.5 -9t11 -8.5l15 -10.5t16 -11l-12 -7q-67 50 -154 89l-9 -6q-64 31 -129 54q0 29 29 58.5t51 29.5q44 0 121.5 -52t77.5 -85q24 -24 46 -50z" />
    <glyph glyph-name="iacute" unicode="&#xed;" horiz-adv-x="360" 
d="M385 547q0 -39 -9 -93h-11q-9 -13 -23 -43.5t-30 -54.5t-36 -35l4 -12l-39 -22q-18 -25 -31 -54t-28 -73t-19 -55q-1 -2 -3 -5.5t-3.5 -6.5t-2 -6.5t0.5 -6t5 -3.5q3 -1 11 23q7 17 20.5 55.5t26.5 68t29 47.5q11 3 3 -9l-1 -1q-16 -26 -29 -58t-27.5 -73.5t-24.5 -65.5
q-31 -73 -22 -110q-27 9 -50 22v32q-10 -8 -11 -24q-37 28 -55 75q0 63 32 147t68 147.5t89 148.5t69 115q10 14 30 14q5 0 31 -7v-24q15 -6 25.5 -21.5t10.5 -31.5zM153 60q-5 5 -7.5 5.5t-3 -1.5t-0.5 -4.5v-4.5l-11 -27q-2 -6 3 -7q2 -1 5 4zM595 786q0 -26 -24 -50
t-58.5 -38t-68 -22.5t-56.5 -8.5q-18 0 -28 7q-52 -6 -67 -7q12 16 16 33l38 14l-2 9q-51 -16 -58 -16q-9 0 -12 4q68 19 169 75v11q67 35 119 71q32 -23 32 -82z" />
    <glyph glyph-name="icircumflex" unicode="&#xee;" horiz-adv-x="360" 
d="M385 547q0 -39 -9 -93h-11q-9 -13 -23 -43.5t-30 -54.5t-36 -35l4 -12l-39 -22q-18 -25 -31 -54t-28 -73t-19 -55q-1 -2 -3 -5.5t-3.5 -6.5t-2 -6.5t0.5 -6t5 -3.5q3 -1 11 23q7 17 20.5 55.5t26.5 68t29 47.5q11 3 3 -9l-1 -1q-16 -26 -29 -58t-27.5 -73.5t-24.5 -65.5
q-31 -73 -22 -110q-27 9 -50 22v32q-10 -8 -11 -24q-37 28 -55 75q0 63 32 147t68 147.5t89 148.5t69 115q10 14 30 14q5 0 31 -7v-24q15 -6 25.5 -21.5t10.5 -31.5zM153 60q-5 5 -7.5 5.5t-3 -1.5t-0.5 -4.5v-4.5l-11 -27q-2 -6 3 -7q2 -1 5 4zM531 657q-4 -15 -16.5 -21.5
t-15.5 -10.5q-33 13 -55 54.5t-34 53.5q-42 -11 -108.5 -59.5t-77.5 -48.5q-6 0 -14.5 7t-22.5 21t-24 22q12 20 -2 39q31 28 101.5 68.5t115.5 60.5l14 -10l15 7q34 -38 116 -164l-11 -9z" />
    <glyph glyph-name="idieresis" unicode="&#xef;" horiz-adv-x="360" 
d="M385 547q0 -39 -9 -93h-11q-9 -13 -23 -43.5t-30 -54.5t-36 -35l4 -12l-39 -22q-18 -25 -31 -54t-28 -73t-19 -55q-1 -2 -3 -5.5t-3.5 -6.5t-2 -6.5t0.5 -6t5 -3.5q3 -1 11 23q7 17 20.5 55.5t26.5 68t29 47.5q11 3 3 -9l-1 -1q-16 -26 -29 -58t-27.5 -73.5t-24.5 -65.5
q-31 -73 -22 -110q-27 9 -50 22v32q-10 -8 -11 -24q-37 28 -55 75q0 63 32 147t68 147.5t89 148.5t69 115q10 14 30 14q5 0 31 -7v-24q15 -6 25.5 -21.5t10.5 -31.5zM153 60q-5 5 -7.5 5.5t-3 -1.5t-0.5 -4.5v-4.5l-11 -27q-2 -6 3 -7q2 -1 5 4zM541 733q-18 -11 -44 -44
t-44 -45q-28 0 -44.5 23.5t-8.5 47.5h-15q2 23 25 69t54 46q35 0 56 -24.5t21 -72.5zM327 715l-88 -90l-15 8l7 30q-25 55 -22 92q-12 7 -12 20q0 20 19.5 37.5t39.5 17.5q31 0 51 -31.5t20 -83.5z" />
    <glyph glyph-name="eth" unicode="&#xf0;" horiz-adv-x="729" 
d="M724 379q-8 -12 -19.5 -30.5t-18.5 -29.5t-16.5 -22.5t-18 -16.5t-17.5 -4l14 17q-7 4 -15 -1t-24 -20.5t-24 -21.5l15 -3q-138 -120 -356 -247l-19 -16q-9 0 -22.5 -5.5t-20.5 -5.5q-27 0 -44.5 17.5t-31 44t-21.5 34.5l2 46h24q20 0 32 16q5 12 10 50.5t10 53.5
q-47 -6 -63 -8q-1 28 -33 36q2 29 11 54q35 30 117 39q27 66 27 85q1 14 -17 38.5t-18 37.5q0 9 9 16.5t18.5 11t26 8.5t22.5 8l10 -9q17 17 32.5 47t30 47t38.5 17q6 0 27.5 -31t21.5 -41q-1 -5 -6 -15.5t-5 -14.5q12 -3 55 -4t70 -9q-7 -13 7.5 -12.5t18.5 10.5
q4 -4 13.5 -7t24 -6.5t21.5 -5.5q24 -8 42.5 -21.5t28 -26.5t16.5 -33t9 -31t5 -29q1 -5 1 -7zM666 314l-14 3l-8 -11l14 -4zM622 447q-165 -2 -262 -27q-17 -40 -24 -65q26 -3 51 -2l20 -31q28 6 59 -14q-85 -31 -154 -45q-17 -54 -25 -96q11 8 46 28t69 42t56 42
q9 -5 15 -4l-6 13l8 7q4 -7 12 -7q18 0 64 61q20 -5 47.5 33t23.5 65zM534 208v1q-20 -2 -57 -27q-30 -22 -88 -60q0 -12 -9 -19q-10 10 -31 -7q10 0 24 -7q30 21 85.5 63t75.5 56zM570 239l-9 4l-32 -23q12 -6 21 2zM291 42v-1l50 30q-6 9 -1 17v1q-11 -7 -27 -22.5
t-22 -24.5zM276 44l-31 -19v-9l27 15z" />
    <glyph glyph-name="ntilde" unicode="&#xf1;" horiz-adv-x="753" 
d="M522 365q81 125 155 197q18 11 52 13q56 2 81 -16l-20 -14l2 -4q17 0 32 10l28 -30q-43 -20 -101.5 -67t-94.5 -96q-3 -5 -8 -1.5t-8 1.5q-1 -13 -5.5 -25t-9.5 -20t-15.5 -23.5t-16.5 -24.5q-2 -4 -4 -16.5t-5 -19.5q0 -3 -8 -9.5t-10 -11.5q-11 -35 -91 -239l-45 21
l-6 -14q-45 12 -58.5 33t-20.5 76q-1 10 0.5 48t-2.5 45q-11 31 -11 56.5t3 50.5t1 44l-5 39q-53 -17 -92 -87l3 -16q-17 -32 -65.5 -141t-74.5 -143h-28q-17 0 -35.5 36t-21.5 37l-6 44q-3 7 -1 20t2 15t4.5 12.5t5.5 13.5q15 36 32 68.5t39 64.5t36.5 53t43 52t38 41.5
t41 42.5t34.5 35q28 -10 72.5 -42t53.5 -57q5 -13 11 -35.5t13 -55t10 -43.5q53 92 113.5 179.5t76.5 93.5l21 3q-18 -17 -34.5 -36.5t-31.5 -40t-25 -34t-23 -33.5t-16 -24q-13 -21 -11 -22zM665 400q1 1 -0.5 3.5t-3.5 3t-3 -0.5q-22 -34 -14 -38zM645 517q3 -6 8 -5
l17 22l-8 4q-8 -7 -17 -21zM779 538l-19 -14l2 -9q2 1 7 4t6.5 4.5t3 5.5t0.5 9zM584 208l-5 -34l-9 6q1 8 1 11.5t1.5 9t4.5 7.5t7 0zM691 436q1 1 0 3.5t-2.5 3.5t-4.5 -2l-20 -26q7 1 9 -5zM289 486l-8 6l-22 -23q3 -5 8.5 -2.5t8 4.5t7.5 8t6 7zM743 688
q-45 -70 -107 -70q-34 0 -52.5 15.5t-29 38t-17.5 28.5q-30 -8 -69.5 -36.5t-61.5 -52.5q-21 6 -31 17t-9.5 22.5t0.5 24.5q36 33 31 45l-8.5 -8.5t-9 -8.5t-8.5 -6.5t-8 -3t-7 3.5q8 7 32 29.5t38.5 34.5t36.5 23.5t41 11.5q21 0 33 -16q16 0 25 -10.5t13 -23.5t18 -23.5
t39 -10.5q8 0 17.5 3t15.5 5.5t19 9.5t17 9q-5 -10 -5 -19l16 4l3 -5l-14 -11q3 -2 20 -6.5t22 -13.5z" />
    <glyph glyph-name="ograve" unicode="&#xf2;" horiz-adv-x="654" 
d="M624 300q0 -27 -13.5 -56.5t-39.5 -50.5q4 -7 -0.5 -14t-12.5 -7l-7 13q-15 -4 -8 -17q-9 0 -19 -6t-10 -14q0 -7 -4 -9.5t-13 -2.5t-12 -1q-8 -8 -32 -40l-11 10q-13 -8 -19 -20.5t-20 -19.5q-9 -5 -29.5 -7.5t-23.5 -3.5q-1 -1 1 -3t4.5 -4t2.5 -4l-18 -6l-28 17
q-7 -5 -10 -20.5t-14 -19.5q-8 -3 -31.5 -11t-39.5 -13q-22 22 -51 0q-51 32 -104 77q-32 25 -32 116q0 69 32 134.5t79.5 112t101 82.5t97.5 53.5t68 17.5q10 0 20 -4t15.5 -7.5t19 -14.5t19.5 -16q0 -50 90 -111q52 -35 52 -130zM365 68q0 10 -15 10q0 -1 -1 -4l-1.5 -4.5
t0.5 -3.5q4 -3 17 2zM519 333l-56 65q-1 4 -2 6t-2 4.5t-2 2l-3 -1.5q-6 -6 -11 -6q-3 0 -6 2t-5 4l-1 2q-40 0 -98 -39t-89 -88q-65 -31 -103 -149q55 5 71 11l180 75q59 23 82 53zM409 97l-5 10q-14 -7 -19.5 -12t-4.5 -13zM192 258l23 28q-10 6 -21.5 -0.5t-13.5 -15.5
q0 -11 12 -12zM189 13l30 -5q-7 11 -18 11q-8 -2 -12 -6zM440 115q-1 1 -3.5 8t-4.5 8l-16 -17l4 -11zM628 617q-21 -9 -33 -6t-38 21q-1 -3 0.5 -7t7.5 -9t11 -8.5l15 -10.5t16 -11l-12 -7q-67 50 -154 89l-9 -6q-64 31 -129 54q0 29 29 58.5t51 29.5q44 0 121.5 -52
t77.5 -85q24 -24 46 -50z" />
    <glyph glyph-name="oacute" unicode="&#xf3;" horiz-adv-x="654" 
d="M624 300q0 -27 -13.5 -56.5t-39.5 -50.5q4 -7 -0.5 -14t-12.5 -7l-7 13q-15 -4 -8 -17q-9 0 -19 -6t-10 -14q0 -7 -4 -9.5t-13 -2.5t-12 -1q-8 -8 -32 -40l-11 10q-13 -8 -19 -20.5t-20 -19.5q-9 -5 -29.5 -7.5t-23.5 -3.5q-1 -1 1 -3t4.5 -4t2.5 -4l-18 -6l-28 17
q-7 -5 -10 -20.5t-14 -19.5q-8 -3 -31.5 -11t-39.5 -13q-22 22 -51 0q-51 32 -104 77q-32 25 -32 116q0 69 32 134.5t79.5 112t101 82.5t97.5 53.5t68 17.5q10 0 20 -4t15.5 -7.5t19 -14.5t19.5 -16q0 -50 90 -111q52 -35 52 -130zM365 68q0 10 -15 10q0 -1 -1 -4l-1.5 -4.5
t0.5 -3.5q4 -3 17 2zM519 333l-56 65q-1 4 -2 6t-2 4.5t-2 2l-3 -1.5q-6 -6 -11 -6q-3 0 -6 2t-5 4l-1 2q-40 0 -98 -39t-89 -88q-65 -31 -103 -149q55 5 71 11l180 75q59 23 82 53zM409 97l-5 10q-14 -7 -19.5 -12t-4.5 -13zM192 258l23 28q-10 6 -21.5 -0.5t-13.5 -15.5
q0 -11 12 -12zM189 13l30 -5q-7 11 -18 11q-8 -2 -12 -6zM440 115q-1 1 -3.5 8t-4.5 8l-16 -17l4 -11zM666 756q0 -26 -24 -50t-58.5 -38t-68 -22.5t-56.5 -8.5q-17 0 -28 7q-52 -6 -67 -7q12 16 16 33l38 14l-2 9q-51 -16 -58 -16q-9 0 -12 4q68 19 169 75v11q67 35 119 71
q32 -23 32 -82z" />
    <glyph glyph-name="ocircumflex" unicode="&#xf4;" horiz-adv-x="654" 
d="M624 300q0 -27 -13.5 -56.5t-39.5 -50.5q4 -7 -0.5 -14t-12.5 -7l-7 13q-15 -4 -8 -17q-9 0 -19 -6t-10 -14q0 -7 -4 -9.5t-13 -2.5t-12 -1q-8 -8 -32 -40l-11 10q-13 -8 -19 -20.5t-20 -19.5q-9 -5 -29.5 -7.5t-23.5 -3.5q-1 -1 1 -3t4.5 -4t2.5 -4l-18 -6l-28 17
q-7 -5 -10 -20.5t-14 -19.5q-8 -3 -31.5 -11t-39.5 -13q-22 22 -51 0q-51 32 -104 77q-32 25 -32 116q0 69 32 134.5t79.5 112t101 82.5t97.5 53.5t68 17.5q10 0 20 -4t15.5 -7.5t19 -14.5t19.5 -16q0 -50 90 -111q52 -35 52 -130zM365 68q0 10 -15 10q0 -1 -1 -4l-1.5 -4.5
t0.5 -3.5q4 -3 17 2zM519 333l-56 65q-1 4 -2 6t-2 4.5t-2 2l-3 -1.5q-6 -6 -11 -6q-3 0 -6 2t-5 4l-1 2q-40 0 -98 -39t-89 -88q-65 -31 -103 -149q55 5 71 11l180 75q59 23 82 53zM409 97l-5 10q-14 -7 -19.5 -12t-4.5 -13zM192 258l23 28q-10 6 -21.5 -0.5t-13.5 -15.5
q0 -11 12 -12zM189 13l30 -5q-7 11 -18 11q-8 -2 -12 -6zM440 115q-1 1 -3.5 8t-4.5 8l-16 -17l4 -11zM635 657q-4 -15 -16.5 -21.5t-15.5 -10.5q-33 13 -55 54.5t-34 53.5q-42 -11 -108.5 -59.5t-77.5 -48.5q-6 0 -14.5 7t-22.5 21t-24 22q12 20 -2 39q31 28 101.5 68.5
t115.5 60.5l14 -10l15 7q34 -38 116 -164l-11 -9z" />
    <glyph glyph-name="otilde" unicode="&#xf5;" horiz-adv-x="654" 
d="M624 300q0 -27 -13.5 -56.5t-39.5 -50.5q4 -7 -0.5 -14t-12.5 -7l-7 13q-15 -4 -8 -17q-9 0 -19 -6t-10 -14q0 -7 -4 -9.5t-13 -2.5t-12 -1q-8 -8 -32 -40l-11 10q-13 -8 -19 -20.5t-20 -19.5q-9 -5 -29.5 -7.5t-23.5 -3.5q-1 -1 1 -3t4.5 -4t2.5 -4l-18 -6l-28 17
q-7 -5 -10 -20.5t-14 -19.5q-8 -3 -31.5 -11t-39.5 -13q-22 22 -51 0q-51 32 -104 77q-32 25 -32 116q0 69 32 134.5t79.5 112t101 82.5t97.5 53.5t68 17.5q10 0 20 -4t15.5 -7.5t19 -14.5t19.5 -16q0 -50 90 -111q52 -35 52 -130zM365 68q0 10 -15 10q0 -1 -1 -4l-1.5 -4.5
t0.5 -3.5q4 -3 17 2zM519 333l-56 65q-1 4 -2 6t-2 4.5t-2 2l-3 -1.5q-6 -6 -11 -6q-3 0 -6 2t-5 4l-1 2q-40 0 -98 -39t-89 -88q-65 -31 -103 -149q55 5 71 11l180 75q59 23 82 53zM409 97l-5 10q-14 -7 -19.5 -12t-4.5 -13zM192 258l23 28q-10 6 -21.5 -0.5t-13.5 -15.5
q0 -11 12 -12zM189 13l30 -5q-7 11 -18 11q-8 -2 -12 -6zM440 115q-1 1 -3.5 8t-4.5 8l-16 -17l4 -11zM668 693q-45 -70 -107 -70q-34 0 -52.5 15.5t-29 38t-17.5 28.5q-30 -8 -69.5 -36.5t-61.5 -52.5q-21 6 -31 17t-9.5 22.5t0.5 24.5q36 33 31 45l-8.5 -8.5t-9 -8.5
t-8.5 -6.5t-8 -3t-7 3.5q8 7 32 29.5t38.5 34.5t36.5 23.5t41 11.5q21 0 33 -16q16 0 25 -10.5t13 -23.5t18 -23.5t39 -10.5q8 0 17.5 3t15.5 5.5t19 9.5t17 9q-5 -10 -5 -19l16 4l3 -5l-14 -11q3 -2 20 -6.5t22 -13.5z" />
    <glyph glyph-name="odieresis" unicode="&#xf6;" horiz-adv-x="654" 
d="M624 300q0 -27 -13.5 -56.5t-39.5 -50.5q4 -7 -0.5 -14t-12.5 -7l-7 13q-15 -4 -8 -17q-9 0 -19 -6t-10 -14q0 -7 -4 -9.5t-13 -2.5t-12 -1q-8 -8 -32 -40l-11 10q-13 -8 -19 -20.5t-20 -19.5q-9 -5 -29.5 -7.5t-23.5 -3.5q-1 -1 1 -3t4.5 -4t2.5 -4l-18 -6l-28 17
q-7 -5 -10 -20.5t-14 -19.5q-8 -3 -31.5 -11t-39.5 -13q-22 22 -51 0q-51 32 -104 77q-32 25 -32 116q0 69 32 134.5t79.5 112t101 82.5t97.5 53.5t68 17.5q10 0 20 -4t15.5 -7.5t19 -14.5t19.5 -16q0 -50 90 -111q52 -35 52 -130zM365 68q0 10 -15 10q0 -1 -1 -4l-1.5 -4.5
t0.5 -3.5q4 -3 17 2zM519 333l-56 65q-1 4 -2 6t-2 4.5t-2 2l-3 -1.5q-6 -6 -11 -6q-3 0 -6 2t-5 4l-1 2q-40 0 -98 -39t-89 -88q-65 -31 -103 -149q55 5 71 11l180 75q59 23 82 53zM409 97l-5 10q-14 -7 -19.5 -12t-4.5 -13zM192 258l23 28q-10 6 -21.5 -0.5t-13.5 -15.5
q0 -11 12 -12zM189 13l30 -5q-7 11 -18 11q-8 -2 -12 -6zM440 115q-1 1 -3.5 8t-4.5 8l-16 -17l4 -11zM658 718q-18 -11 -44 -44t-44 -45q-28 0 -44.5 23.5t-8.5 47.5h-15q2 23 25 69t54 46q35 0 56 -24.5t21 -72.5zM444 700l-88 -90l-15 8l7 30q-25 55 -22 92q-12 7 -12 20
q0 20 19.5 37.5t39.5 17.5q31 0 51 -31.5t20 -83.5z" />
    <glyph glyph-name="divide" unicode="&#xf7;" horiz-adv-x="625" 
d="M563 226q-83 -32 -214.5 -49.5t-232.5 -17.5q0 33 -36 33q0 47 16.5 67.5t57.5 23.5q119 9 165 18l12 26q-25 31 -18 77q-19 16 -1 38.5t43 22.5q57 -24 57 -94l-70 -72q92 -22 135 -22q13 -16 41 -35l-5 -15l24 5zM312 56q-8 0 -17.5 -12t-22.5 -26.5t-28 -17.5
q-12 23 -40 34l6 21l-15 7q0 29 12 56.5t29 27.5q26 0 51 -28t25 -62z" />
    <glyph glyph-name="oslash" unicode="&#xf8;" horiz-adv-x="662" 
d="M587 234l-4 -21q-2 -2 -29 -19t-32 -34q-12 0 -22 -5t-9 -16l-38 -8q-4 -3 1.5 -8.5t-3.5 -12.5q-5 -4 -27 -5t-26 -6q-1 -1 1 -3t4.5 -4t2.5 -4l-18 -6l-28 17q-7 -5 -10 -20.5t-14 -19.5q-14 -5 -38 -13.5t-34 -11.5q-13 -19 -82 -117v-17q-18 -25 -40.5 -51.5
t-31.5 -26.5q-4 0 -4 7t1 17.5t1 14.5q5 14 17 44l-6 8l22 39l3 -2q12 30 41 91q-50 25 -95 52q-38 22 -55 106q-12 63 9 125t62 106.5t90 80.5t91.5 54.5t67.5 19.5q9 0 16.5 -1t16.5 -5t14.5 -7t18 -10.5t19.5 -11.5q4 -20 26 -42q10 14 22 29.5t26.5 35t23.5 30.5l77 57
q47 -1 74 -14l9 -27l-19 -13l5 -12l19 8l4 -10q-87 -77 -147 -142q57 -32 73 -114q5 -26 -7.5 -59t-38.5 -43zM420 443q-7 5 -13 5q-44 -2 -100.5 -47.5t-81.5 -99.5q-60 -35 -78 -156q58 7 77 16l30 15q73 134 166 267zM172 271l20 31q-12 6 -23.5 -1t-11.5 -17
q-1 -5 3 -8.5t12 -4.5zM445 153l-30 -14l10 -11q25 15 20 25zM413 116q0 10 -15 10q0 -1 -1 -4l-1.5 -4.5t0.5 -3.5q4 -3 17 2zM529 378l-19 14q-30 -37 -50 -66l-13 -3q-31 -54 -46 -77l9 4q19 8 44 26.5t36 36.5zM203 -35v15l-21 -35v-11zM488 160q-3 3 -5 12
q-23 -8 -22 -26z" />
    <glyph glyph-name="ugrave" unicode="&#xf9;" horiz-adv-x="655" 
d="M685 473l-14 -50q-22 2 -31 -11q-7 -9 7 -18q3 -2 2.5 -6.5t-5 -8t-10.5 -3.5l-14 7q-6 -11 -10 -19.5t-7.5 -17.5t-3.5 -14.5t5 -5.5l-11 -21q-6 0 -10 -3t-10 -11t-12.5 -18.5t-20 -30t-30.5 -39.5l8 -10q40 51 69 99q9 -11 2 -24q-40 -73 -90.5 -128.5t-95 -84.5
t-91.5 -47.5t-75.5 -23t-51.5 -4.5q-5 0 -8 5q0 5 -7 5q-5 0 -5.5 -1t-0.5 -4q2 -5 -5 -5q-10 0 -19 5t-13.5 10t-12.5 16t-10 13l-11 -5q-58 35 -58 117q0 60 27 119q27 58 88 201t70 163q17 14 31 14q22 -1 61 -103l14 10v-23q-43 -78 -97 -197q-8 13 -1 27q7 2 1 7.5
t-9 0.5q-14 -18 -10 -42.5t1 -31.5q-1 -2 -6 -13t-8 -18q-13 6 -24 -17q7 -3 18 4h1q-5 -11 -21 -48q-7 10 2 29l-6 6q-18 -34 -18 -45t13 -12q-8 -20 -11 -28q59 0 110 18t87 45.5t71 73t57.5 86t51.5 99.5q2 5 13 6.5t15 3.5q9 5 3 10q-6 3 -14 2q29 66 40 109q2 11 16 11
q3 0 22 -15q11 -9 29 -16q6 -13 8 -51q2 -46 25 -48zM254 420l-25 -41q-3 -6 -2 -7l13 -8q8 11 14.5 30t-0.5 26zM226 12q2 0 23 3q-10 18 -32 14q-14 -3 -7 -11q5 -6 16 -6zM511 184l-10 10q-28 -28 -18 -41zM426 94q-11 0 -21 -4t-27 -15.5t-28 -17.5l2 -10q40 19 74 47z
M339 40q-4 9 -19 5q-3 -1 -16.5 -3.5t-18.5 -7.5t-4 -15q27 5 58 21zM570 657q-21 -9 -33 -6t-38 21q-1 -3 0.5 -7t7.5 -9t11 -8.5l15 -10.5t16 -11l-12 -7q-67 50 -154 89l-9 -6q-64 31 -129 54q0 29 29 58.5t51 29.5q44 0 121.5 -52t77.5 -85q24 -24 46 -50z" />
    <glyph glyph-name="uacute" unicode="&#xfa;" horiz-adv-x="655" 
d="M685 473l-14 -50q-22 2 -31 -11q-7 -9 7 -18q3 -2 2.5 -6.5t-5 -8t-10.5 -3.5l-14 7q-6 -11 -10 -19.5t-7.5 -17.5t-3.5 -14.5t5 -5.5l-11 -21q-6 0 -10 -3t-10 -11t-12.5 -18.5t-20 -30t-30.5 -39.5l8 -10q40 51 69 99q9 -11 2 -24q-40 -73 -90.5 -128.5t-95 -84.5
t-91.5 -47.5t-75.5 -23t-51.5 -4.5q-5 0 -8 5q0 5 -7 5q-5 0 -5.5 -1t-0.5 -4q2 -5 -5 -5q-10 0 -19 5t-13.5 10t-12.5 16t-10 13l-11 -5q-58 35 -58 117q0 60 27 119q27 58 88 201t70 163q17 14 31 14q22 -1 61 -103l14 10v-23q-43 -78 -97 -197q-8 13 -1 27q7 2 1 7.5
t-9 0.5q-14 -18 -10 -42.5t1 -31.5q-1 -2 -6 -13t-8 -18q-13 6 -24 -17q7 -3 18 4h1q-5 -11 -21 -48q-7 10 2 29l-6 6q-18 -34 -18 -45t13 -12q-8 -20 -11 -28q59 0 110 18t87 45.5t71 73t57.5 86t51.5 99.5q2 5 13 6.5t15 3.5q9 5 3 10q-6 3 -14 2q29 66 40 109q2 11 16 11
q3 0 22 -15q11 -9 29 -16q6 -13 8 -51q2 -46 25 -48zM254 420l-25 -41q-3 -6 -2 -7l13 -8q8 11 14.5 30t-0.5 26zM226 12q2 0 23 3q-10 18 -32 14q-14 -3 -7 -11q5 -6 16 -6zM511 184l-10 10q-28 -28 -18 -41zM426 94q-11 0 -21 -4t-27 -15.5t-28 -17.5l2 -10q40 19 74 47z
M339 40q-4 9 -19 5q-3 -1 -16.5 -3.5t-18.5 -7.5t-4 -15q27 5 58 21zM666 756q0 -26 -24 -50t-58.5 -38t-68 -22.5t-56.5 -8.5q-17 0 -28 7q-52 -6 -67 -7q12 16 16 33l38 14l-2 9q-51 -16 -58 -16q-9 0 -12 4q68 19 169 75v11q67 35 119 71q32 -23 32 -82z" />
    <glyph glyph-name="ucircumflex" unicode="&#xfb;" horiz-adv-x="655" 
d="M685 473l-14 -50q-22 2 -31 -11q-7 -9 7 -18q3 -2 2.5 -6.5t-5 -8t-10.5 -3.5l-14 7q-6 -11 -10 -19.5t-7.5 -17.5t-3.5 -14.5t5 -5.5l-11 -21q-6 0 -10 -3t-10 -11t-12.5 -18.5t-20 -30t-30.5 -39.5l8 -10q40 51 69 99q9 -11 2 -24q-40 -73 -90.5 -128.5t-95 -84.5
t-91.5 -47.5t-75.5 -23t-51.5 -4.5q-5 0 -8 5q0 5 -7 5q-5 0 -5.5 -1t-0.5 -4q2 -5 -5 -5q-10 0 -19 5t-13.5 10t-12.5 16t-10 13l-11 -5q-58 35 -58 117q0 60 27 119q27 58 88 201t70 163q17 14 31 14q22 -1 61 -103l14 10v-23q-43 -78 -97 -197q-8 13 -1 27q7 2 1 7.5
t-9 0.5q-14 -18 -10 -42.5t1 -31.5q-1 -2 -6 -13t-8 -18q-13 6 -24 -17q7 -3 18 4h1q-5 -11 -21 -48q-7 10 2 29l-6 6q-18 -34 -18 -45t13 -12q-8 -20 -11 -28q59 0 110 18t87 45.5t71 73t57.5 86t51.5 99.5q2 5 13 6.5t15 3.5q9 5 3 10q-6 3 -14 2q29 66 40 109q2 11 16 11
q3 0 22 -15q11 -9 29 -16q6 -13 8 -51q2 -46 25 -48zM254 420l-25 -41q-3 -6 -2 -7l13 -8q8 11 14.5 30t-0.5 26zM226 12q2 0 23 3q-10 18 -32 14q-14 -3 -7 -11q5 -6 16 -6zM511 184l-10 10q-28 -28 -18 -41zM426 94q-11 0 -21 -4t-27 -15.5t-28 -17.5l2 -10q40 19 74 47z
M339 40q-4 9 -19 5q-3 -1 -16.5 -3.5t-18.5 -7.5t-4 -15q27 5 58 21zM687 682q-4 -15 -16.5 -21.5t-15.5 -10.5q-33 13 -55 54.5t-34 53.5q-42 -11 -108.5 -59.5t-77.5 -48.5q-6 0 -14.5 7t-22.5 21t-24 22q12 20 -2 39q31 28 101.5 68.5t115.5 60.5l14 -10l15 7
q34 -38 116 -164l-11 -9z" />
    <glyph glyph-name="udieresis" unicode="&#xfc;" horiz-adv-x="655" 
d="M685 473l-14 -50q-22 2 -31 -11q-7 -9 7 -18q3 -2 2.5 -6.5t-5 -8t-10.5 -3.5l-14 7q-6 -11 -10 -19.5t-7.5 -17.5t-3.5 -14.5t5 -5.5l-11 -21q-6 0 -10 -3t-10 -11t-12.5 -18.5t-20 -30t-30.5 -39.5l8 -10q40 51 69 99q9 -11 2 -24q-40 -73 -90.5 -128.5t-95 -84.5
t-91.5 -47.5t-75.5 -23t-51.5 -4.5q-5 0 -8 5q0 5 -7 5q-5 0 -5.5 -1t-0.5 -4q2 -5 -5 -5q-10 0 -19 5t-13.5 10t-12.5 16t-10 13l-11 -5q-58 35 -58 117q0 60 27 119q27 58 88 201t70 163q17 14 31 14q22 -1 61 -103l14 10v-23q-43 -78 -97 -197q-8 13 -1 27q7 2 1 7.5
t-9 0.5q-14 -18 -10 -42.5t1 -31.5q-1 -2 -6 -13t-8 -18q-13 6 -24 -17q7 -3 18 4h1q-5 -11 -21 -48q-7 10 2 29l-6 6q-18 -34 -18 -45t13 -12q-8 -20 -11 -28q59 0 110 18t87 45.5t71 73t57.5 86t51.5 99.5q2 5 13 6.5t15 3.5q9 5 3 10q-6 3 -14 2q29 66 40 109q2 11 16 11
q3 0 22 -15q11 -9 29 -16q6 -13 8 -51q2 -46 25 -48zM254 420l-25 -41q-3 -6 -2 -7l13 -8q8 11 14.5 30t-0.5 26zM226 12q2 0 23 3q-10 18 -32 14q-14 -3 -7 -11q5 -6 16 -6zM511 184l-10 10q-28 -28 -18 -41zM426 94q-11 0 -21 -4t-27 -15.5t-28 -17.5l2 -10q40 19 74 47z
M339 40q-4 9 -19 5q-3 -1 -16.5 -3.5t-18.5 -7.5t-4 -15q27 5 58 21zM696 733q-18 -11 -44 -44t-44 -45q-28 0 -44.5 23.5t-8.5 47.5h-15q2 23 25 69t54 46q35 0 56 -24.5t21 -72.5zM482 715l-88 -90l-15 8l7 30q-25 55 -22 92q-12 7 -12 20q0 20 19.5 37.5t39.5 17.5
q31 0 51 -31.5t20 -83.5z" />
    <glyph glyph-name="yacute" unicode="&#xfd;" horiz-adv-x="572" 
d="M388 117l-7 -7l-14 13q-5 -4 -7 -5.5t-5.5 -6.5t-4 -8.5t1.5 -10t7 -13.5q-10 -15 -24 -43q-13 -6 -24 -17l8 -20l-4 -7l-12 16q-24 -32 -32 -83l19 -9q-5 -20 -7 -45q-12 -6 -31 -6q-44 0 -74 26q-1 14 -14 14q-12 15 -10 21q9 46 56.5 145.5t64.5 146.5l-7 6
q-44 0 -83 19q-7 -11 -18 0l-66 65h-12q-29 42 -28 94t18 94.5t49 96.5l14 -6q3 8 6 11q5 5 9 5q8 0 81 -32l16 -28q-4 -27 -26 -70t-25 -73l-15 -12q-10 -58 21 -98q48 -4 86.5 14.5t62.5 52.5l106 149l8 -13l40 58q10 15 25 3q36 29 66 14q-1 -9 3.5 -13.5t17.5 -5.5
q17 -23 23 -59q-14 -36 -47 -73q-7 1 -13 1t-10 -0.5t-8.5 -3.5t-6.5 -4t-5 -6.5t-4 -7t-4.5 -9t-4.5 -9.5l14 -7q-79 -83 -91 -119l-14 13q0 -18 -7 -33t-22 -34.5t-16 -21.5q-3 -5 -4.5 -11t-1.5 -14t-1 -12l-10 7q2 12 -4 17q-10 -17 -10.5 -23t11.5 -23zM280 -90l-11 5
l-3 -17l8 -4zM572 386l-6 12q15 15 26 10q-12 -14 -20 -22zM364 73l10 -9q-6 -12 -19 -7zM306 -36l-14 -40q-10 7 -5 21.5t18 19.5zM648 756q0 -26 -24 -50t-58.5 -38t-68 -22.5t-56.5 -8.5q-17 0 -28 7q-52 -6 -67 -7q12 16 16 33l38 14l-2 9q-51 -16 -58 -16q-9 0 -12 4
q68 19 169 75v11q67 35 119 71q32 -23 32 -82z" />
    <glyph glyph-name="thorn" unicode="&#xfe;" horiz-adv-x="523" 
d="M492 328q0 -14 -0.5 -24t-4.5 -20.5t-6 -17t-11 -16t-12.5 -14t-18.5 -15.5t-21 -15.5t-27.5 -19t-31.5 -21.5l-8 8q-11 -7 -29 -18t-29.5 -18t-28.5 -16.5t-26.5 -13.5t-23.5 -9.5t-19.5 -3.5t-15.5 4l-27 -73q-5 0 -5 13t-3 13q-4 0 -11 -14.5t-13.5 -36t-6.5 -37.5h15
q-16 -37 -19 -68q-3 1 -15 5.5t-19 7.5t-16.5 7.5t-16.5 9.5t-11 11q-21 32 -21 79q15 42 122 283q-3 2 -31 34q0 5 5 12.5t3 11.5q-1 3 -8 5t-7 6q0 7 11.5 15.5t20.5 10.5v15q37 -6 67.5 28t45.5 77.5t29 81t22 37.5q1 0 3.5 -0.5t3.5 -0.5q9 3 14.5 0.5t19.5 -9.5t27 -9
q1 -5 8 -23.5t8 -29.5q-2 -8 -22 -62t-25 -76q53 -2 83 -7q42 -6 62 -26t20 -61zM297 158q-7 6 -10.5 4.5t-10 -5.5t-12.5 -4h-14q-9 0 -16 -8t-9 -19q33 10 72 32zM147 12l-14 -38l-10 3q1 2 3 8.5t3.5 9.5l4 8t6 7t7.5 2zM426 237l-7 5l-17 -13q6 -8 24 8zM398 226
l-63 -37l7 -7q6 4 16.5 10l17.5 10t13.5 9t8.5 8.5t0 6.5zM327 174q-7 7 -28 -5l6 -7z" />
    <glyph glyph-name="ydieresis" unicode="&#xff;" horiz-adv-x="572" 
d="M388 117l-7 -7l-14 13q-5 -4 -7 -5.5t-5.5 -6.5t-4 -8.5t1.5 -10t7 -13.5q-10 -15 -24 -43q-13 -6 -24 -17l8 -20l-4 -7l-12 16q-24 -32 -32 -83l19 -9q-5 -20 -7 -45q-12 -6 -31 -6q-44 0 -74 26q-1 14 -14 14q-12 15 -10 21q9 46 56.5 145.5t64.5 146.5l-7 6
q-44 0 -83 19q-7 -11 -18 0l-66 65h-12q-29 42 -28 94t18 94.5t49 96.5l14 -6q3 8 6 11q5 5 9 5q8 0 81 -32l16 -28q-4 -27 -26 -70t-25 -73l-15 -12q-10 -58 21 -98q48 -4 86.5 14.5t62.5 52.5l106 149l8 -13l40 58q10 15 25 3q36 29 66 14q-1 -9 3.5 -13.5t17.5 -5.5
q17 -23 23 -59q-14 -36 -47 -73q-7 1 -13 1t-10 -0.5t-8.5 -3.5t-6.5 -4t-5 -6.5t-4 -7t-4.5 -9t-4.5 -9.5l14 -7q-79 -83 -91 -119l-14 13q0 -18 -7 -33t-22 -34.5t-16 -21.5q-3 -5 -4.5 -11t-1.5 -14t-1 -12l-10 7q2 12 -4 17q-10 -17 -10.5 -23t11.5 -23zM280 -90l-11 5
l-3 -17l8 -4zM572 386l-6 12q15 15 26 10q-12 -14 -20 -22zM364 73l10 -9q-6 -12 -19 -7zM306 -36l-14 -40q-10 7 -5 21.5t18 19.5zM616 733q-18 -11 -44 -44t-44 -45q-28 0 -44.5 23.5t-8.5 47.5h-15q2 23 25 69t54 46q35 0 56 -24.5t21 -72.5zM402 715l-88 -90l-15 8l7 30
q-25 55 -22 92q-12 7 -12 20q0 20 19.5 37.5t39.5 17.5q31 0 51 -31.5t20 -83.5z" />
    <glyph glyph-name="OE" unicode="&#x152;" horiz-adv-x="955" 
d="M558 433l7 -2q3 7 12.5 24.5t13.5 27.5q-7 42 14 76q21 -3 42.5 14.5t39.5 36.5t32 19q22 0 84 -19q2 -34 -19 -71q38 -9 86 -9l10 -19q2 0 10 3t14 3t25 -5.5t25 -6.5q6 0 2 -4q-13 -12 -27 -18t-21.5 -6.5t-11.5 -5t-1 -14.5q8 3 37 13.5t45 18.5q1 0 4.5 3t4.5 2.5
t2 -2.5q1 -4 -2.5 -8t-11.5 -9t-11 -7q-53 -24 -148.5 -42t-121.5 -26q-31 -50 -43 -68q20 2 77.5 20t72.5 18q21 0 32.5 -8.5t27.5 -36.5q-6 -17 10 -26l-6 -21q-194 -29 -258 -56q-16 -7 -32.5 -63t-16.5 -79q15 -11 37.5 -13.5t33.5 -0.5t35 8l5 -10q5 0 10.5 4t6.5 8
q7 1 17 -9.5t17 -8.5q6 2 192 60q7 2 8 -1q1 -1 -0.5 -3t-4 -4t-5 -3t-6.5 -3t-5 -3l-68 -25q10 -8 24 -15q5 -2 -2 -4q-67 -23 -168 -48q23 -11 56 -2q41 11 144 47q6 2 6.5 0.5t-1.5 -6.5q-9 -15 -29 -22q-141 -55 -209 -55q-83 0 -129.5 38t-55.5 123q-8 -5 -19 -24
l-11 10q-13 -8 -19 -20.5t-20 -19.5q-9 -5 -29.5 -7.5t-23.5 -3.5q-1 -1 1 -3t4.5 -4t2.5 -4l-17 -6l-28 17q-7 -5 -10 -20.5t-14 -19.5q-8 -3 -31.5 -11t-39.5 -13q-22 22 -51 0q-36 22 -100 74q-31 26 -31 114q0 67 31 131t77.5 109t98.5 80t95 52.5t66 17.5
q7 0 13.5 -1.5t11 -3t12 -6.5t10.5 -7.5t12.5 -10.5t13.5 -11q0 -49 87 -108zM359 81q0 10 -15 10q0 -1 -1 -4l-1.5 -4.5t0.5 -3.5q4 -3 17 2zM507 337l-55 64q-2 12 -6 12q-1 0 -6 -3.5t-9 -3.5q-3 0 -6 4t-5 4q-38 0 -94.5 -38.5t-87.5 -86.5q-65 -32 -100 -145
q43 2 69 12l175 71q57 24 80 53zM187 264l23 27q-11 6 -22.5 -0.5t-12.5 -16.5q0 -9 12 -10zM184 26l30 -5q-6 10 -17 10q-6 2 -13 -5zM403 110l-5 10q-14 -7 -19.5 -12t-4.5 -13zM551 113l-8 10q-8 -28 3 -36zM906 495q-1 3 -9 4.5t-12 -0.5l2 -12zM434 128q-1 1 -3.5 8
t-4.5 8l-16 -17l4 -11zM676 399l-13 -3l-18 -28l13 3zM640 355q-5 0 -12.5 -8.5t-10.5 -17.5l12 3zM561 197l-1 -11q18 21 20 26q-19 1 -19 -15zM569 180h-11l-11 -37l8 -9zM850 120q-20 -22 -57 -20q-23 -17 -44 -23t-31 7q62 13 129 40q3 1 4 -0.5t-1 -3.5z" />
    <glyph glyph-name="oe" unicode="&#x153;" horiz-adv-x="955" 
d="M558 433l7 -2q3 7 12.5 24.5t13.5 27.5q-7 42 14 76q21 -3 42.5 14.5t39.5 36.5t32 19q22 0 84 -19q2 -34 -19 -71q38 -9 86 -9l10 -19q2 0 10 3t14 3t25 -5.5t25 -6.5q6 0 2 -4q-13 -12 -27 -18t-21.5 -6.5t-11.5 -5t-1 -14.5q8 3 37 13.5t45 18.5q1 0 4.5 3t4.5 2.5
t2 -2.5q1 -4 -2.5 -8t-11.5 -9t-11 -7q-53 -24 -148.5 -42t-121.5 -26q-31 -50 -43 -68q20 2 77.5 20t72.5 18q21 0 32.5 -8.5t27.5 -36.5q-6 -17 10 -26l-6 -21q-194 -29 -258 -56q-16 -7 -32.5 -63t-16.5 -79q15 -11 37.5 -13.5t33.5 -0.5t35 8l5 -10q5 0 10.5 4t6.5 8
q7 1 17 -9.5t17 -8.5q6 2 192 60q7 2 8 -1q1 -1 -0.5 -3t-4 -4t-5 -3t-6.5 -3t-5 -3l-68 -25q10 -8 24 -15q5 -2 -2 -4q-67 -23 -168 -48q23 -11 56 -2q41 11 144 47q6 2 6.5 0.5t-1.5 -6.5q-9 -15 -29 -22q-141 -55 -209 -55q-83 0 -129.5 38t-55.5 123q-8 -5 -19 -24
l-11 10q-13 -8 -19 -20.5t-20 -19.5q-9 -5 -29.5 -7.5t-23.5 -3.5q-1 -1 1 -3t4.5 -4t2.5 -4l-17 -6l-28 17q-7 -5 -10 -20.5t-14 -19.5q-8 -3 -31.5 -11t-39.5 -13q-22 22 -51 0q-36 22 -100 74q-31 26 -31 114q0 67 31 131t77.5 109t98.5 80t95 52.5t66 17.5
q7 0 13.5 -1.5t11 -3t12 -6.5t10.5 -7.5t12.5 -10.5t13.5 -11q0 -49 87 -108zM359 81q0 10 -15 10q0 -1 -1 -4l-1.5 -4.5t0.5 -3.5q4 -3 17 2zM507 337l-55 64q-2 12 -6 12q-1 0 -6 -3.5t-9 -3.5q-3 0 -6 4t-5 4q-38 0 -94.5 -38.5t-87.5 -86.5q-65 -32 -100 -145
q43 2 69 12l175 71q57 24 80 53zM187 264l23 27q-11 6 -22.5 -0.5t-12.5 -16.5q0 -9 12 -10zM184 26l30 -5q-6 10 -17 10q-6 2 -13 -5zM403 110l-5 10q-14 -7 -19.5 -12t-4.5 -13zM551 113l-8 10q-8 -28 3 -36zM906 495q-1 3 -9 4.5t-12 -0.5l2 -12zM434 128q-1 1 -3.5 8
t-4.5 8l-16 -17l4 -11zM676 399l-13 -3l-18 -28l13 3zM640 355q-5 0 -12.5 -8.5t-10.5 -17.5l12 3zM561 197l-1 -11q18 21 20 26q-19 1 -19 -15zM569 180h-11l-11 -37l8 -9zM850 120q-20 -22 -57 -20q-23 -17 -44 -23t-31 7q62 13 129 40q3 1 4 -0.5t-1 -3.5z" />
    <glyph glyph-name="Ydieresis" unicode="&#x178;" horiz-adv-x="572" 
d="M388 117l-7 -7l-14 13q-5 -4 -7 -5.5t-5.5 -6.5t-4 -8.5t1.5 -10t7 -13.5q-10 -15 -24 -43q-13 -6 -24 -17l8 -20l-4 -7l-12 16q-24 -32 -32 -83l19 -9q-5 -20 -7 -45q-12 -6 -31 -6q-44 0 -74 26q-1 14 -14 14q-12 15 -10 21q9 46 56.5 145.5t64.5 146.5l-7 6
q-44 0 -83 19q-7 -11 -18 0l-66 65h-12q-29 42 -28 94t18 94.5t49 96.5l14 -6q3 8 6 11q5 5 9 5q8 0 81 -32l16 -28q-4 -27 -26 -70t-25 -73l-15 -12q-10 -58 21 -98q48 -4 86.5 14.5t62.5 52.5l106 149l8 -13l40 58q10 15 25 3q36 29 66 14q-1 -9 3.5 -13.5t17.5 -5.5
q17 -23 23 -59q-14 -36 -47 -73q-7 1 -13 1t-10 -0.5t-8.5 -3.5t-6.5 -4t-5 -6.5t-4 -7t-4.5 -9t-4.5 -9.5l14 -7q-79 -83 -91 -119l-14 13q0 -18 -7 -33t-22 -34.5t-16 -21.5q-3 -5 -4.5 -11t-1.5 -14t-1 -12l-10 7q2 12 -4 17q-10 -17 -10.5 -23t11.5 -23zM280 -90l-11 5
l-3 -17l8 -4zM572 386l-6 12q15 15 26 10q-12 -14 -20 -22zM364 73l10 -9q-6 -12 -19 -7zM306 -36l-14 -40q-10 7 -5 21.5t18 19.5zM616 733q-18 -11 -44 -44t-44 -45q-28 0 -44.5 23.5t-8.5 47.5h-15q2 23 25 69t54 46q35 0 56 -24.5t21 -72.5zM402 715l-88 -90l-15 8l7 30
q-25 55 -22 92q-12 7 -12 20q0 20 19.5 37.5t39.5 17.5q31 0 51 -31.5t20 -83.5z" />
    <glyph glyph-name="tilde" unicode="&#x2dc;" horiz-adv-x="500" 
d="M577 713q-45 -70 -107 -70q-34 0 -52.5 15.5t-29 38t-17.5 28.5q-30 -8 -69.5 -36.5t-61.5 -52.5q-21 6 -31 17t-9.5 22.5t0.5 24.5q36 33 31 45l-8.5 -8.5t-9 -8.5t-8.5 -6.5t-8 -3t-7 3.5q8 7 32 29.5t38.5 34.5t36.5 23.5t41 11.5q21 0 33 -16q16 0 25 -10.5t13 -23.5
t18 -23.5t39 -10.5q8 0 17.5 3t15.5 5.5t19 9.5t17 9q-5 -10 -5 -19l16 4l3 -5l-14 -11q3 -2 20 -6.5t22 -13.5z" />
    <glyph glyph-name="endash" unicode="&#x2013;" horiz-adv-x="663" 
d="M658 215q-131 -40 -594 -62q-9 28 -39 37q0 38 20 65q50 24 159 34t184 10q14 0 99 -8l-6 -10q34 -9 77 -9l24 -36q39 5 76 -21z" />
    <glyph glyph-name="emdash" unicode="&#x2014;" horiz-adv-x="1000" 
d="M995 224q-83 -9 -192.5 -17.5t-230.5 -15.5t-205 -11t-190.5 -9t-112.5 -5q-1 12 -13 22.5t-26 14.5q0 34 20 65q27 13 90 18t118.5 4t120.5 -3.5t74 -2.5q4 0 68 2t131 3t173 -1l-7 -8q30 -8 79 -8l25 -30q40 4 78 -18z" />
    <glyph glyph-name="quoteleft" unicode="&#x2018;" horiz-adv-x="176" 
d="M241 532q-36 -33 -52 -63t-16 -49.5t2.5 -52t0.5 -54.5q-20 10 -28 17q7 14 -12 36l-11 -12q-34 42 -50 130q10 44 42.5 93t59.5 49q23 0 41.5 -28t22.5 -66z" />
    <glyph glyph-name="quoteright" unicode="&#x2019;" horiz-adv-x="215" 
d="M280 525q0 -18 -7 -35l-6 7q-12 -13 -39.5 -46t-44 -51.5t-40 -35.5t-41.5 -17h-42v22q8 4 30 54l22 11l-13 8q19 42 29.5 63t29.5 54.5t35.5 49t32.5 15.5q23 0 38.5 -30t15.5 -69z" />
    <glyph glyph-name="quotedblleft" unicode="&#x201c;" horiz-adv-x="347" 
d="M422 532h-13q-17 -26 -43.5 -82t-52.5 -100t-54 -66q0 15 -0.5 20t-4.5 9.5t-14 4.5q0 20 -4.5 51.5t-4.5 46.5q0 30 15.5 78.5t44 90.5t57.5 42q20 0 42 -25t32 -70zM225 552q-45 -41 -58 -72t-8 -76.5t3 -64.5q-18 9 -27 17q7 14 -12 35l-10 -12q-32 40 -48 126
q9 43 40 90t58 47q22 0 40 -26.5t22 -63.5z" />
    <glyph glyph-name="quotedblright" unicode="&#x201d;" horiz-adv-x="395" 
d="M470 516l-17 -22l-11 7q-62 -96 -218 -170q-3 11 3.5 21.5t13.5 16t8 14t-12 16.5q1 1 24.5 37.5t37 54.5t36 47t41 43t32.5 14q25 0 34 -10t14 -33t14 -36zM289 526q0 -14 -7 -35l-7 7q-13 -14 -40 -47t-44.5 -52.5t-40.5 -36.5t-42 -17q-17 0 -43 22q7 3 31 55l22 13
l-13 6q17 38 29.5 63t31 57.5t36 49t33.5 16.5q23 0 38.5 -30.5t15.5 -70.5z" />
    <glyph glyph-name="quotedblbase" unicode="&#x201e;" horiz-adv-x="305" 
d="M255 7l-17 -22l-11 7q-62 -96 -218 -170q-3 11 3.5 21.5t13.5 16t8 14t-12 16.5q1 1 24.5 37.5t37 54.5t36 47t41 43t32.5 14q25 0 34 -10t14 -33t14 -36zM74 17q0 -14 -7 -35l-7 7q-13 -14 -40 -47t-44.5 -52.5t-40.5 -36.5t-42 -17q-17 0 -43 22q7 3 31 55l22 13l-13 6
q17 38 29.5 63t31 57.5t36 49t33.5 16.5q23 0 38.5 -30.5t15.5 -70.5z" />
    <glyph glyph-name="bullet" unicode="&#x2022;" horiz-adv-x="412" 
d="M365 342q9 -4 11.5 -9t-1.5 -12t-7.5 -12t-13 -14.5l-12.5 -12.5v-84q-27 -42 -88.5 -71.5t-108.5 -29.5q-69 0 -92 83h-18q0 116 73.5 201.5t163.5 85.5q41 0 77.5 -41t15.5 -84zM97 161q6 0 18 5q-18 15 -41 14q6 -20 23 -19z" />
    <glyph glyph-name="ellipsis" unicode="&#x2026;" horiz-adv-x="683" 
d="M571 31q-4 -19 -35 -54.5t-56 -43.5l-55 63l-2 28q5 48 22.5 80.5t44.5 32.5q19 0 38 -21t33 -54q-9 -14 -8 -17.5t9 -7t9 -6.5zM327 31q-5 -23 -32 -59t-52 -36q-22 0 -47 22.5t-14 37.5l10 13q-17 39 14 83t63 44q14 0 24.5 -14t16.5 -32t14 -47zM88 31
q-4 -19 -35 -54.5t-56 -43.5l-55 63l19 28q-16 24 -12.5 49t21.5 44.5t37 19.5q23 0 46 -13t13 -38q15 -28 22 -55z" />
    <glyph glyph-name="guilsinglleft" unicode="&#x2039;" horiz-adv-x="308" 
d="M10 261q42 62 113.5 117t136.5 73q8 -8 11 -27t10 -23l-38 -33q-3 -3 0 -5t7 -1l43 24l-5 -35q-13 -8 -53 -33t-67 -44.5t-44 -36.5q-5 -27 11 -64h19q58 -43 80 -103q-10 -2 -16 -2q-74 0 -138 63.5t-70 129.5z" />
    <glyph glyph-name="guilsinglright" unicode="&#x203a;" horiz-adv-x="308" 
d="M298 258q-42 -62 -113.5 -117t-136.5 -73q-8 8 -11 27t-10 23l38 33q3 3 0 5t-7 1l-43 -24l5 35q13 8 53 33t67 44.5t44 36.5q5 27 -11 64h-19q-58 43 -80 103q10 2 16 2q74 0 138 -63.5t70 -129.5z" />
    <glyph glyph-name="Euro" unicode="&#x20ac;" horiz-adv-x="578" 
d="M540 429q-49 25 -81 24q-34 -1 -61 -21q-17 -12 -35.5 -35t-20.5 -24l-13 3q-2 -4 -9 -11h3q41 0 54 2l16 -30q25 7 39 7q12 0 32 -11q-68 -30 -220 -58q-1 0 -2.5 0.5t-2.5 0.5q-13 -15 -48 -58h49q6 0 17 3t16 3q29 0 51 3l25 -20q11 3 21 3q24 0 50 -15
q-54 -23 -212 -52q-10 -1 -21.5 -1.5t-25.5 -1t-21 -0.5q-12 -27 -12 -40q0 -19 16 -19q20 0 88 15t91 18h5q17 0 25 -10q-8 -2 -30 -8t-34 -9t-27.5 -8t-24 -9t-11.5 -8q8 -5 23 -5q28 0 44 16q146 28 171 31l16 -4l24 3l11 -7l-52 -8q-21 -4 -21 -12q0 -2 3 -7l7 -10
q-4 -2 -35 -11.5t-78 -24t-73 -22.5q-14 -5 -14 -15q0 -4 2 -6q-59 -14 -76 -14q-6 0 -15.5 8t-14.5 8q-10 0 -26 10.5t-29 10.5h-19q-8 8 -18.5 27.5t-21.5 42.5t-12 26q-4 5 -6 19q-26 -6 -31 -7q0 5 -8.5 13.5t-11.5 14.5q-1 4 -4.5 16t-3.5 19q0 1 0.5 3.5t0.5 4.5
q34 12 74 21v13l10 -6q3 6 3 12q0 2 -0.5 7t-0.5 7q0 4 2 10q5 10 7 15q-7 -1 -44 -7q-4 22 -40 27q-1 5 -1 13q0 13 6 21q12 7 28.5 11t29 4.5t34 1t30.5 0.5q16 23 24 23q5 0 5 -3q0 -2 -1 -5t-1 -4q0 -3 5 -3q6 0 22 26t21 26h12q-3 6 -5 28h7q18 43 119.5 109.5
t132.5 66.5q105 0 155 -59l-13 -39q-2 1 -11 4t-11 5l-20 1q22 -11 41 -27l-6 -7q-49 30 -83 33l-27 -2q21 -4 56.5 -18t56.5 -29q-9 -16 -35 -29zM152 170q-2 1 -6 1q-6 0 -12 -9l10 -6zM387 22v-1q-38 -22 -55 -22q-8 0 -14 3q11 5 37 11.5t32 8.5zM124 325l-8 9l-14 -23
l9 -7zM136 151h-10l-7 -14l6 -8zM399 107q-21 0 -43 11q88 15 112 17q-4 -12 -24.5 -20t-44.5 -8zM203 256l-9 5l-12 -19q-11 -22 -11 -27q0 -3 1 -5zM216 287l9 -6q21 21 21 29q-11 0 -30 -23zM495 74l-30 -10l-10 12l27 4zM293 -17q-11 0 -19 4l33 11q5 -2 5 -7
q0 -8 -19 -8zM217 273l-9 6l-6 -10l7 -6z" />
    <glyph glyph-name="trademark" unicode="&#x2122;" horiz-adv-x="579" 
d="M623 319l-11 -20q-35 29 -49 66q6 9 8.5 14.5t-0.5 9t-15 2.5q-4 22 5 42h-1q-45 -64 -103 -73q-14 -2 -24 3.5t-20 18.5t-15 17q1 7 7 22.5t8 24t0 21.5q-24 -25 -49 -84q-22 -50 -34 -52q-9 -1 -16 3.5t-14 16t-9 14.5l5 14q-15 7 -17 17q-7 40 62.5 111t115.5 93
l29 -7q-47 -31 -46 -39l5 -4q38 27 50 37q11 -5 15 -11t9 -20q2 -5 -9.5 -34t-26.5 -63.5t-18 -43.5q24 8 49.5 38t40.5 69l-9 13q10 14 37 19q20 3 35.5 -15t15.5 -42q0 -19 -5.5 -47t-10.5 -49t-5 -44t10 -38zM83 575l63 30l-5 9q49 17 100 17q31 0 50.5 -3t36.5 -18.5
t17 -44.5q0 -20 -16 -41q-28 10 -76 16q-51 -69 -97 -235h-1q-16 63 -30 88v1q0 15 3 34t5.5 31.5t8.5 34.5t8 31h20l4 17q-51 -1 -99 -30q12 39 8 63z" />
    <glyph glyph-name="bullet.orn01" unicode="&#xe000;" horiz-adv-x="1227" 
d="M887 493l-7 16q50 40 82 76l-4 19q15 4 48 4q64 0 140 -61.5t76 -116.5q0 -14 -5.5 -25t-14.5 -11q-12 6 -36 -15v-1q11 4 23 1l-24 -18l-9 8q-22 -22 -34 -27q-30 -13 -127.5 -90.5t-137.5 -122.5q8 -16 9 -28q-17 -10 -32 1q-51 -2 -82 -11q-23 -6 -31 -36q-15 4 -28 9
q-10 -3 -45.5 -36.5t-41.5 -33.5q-5 0 -33.5 16.5t-28.5 21.5q0 3 15.5 18t36.5 34.5t29 28.5q-25 27 -4 45q16 15 24 23.5t15.5 20.5t6.5 23.5t-10 23.5h-24q-16 0 -16 12q0 22 34 41q59 -42 89 -42q-5 10 -7 31q-10 -8 -20 -8q-3 0 -6.5 2t-9 7t-9.5 9.5t-12.5 13.5
t-13.5 15q37 45 119 105l5 -18q-25 -18 -39 -41v-1q21 13 83 58h1l-6 -19l1 -1q131 104 147 147q-1 0 -86 -67zM684 114l4 -5q45 21 122 27q-41 88 -110 106q55 -73 -16 -128zM707 201l-6 -38q14 11 14 27q0 8 -8 11zM1145 506h-1q28 -30 28 -50q-20 -17 -159 -118.5
t-194 -152.5q17 -21 22 -29q16 20 34.5 39.5t41 39.5t40 36t44.5 36.5t41.5 31.5t44 31.5t38.5 26.5t38.5 26t31.5 21q0 20 -15 37t-35 25zM749 304v-15q13 13 43 38q12 11 14 24q-43 -34 -57 -47zM-28 132h43q26 0 58.5 -9t59.5 -21.5t61.5 -32t53.5 -32t47 -31.5t32 -22v1
q-7 16 -23.5 40t-25.5 24q-14 0 -37.5 25t-23.5 36q0 15 15.5 42t26.5 27q42 0 142.5 -65.5t179.5 -151.5q-34 -34 -51 -34q-6 0 -27 18t-62 47t-88 48q5 -11 18.5 -34.5t22.5 -42.5t11 -33q-2 -3 -9 -11t-11 -11.5t-10.5 -7.5t-12.5 -4q-10 0 -57 32t-120.5 72.5
t-137.5 57.5l-91 -20q-11 17 -11 21q0 14 13 41.5t14 30.5zM67 63v-1l44 -12q-8 17 -44 13zM831 471q4 -10 2 -20q-22 -17 -35 -26l-5 18q29 22 38 28zM313 -57l-35 21q4 16 -39 18l79 -49z" />
    <glyph glyph-name="perthousand" horiz-adv-x="832" 
d="M777 121q0 -43 -9.5 -79t-38 -64t-73.5 -28q-5 3 -15.5 9.5t-15.5 10t-14 10t-15 12t-13.5 14.5t-15.5 19q0 38 14 74l-1 2q-24 -14 -52 4v-64q-59 -72 -118 -72q-46 0 -61 56h-11q0 73 49.5 141.5t103.5 68.5q46 0 57 -49q21 -45 56 -43q49 73 111 73q45 0 45 -63
q-9 -7 -3.5 -19t20.5 -13zM726 468l-29 -29l-11 6q-200 -110 -357 -226l-12 -24q-50 -43 -153 -141t-153 -141q-13 26 2.5 57t56.5 78q14 17 9 24l-44 -48l-6 4q48 60 64 69q13 29 64 83t101 96q6 13 5 16t-9 14q-63 -38 -123 -41l-10 18l-8 -12q-25 27 -21 59l-14 24
q9 55 57.5 101t99.5 46q27 0 45.5 -49.5t18.5 -113.5l13 -21l88 83l8 -5l112 80l-7 7q80 54 163 81l8 -9l-7 -11q41 -29 49 -40v-35zM654 33h-27q-5 -14 6 -14t21 14z" />
    <glyph glyph-name="minus" horiz-adv-x="625" 
d="M554 234q-280 -61 -457 -61q0 17 -9.5 27.5t-27.5 10.5q0 37 19 62t56 28q127 10 178 20q106 -25 161 -25q1 -2 5 -10.5t6 -11t7 -7.5t12.5 -6.5t17.5 -0.5z" />
    <glyph glyph-name="a.superior" horiz-adv-x="431" 
d="M377 495q0 -50 -14 -107.5t-41 -91.5q-36 12 -48 70q17 21 28 43q-27 1 -98 -30l-21 12q-28 -38 -42 -38q-13 0 -26.5 25.5t-13.5 44.5q0 6 26.5 32t72.5 68t70 66q7 7 13 18.5t12.5 17.5t18.5 6q25 0 44 -46t19 -90zM324 550l-57 -65l48 -6l-10 -25h17q26 71 2 96z
M383 137l-164 -12l-8 8q-15 -4 -56.5 -9t-57.5 -10l-15 18q-10 -2 -22 -6.5t-19 -6.5t-14 0q-3 1 -13.5 7t-18.5 6q76 59 197 85.5t166 12.5q15 -5 24 -36t1 -57zM71 103l-65 -22q12 19 51 30z" />
    <glyph glyph-name="o.superior" horiz-adv-x="446" 
d="M401 458q-4 -4 -28 -28.5t-41 -40t-41 -36t-45.5 -31.5t-38.5 -11q-14 0 -43 12l-10 42h-18l-11 31q5 38 24.5 89.5t54.5 95.5t70 44q11 0 29.5 -8.5t41.5 -26t39.5 -52.5t16.5 -80zM319 485q9 38 -11 38q-31 0 -90 -126v-12l62 43q5 38 39 57zM278 407l-68 -48
q59 0 67 43zM394 139l-166 -13l-9 9q-15 -4 -57 -9.5t-58 -10.5l-15 19q-10 -2 -22 -6.5t-19.5 -6.5t-14.5 0q-2 1 -13.5 7t-19.5 6q77 60 200.5 87t168.5 12q15 -5 24.5 -36t0.5 -58zM77 104l-65 -22q13 19 51 30z" />
    <glyph glyph-name="one.superior" horiz-adv-x="326" 
d="M346 573q-6 -19 -51 -114.5t-58 -167.5l-22 -18q-39 25 -51 37h-11l-18 29l9 16q0 11 1.5 22t6 25.5t7.5 23.5t11 26.5t11 23.5t12.5 25.5t10.5 22.5l-47 -13q-25 25 -25 43q0 34 36 41q28 5 78.5 24.5t51.5 19.5q8 0 30 -11z" />
    <glyph glyph-name="two.superior" horiz-adv-x="520" 
d="M540 372q-27 -21 -52.5 -25t-50.5 3l-25 -19l-15 8q-13 -4 -73 -22q-13 22 -35 -9q-104 -26 -164 -26l-47 41q6 3 6 11.5t-9 14.5q10 16 28.5 35t45.5 41t45.5 36t51 37.5t40.5 29.5q-16 17 -112 -22q-42 37 -42 86q93 33 218 39l-2 -5l32 -10l7 7q30 -18 30 -48
q0 -23 -20 -67l-57 -44l-8 9q-9 -8 -46.5 -36.5t-52.5 -42.5l175 24l91 -22l-7 -21l46 10z" />
    <glyph glyph-name="three.superior" horiz-adv-x="448" 
d="M443 444q0 -57 -34 -94q-19 9 -32 -16q-175 -69 -278 -69l-6 21l-10 -3q-8 20 -8 65q94 13 113 17q23 5 40 -2q48 11 87.5 28.5t39.5 28.5q0 5 -13.5 6.5t-46.5 2.5t-54 3q-3 4 -10 11l-11 11t-9 11t-5 11t1 11l66 58q-82 0 -108 -15q-20 24 -20 48q0 17 30.5 32.5
t57.5 15.5q53 0 129 -12q6 -7 10.5 -13t7 -12.5t4.5 -10.5t1.5 -11.5t-0.5 -10t-2.5 -11t-3 -10l-4 -12t-4.5 -12.5l53 -21q19 -35 19 -46z" />
    <glyph glyph-name="A.superior" horiz-adv-x="431" 
d="M377 495q0 -50 -14 -107.5t-41 -91.5q-36 12 -48 70q17 21 28 43q-27 1 -98 -30l-21 12q-28 -38 -42 -38q-13 0 -26.5 25.5t-13.5 44.5q0 6 26.5 32t72.5 68t70 66q7 7 13 18.5t12.5 17.5t18.5 6q25 0 44 -46t19 -90zM324 550l-57 -65l48 -6l-10 -25h17q26 71 2 96z
M383 137l-164 -12l-8 8q-15 -4 -56.5 -9t-57.5 -10l-15 18q-10 -2 -22 -6.5t-19 -6.5t-14 0q-3 1 -13.5 7t-18.5 6q76 59 197 85.5t166 12.5q15 -5 24 -36t1 -57zM71 103l-65 -22q12 19 51 30z" />
    <glyph glyph-name="O.superior" horiz-adv-x="446" 
d="M401 458q-4 -4 -28 -28.5t-41 -40t-41 -36t-45.5 -31.5t-38.5 -11q-14 0 -43 12l-10 42h-18l-11 31q5 38 24.5 89.5t54.5 95.5t70 44q11 0 29.5 -8.5t41.5 -26t39.5 -52.5t16.5 -80zM319 485q9 38 -11 38q-31 0 -90 -126v-12l62 43q5 38 39 57zM278 407l-68 -48
q59 0 67 43zM394 139l-166 -13l-9 9q-15 -4 -57 -9.5t-58 -10.5l-15 19q-10 -2 -22 -6.5t-19.5 -6.5t-14.5 0q-2 1 -13.5 7t-19.5 6q77 60 200.5 87t168.5 12q15 -5 24.5 -36t0.5 -58zM77 104l-65 -22q13 19 51 30z" />
    </font>
</defs>
</svg>
