<?xml version="1.0" standalone="no"?>
<!DOCTYPE svg PUBLIC "-//W3C//DTD SVG 20010904//EN"
 "http://www.w3.org/TR/2001/REC-SVG-20010904/DTD/svg10.dtd">
<svg version="1.0" xmlns="http://www.w3.org/2000/svg"
 width="2633.000000pt" height="2633.000000pt" viewBox="0 0 2633.000000 2633.000000"
 preserveAspectRatio="xMidYMid meet">
<metadata>
Created by potrace 1.11, written by Peter Selinger 2001-2013
</metadata>
<g transform="translate(0.000000,2633.000000) scale(0.100000,-0.100000)"
fill="#000000" stroke="none">
<path d="M20 13165 l0 -8575 1565 0 1565 0 2 5873 3 5872 3890 -5872 3890
-5873 1573 0 1572 0 0 6570 0 6570 -1565 0 -1565 0 -2 -3754 -3 -3753 -3814
5758 -3814 5759 -1649 0 -1648 0 0 -8575z"/>
<path d="M4490 21734 c0 -3 449 -683 998 -1510 l997 -1504 6975 -3 c6565 -3
6982 -4 7094 -20 564 -83 1008 -245 1426 -522 735 -487 1198 -1228 1281 -2049
17 -170 7 -496 -20 -655 -122 -712 -503 -1326 -1106 -1781 -519 -391 -1134
-611 -1820 -650 -172 -10 -2117 -14 -2127 -5 -5 6 -3119 7 -3125 1 -2 -2 0
-1903 3 -4225 l7 -4221 1554 0 1553 0 2 2707 3 2708 1150 6 c1200 6 1247 7
1620 54 1207 152 2316 635 3255 1418 170 142 555 522 693 686 663 780 1099
1676 1286 2641 128 663 135 1338 21 2015 -305 1815 -1524 3412 -3255 4264
-636 313 -1283 507 -2003 601 -360 47 211 44 -8424 47 -4421 2 -8038 1 -8038
-3z"/>
</g>
</svg>
