<?xml version="1.0" standalone="no"?>
<!DOCTYPE svg PUBLIC "-//W3C//DTD SVG 20010904//EN"
 "http://www.w3.org/TR/2001/REC-SVG-20010904/DTD/svg10.dtd">
<svg version="1.0" xmlns="http://www.w3.org/2000/svg"
 width="2633.000000pt" height="2633.000000pt" viewBox="0 0 2633.000000 2633.000000"
 preserveAspectRatio="xMidYMid meet">
<metadata>
Created by potrace 1.11, written by Peter Selinger 2001-2013
</metadata>
<g transform="translate(0.000000,2633.000000) scale(0.100000,-0.100000)"
fill="#000000" stroke="none">
<path d="M20 13165 l0 -8575 1565 0 1565 0 2 4716 3 4715 3121 -4713 3121
-4713 2342 -3 2341 -2 0 6570 0 6570 -1565 0 -1565 0 -2 -3751 -3 -3751 -3811
5753 -3811 5754 -1651 3 -1652 2 0 -8575z"/>
<path d="M4490 21734 c0 -3 449 -683 998 -1510 l997 -1504 6455 -3 c6102 -2
6461 -3 6570 -20 413 -63 718 -156 1045 -317 527 -260 944 -628 1240 -1095 78
-124 216 -408 260 -535 218 -635 197 -1293 -61 -1898 -264 -621 -772 -1146
-1419 -1469 -311 -155 -626 -255 -1000 -316 l-130 -21 -2192 3 -2193 4 0
-4232 0 -4231 1565 0 1565 0 0 2709 0 2709 1153 5 c1200 4 1233 5 1607 52
1208 150 2320 634 3260 1418 170 142 555 522 693 686 663 780 1099 1676 1286
2641 128 663 135 1338 21 2015 -305 1815 -1524 3412 -3255 4264 -636 313
-1283 507 -2003 601 -360 47 211 44 -8424 47 -4421 2 -8038 1 -8038 -3z"/>
</g>
</svg>
